<?xml version="1.0" encoding="utf-8" standalone="no"?>
<!DOCTYPE svg PUBLIC "-//W3C//DTD SVG 1.1//EN"
  "http://www.w3.org/Graphics/SVG/1.1/DTD/svg11.dtd">
<svg xmlns:xlink="http://www.w3.org/1999/xlink" width="999.051358pt" height="640.929375pt" viewBox="0 0 999.051358 640.929375" xmlns="http://www.w3.org/2000/svg" version="1.1">
 <metadata>
  <rdf:RDF xmlns:dc="http://purl.org/dc/elements/1.1/" xmlns:cc="http://creativecommons.org/ns#" xmlns:rdf="http://www.w3.org/1999/02/22-rdf-syntax-ns#">
   <cc:Work>
    <dc:type rdf:resource="http://purl.org/dc/dcmitype/StillImage"/>
    <dc:date>2026-04-10T16:36:16.604393</dc:date>
    <dc:format>image/svg+xml</dc:format>
    <dc:creator>
     <cc:Agent>
      <dc:title>Matplotlib v3.10.7, https://matplotlib.org/</dc:title>
     </cc:Agent>
    </dc:creator>
   </cc:Work>
  </rdf:RDF>
 </metadata>
 <defs>
  <style type="text/css">*{stroke-linejoin: round; stroke-linecap: butt}</style>
 </defs>
 <g id="figure_1">
  <g id="patch_1">
   <path d="M 0 640.929375 
L 999.051358 640.929375 
L 999.051358 0 
L 0 0 
z
" style="fill: #ffffff"/>
  </g>
  <g id="axes_1">
   <g id="patch_2">
    <path d="M 210.13 602.280937 
L 991.851358 602.280937 
L 991.851358 23.220937 
L 210.13 23.220937 
z
" style="fill: #ffffff"/>
   </g>
   <g id="matplotlib.axis_1">
    <g id="xtick_1">
     <g id="line2d_1">
      <path d="M 245.662789 602.280937 
L 245.662789 23.220937 
" clip-path="url(#p57117239f6)" style="fill: none; stroke: #cccccc; stroke-width: 0.8; stroke-linecap: round"/>
     </g>
     <g id="line2d_2"/>
     <g id="text_1">
      <!-- −100 -->
      <g style="fill: #262626" transform="translate(232.148726 614.370312) scale(0.12 -0.12)">
       <defs>
        <path id="ArialMT-2212" d="M 3381 1997 
L 356 1997 
L 356 2522 
L 3381 2522 
L 3381 1997 
z
" transform="scale(0.015625)"/>
        <path id="ArialMT-31" d="M 2384 0 
L 1822 0 
L 1822 3584 
Q 1619 3391 1289 3197 
Q 959 3003 697 2906 
L 697 3450 
Q 1169 3672 1522 3987 
Q 1875 4303 2022 4600 
L 2384 4600 
L 2384 0 
z
" transform="scale(0.015625)"/>
        <path id="ArialMT-30" d="M 266 2259 
Q 266 3072 433 3567 
Q 600 4063 929 4331 
Q 1259 4600 1759 4600 
Q 2128 4600 2406 4451 
Q 2684 4303 2865 4023 
Q 3047 3744 3150 3342 
Q 3253 2941 3253 2259 
Q 3253 1453 3087 958 
Q 2922 463 2592 192 
Q 2263 -78 1759 -78 
Q 1097 -78 719 397 
Q 266 969 266 2259 
z
M 844 2259 
Q 844 1131 1108 757 
Q 1372 384 1759 384 
Q 2147 384 2411 759 
Q 2675 1134 2675 2259 
Q 2675 3391 2411 3762 
Q 2147 4134 1753 4134 
Q 1366 4134 1134 3806 
Q 844 3388 844 2259 
z
" transform="scale(0.015625)"/>
       </defs>
       <use xlink:href="#ArialMT-2212"/>
       <use xlink:href="#ArialMT-31" transform="translate(58.398438 0)"/>
       <use xlink:href="#ArialMT-30" transform="translate(114.013672 0)"/>
       <use xlink:href="#ArialMT-30" transform="translate(169.628906 0)"/>
      </g>
     </g>
    </g>
    <g id="xtick_2">
     <g id="line2d_3">
      <path d="M 334.494761 602.280937 
L 334.494761 23.220937 
" clip-path="url(#p57117239f6)" style="fill: none; stroke: #cccccc; stroke-width: 0.8; stroke-linecap: round"/>
     </g>
     <g id="line2d_4"/>
     <g id="text_2">
      <!-- −75 -->
      <g style="fill: #262626" transform="translate(324.317261 614.370312) scale(0.12 -0.12)">
       <defs>
        <path id="ArialMT-37" d="M 303 3981 
L 303 4522 
L 3269 4522 
L 3269 4084 
Q 2831 3619 2401 2847 
Q 1972 2075 1738 1259 
Q 1569 684 1522 0 
L 944 0 
Q 953 541 1156 1306 
Q 1359 2072 1739 2783 
Q 2119 3494 2547 3981 
L 303 3981 
z
" transform="scale(0.015625)"/>
        <path id="ArialMT-35" d="M 266 1200 
L 856 1250 
Q 922 819 1161 601 
Q 1400 384 1738 384 
Q 2144 384 2425 690 
Q 2706 997 2706 1503 
Q 2706 1984 2436 2262 
Q 2166 2541 1728 2541 
Q 1456 2541 1237 2417 
Q 1019 2294 894 2097 
L 366 2166 
L 809 4519 
L 3088 4519 
L 3088 3981 
L 1259 3981 
L 1013 2750 
Q 1425 3038 1878 3038 
Q 2478 3038 2890 2622 
Q 3303 2206 3303 1553 
Q 3303 931 2941 478 
Q 2500 -78 1738 -78 
Q 1113 -78 717 272 
Q 322 622 266 1200 
z
" transform="scale(0.015625)"/>
       </defs>
       <use xlink:href="#ArialMT-2212"/>
       <use xlink:href="#ArialMT-37" transform="translate(58.398438 0)"/>
       <use xlink:href="#ArialMT-35" transform="translate(114.013672 0)"/>
      </g>
     </g>
    </g>
    <g id="xtick_3">
     <g id="line2d_5">
      <path d="M 423.326734 602.280937 
L 423.326734 23.220937 
" clip-path="url(#p57117239f6)" style="fill: none; stroke: #cccccc; stroke-width: 0.8; stroke-linecap: round"/>
     </g>
     <g id="line2d_6"/>
     <g id="text_3">
      <!-- −50 -->
      <g style="fill: #262626" transform="translate(413.149234 614.370312) scale(0.12 -0.12)">
       <use xlink:href="#ArialMT-2212"/>
       <use xlink:href="#ArialMT-35" transform="translate(58.398438 0)"/>
       <use xlink:href="#ArialMT-30" transform="translate(114.013672 0)"/>
      </g>
     </g>
    </g>
    <g id="xtick_4">
     <g id="line2d_7">
      <path d="M 512.158706 602.280937 
L 512.158706 23.220937 
" clip-path="url(#p57117239f6)" style="fill: none; stroke: #cccccc; stroke-width: 0.8; stroke-linecap: round"/>
     </g>
     <g id="line2d_8"/>
     <g id="text_4">
      <!-- −25 -->
      <g style="fill: #262626" transform="translate(501.981206 614.370312) scale(0.12 -0.12)">
       <defs>
        <path id="ArialMT-32" d="M 3222 541 
L 3222 0 
L 194 0 
Q 188 203 259 391 
Q 375 700 629 1000 
Q 884 1300 1366 1694 
Q 2113 2306 2375 2664 
Q 2638 3022 2638 3341 
Q 2638 3675 2398 3904 
Q 2159 4134 1775 4134 
Q 1369 4134 1125 3890 
Q 881 3647 878 3216 
L 300 3275 
Q 359 3922 746 4261 
Q 1134 4600 1788 4600 
Q 2447 4600 2831 4234 
Q 3216 3869 3216 3328 
Q 3216 3053 3103 2787 
Q 2991 2522 2730 2228 
Q 2469 1934 1863 1422 
Q 1356 997 1212 845 
Q 1069 694 975 541 
L 3222 541 
z
" transform="scale(0.015625)"/>
       </defs>
       <use xlink:href="#ArialMT-2212"/>
       <use xlink:href="#ArialMT-32" transform="translate(58.398438 0)"/>
       <use xlink:href="#ArialMT-35" transform="translate(114.013672 0)"/>
      </g>
     </g>
    </g>
    <g id="xtick_5">
     <g id="line2d_9">
      <path d="M 600.990679 602.280937 
L 600.990679 23.220937 
" clip-path="url(#p57117239f6)" style="fill: none; stroke: #cccccc; stroke-width: 0.8; stroke-linecap: round"/>
     </g>
     <g id="line2d_10"/>
     <g id="text_5">
      <!-- 0 -->
      <g style="fill: #262626" transform="translate(597.654116 614.370312) scale(0.12 -0.12)">
       <use xlink:href="#ArialMT-30"/>
      </g>
     </g>
    </g>
    <g id="xtick_6">
     <g id="line2d_11">
      <path d="M 689.822651 602.280937 
L 689.822651 23.220937 
" clip-path="url(#p57117239f6)" style="fill: none; stroke: #cccccc; stroke-width: 0.8; stroke-linecap: round"/>
     </g>
     <g id="line2d_12"/>
     <g id="text_6">
      <!-- 25 -->
      <g style="fill: #262626" transform="translate(683.149526 614.370312) scale(0.12 -0.12)">
       <use xlink:href="#ArialMT-32"/>
       <use xlink:href="#ArialMT-35" transform="translate(55.615234 0)"/>
      </g>
     </g>
    </g>
    <g id="xtick_7">
     <g id="line2d_13">
      <path d="M 778.654624 602.280937 
L 778.654624 23.220937 
" clip-path="url(#p57117239f6)" style="fill: none; stroke: #cccccc; stroke-width: 0.8; stroke-linecap: round"/>
     </g>
     <g id="line2d_14"/>
     <g id="text_7">
      <!-- 50 -->
      <g style="fill: #262626" transform="translate(771.981499 614.370312) scale(0.12 -0.12)">
       <use xlink:href="#ArialMT-35"/>
       <use xlink:href="#ArialMT-30" transform="translate(55.615234 0)"/>
      </g>
     </g>
    </g>
    <g id="xtick_8">
     <g id="line2d_15">
      <path d="M 867.486596 602.280937 
L 867.486596 23.220937 
" clip-path="url(#p57117239f6)" style="fill: none; stroke: #cccccc; stroke-width: 0.8; stroke-linecap: round"/>
     </g>
     <g id="line2d_16"/>
     <g id="text_8">
      <!-- 75 -->
      <g style="fill: #262626" transform="translate(860.813471 614.370312) scale(0.12 -0.12)">
       <use xlink:href="#ArialMT-37"/>
       <use xlink:href="#ArialMT-35" transform="translate(55.615234 0)"/>
      </g>
     </g>
    </g>
    <g id="xtick_9">
     <g id="line2d_17">
      <path d="M 956.318569 602.280937 
L 956.318569 23.220937 
" clip-path="url(#p57117239f6)" style="fill: none; stroke: #cccccc; stroke-width: 0.8; stroke-linecap: round"/>
     </g>
     <g id="line2d_18"/>
     <g id="text_9">
      <!-- 100 -->
      <g style="fill: #262626" transform="translate(946.308881 614.370312) scale(0.12 -0.12)">
       <use xlink:href="#ArialMT-31"/>
       <use xlink:href="#ArialMT-30" transform="translate(55.615234 0)"/>
       <use xlink:href="#ArialMT-30" transform="translate(111.230469 0)"/>
      </g>
     </g>
    </g>
    <g id="text_10">
     <!-- Deviation from Mean [%] -->
     <g style="fill: #262626" transform="translate(524.353804 630.946875) scale(0.14 -0.14)">
      <defs>
       <path id="ArialMT-44" d="M 494 0 
L 494 4581 
L 2072 4581 
Q 2606 4581 2888 4516 
Q 3281 4425 3559 4188 
Q 3922 3881 4101 3404 
Q 4281 2928 4281 2316 
Q 4281 1794 4159 1391 
Q 4038 988 3847 723 
Q 3656 459 3429 307 
Q 3203 156 2883 78 
Q 2563 0 2147 0 
L 494 0 
z
M 1100 541 
L 2078 541 
Q 2531 541 2789 625 
Q 3047 709 3200 863 
Q 3416 1078 3536 1442 
Q 3656 1806 3656 2325 
Q 3656 3044 3420 3430 
Q 3184 3816 2847 3947 
Q 2603 4041 2063 4041 
L 1100 4041 
L 1100 541 
z
" transform="scale(0.015625)"/>
       <path id="ArialMT-65" d="M 2694 1069 
L 3275 997 
Q 3138 488 2766 206 
Q 2394 -75 1816 -75 
Q 1088 -75 661 373 
Q 234 822 234 1631 
Q 234 2469 665 2931 
Q 1097 3394 1784 3394 
Q 2450 3394 2872 2941 
Q 3294 2488 3294 1666 
Q 3294 1616 3291 1516 
L 816 1516 
Q 847 969 1125 678 
Q 1403 388 1819 388 
Q 2128 388 2347 550 
Q 2566 713 2694 1069 
z
M 847 1978 
L 2700 1978 
Q 2663 2397 2488 2606 
Q 2219 2931 1791 2931 
Q 1403 2931 1139 2672 
Q 875 2413 847 1978 
z
" transform="scale(0.015625)"/>
       <path id="ArialMT-76" d="M 1344 0 
L 81 3319 
L 675 3319 
L 1388 1331 
Q 1503 1009 1600 663 
Q 1675 925 1809 1294 
L 2547 3319 
L 3125 3319 
L 1869 0 
L 1344 0 
z
" transform="scale(0.015625)"/>
       <path id="ArialMT-69" d="M 425 3934 
L 425 4581 
L 988 4581 
L 988 3934 
L 425 3934 
z
M 425 0 
L 425 3319 
L 988 3319 
L 988 0 
L 425 0 
z
" transform="scale(0.015625)"/>
       <path id="ArialMT-61" d="M 2588 409 
Q 2275 144 1986 34 
Q 1697 -75 1366 -75 
Q 819 -75 525 192 
Q 231 459 231 875 
Q 231 1119 342 1320 
Q 453 1522 633 1644 
Q 813 1766 1038 1828 
Q 1203 1872 1538 1913 
Q 2219 1994 2541 2106 
Q 2544 2222 2544 2253 
Q 2544 2597 2384 2738 
Q 2169 2928 1744 2928 
Q 1347 2928 1158 2789 
Q 969 2650 878 2297 
L 328 2372 
Q 403 2725 575 2942 
Q 747 3159 1072 3276 
Q 1397 3394 1825 3394 
Q 2250 3394 2515 3294 
Q 2781 3194 2906 3042 
Q 3031 2891 3081 2659 
Q 3109 2516 3109 2141 
L 3109 1391 
Q 3109 606 3145 398 
Q 3181 191 3288 0 
L 2700 0 
Q 2613 175 2588 409 
z
M 2541 1666 
Q 2234 1541 1622 1453 
Q 1275 1403 1131 1340 
Q 988 1278 909 1158 
Q 831 1038 831 891 
Q 831 666 1001 516 
Q 1172 366 1500 366 
Q 1825 366 2078 508 
Q 2331 650 2450 897 
Q 2541 1088 2541 1459 
L 2541 1666 
z
" transform="scale(0.015625)"/>
       <path id="ArialMT-74" d="M 1650 503 
L 1731 6 
Q 1494 -44 1306 -44 
Q 1000 -44 831 53 
Q 663 150 594 308 
Q 525 466 525 972 
L 525 2881 
L 113 2881 
L 113 3319 
L 525 3319 
L 525 4141 
L 1084 4478 
L 1084 3319 
L 1650 3319 
L 1650 2881 
L 1084 2881 
L 1084 941 
Q 1084 700 1114 631 
Q 1144 563 1211 522 
Q 1278 481 1403 481 
Q 1497 481 1650 503 
z
" transform="scale(0.015625)"/>
       <path id="ArialMT-6f" d="M 213 1659 
Q 213 2581 725 3025 
Q 1153 3394 1769 3394 
Q 2453 3394 2887 2945 
Q 3322 2497 3322 1706 
Q 3322 1066 3130 698 
Q 2938 331 2570 128 
Q 2203 -75 1769 -75 
Q 1072 -75 642 372 
Q 213 819 213 1659 
z
M 791 1659 
Q 791 1022 1069 705 
Q 1347 388 1769 388 
Q 2188 388 2466 706 
Q 2744 1025 2744 1678 
Q 2744 2294 2464 2611 
Q 2184 2928 1769 2928 
Q 1347 2928 1069 2612 
Q 791 2297 791 1659 
z
" transform="scale(0.015625)"/>
       <path id="ArialMT-6e" d="M 422 0 
L 422 3319 
L 928 3319 
L 928 2847 
Q 1294 3394 1984 3394 
Q 2284 3394 2536 3286 
Q 2788 3178 2913 3003 
Q 3038 2828 3088 2588 
Q 3119 2431 3119 2041 
L 3119 0 
L 2556 0 
L 2556 2019 
Q 2556 2363 2490 2533 
Q 2425 2703 2258 2804 
Q 2091 2906 1866 2906 
Q 1506 2906 1245 2678 
Q 984 2450 984 1813 
L 984 0 
L 422 0 
z
" transform="scale(0.015625)"/>
       <path id="ArialMT-20" transform="scale(0.015625)"/>
       <path id="ArialMT-66" d="M 556 0 
L 556 2881 
L 59 2881 
L 59 3319 
L 556 3319 
L 556 3672 
Q 556 4006 616 4169 
Q 697 4388 901 4523 
Q 1106 4659 1475 4659 
Q 1713 4659 2000 4603 
L 1916 4113 
Q 1741 4144 1584 4144 
Q 1328 4144 1222 4034 
Q 1116 3925 1116 3625 
L 1116 3319 
L 1763 3319 
L 1763 2881 
L 1116 2881 
L 1116 0 
L 556 0 
z
" transform="scale(0.015625)"/>
       <path id="ArialMT-72" d="M 416 0 
L 416 3319 
L 922 3319 
L 922 2816 
Q 1116 3169 1280 3281 
Q 1444 3394 1641 3394 
Q 1925 3394 2219 3213 
L 2025 2691 
Q 1819 2813 1613 2813 
Q 1428 2813 1281 2702 
Q 1134 2591 1072 2394 
Q 978 2094 978 1738 
L 978 0 
L 416 0 
z
" transform="scale(0.015625)"/>
       <path id="ArialMT-6d" d="M 422 0 
L 422 3319 
L 925 3319 
L 925 2853 
Q 1081 3097 1340 3245 
Q 1600 3394 1931 3394 
Q 2300 3394 2536 3241 
Q 2772 3088 2869 2813 
Q 3263 3394 3894 3394 
Q 4388 3394 4653 3120 
Q 4919 2847 4919 2278 
L 4919 0 
L 4359 0 
L 4359 2091 
Q 4359 2428 4304 2576 
Q 4250 2725 4106 2815 
Q 3963 2906 3769 2906 
Q 3419 2906 3187 2673 
Q 2956 2441 2956 1928 
L 2956 0 
L 2394 0 
L 2394 2156 
Q 2394 2531 2256 2718 
Q 2119 2906 1806 2906 
Q 1569 2906 1367 2781 
Q 1166 2656 1075 2415 
Q 984 2175 984 1722 
L 984 0 
L 422 0 
z
" transform="scale(0.015625)"/>
       <path id="ArialMT-4d" d="M 475 0 
L 475 4581 
L 1388 4581 
L 2472 1338 
Q 2622 884 2691 659 
Q 2769 909 2934 1394 
L 4031 4581 
L 4847 4581 
L 4847 0 
L 4263 0 
L 4263 3834 
L 2931 0 
L 2384 0 
L 1059 3900 
L 1059 0 
L 475 0 
z
" transform="scale(0.015625)"/>
       <path id="ArialMT-5b" d="M 434 -1272 
L 434 4581 
L 1675 4581 
L 1675 4116 
L 997 4116 
L 997 -806 
L 1675 -806 
L 1675 -1272 
L 434 -1272 
z
" transform="scale(0.015625)"/>
       <path id="ArialMT-25" d="M 372 3481 
Q 372 3972 619 4315 
Q 866 4659 1334 4659 
Q 1766 4659 2048 4351 
Q 2331 4044 2331 3447 
Q 2331 2866 2045 2552 
Q 1759 2238 1341 2238 
Q 925 2238 648 2547 
Q 372 2856 372 3481 
z
M 1350 4272 
Q 1141 4272 1002 4090 
Q 863 3909 863 3425 
Q 863 2984 1003 2804 
Q 1144 2625 1350 2625 
Q 1563 2625 1702 2806 
Q 1841 2988 1841 3469 
Q 1841 3913 1700 4092 
Q 1559 4272 1350 4272 
z
M 1353 -169 
L 3859 4659 
L 4316 4659 
L 1819 -169 
L 1353 -169 
z
M 3334 1075 
Q 3334 1569 3581 1911 
Q 3828 2253 4300 2253 
Q 4731 2253 5014 1945 
Q 5297 1638 5297 1041 
Q 5297 459 5011 145 
Q 4725 -169 4303 -169 
Q 3888 -169 3611 142 
Q 3334 453 3334 1075 
z
M 4316 1866 
Q 4103 1866 3964 1684 
Q 3825 1503 3825 1019 
Q 3825 581 3965 400 
Q 4106 219 4313 219 
Q 4528 219 4667 400 
Q 4806 581 4806 1063 
Q 4806 1506 4665 1686 
Q 4525 1866 4316 1866 
z
" transform="scale(0.015625)"/>
       <path id="ArialMT-5d" d="M 1363 -1272 
L 122 -1272 
L 122 -806 
L 800 -806 
L 800 4116 
L 122 4116 
L 122 4581 
L 1363 4581 
L 1363 -1272 
z
" transform="scale(0.015625)"/>
      </defs>
      <use xlink:href="#ArialMT-44"/>
      <use xlink:href="#ArialMT-65" transform="translate(72.216797 0)"/>
      <use xlink:href="#ArialMT-76" transform="translate(127.832031 0)"/>
      <use xlink:href="#ArialMT-69" transform="translate(177.832031 0)"/>
      <use xlink:href="#ArialMT-61" transform="translate(200.048828 0)"/>
      <use xlink:href="#ArialMT-74" transform="translate(255.664062 0)"/>
      <use xlink:href="#ArialMT-69" transform="translate(283.447266 0)"/>
      <use xlink:href="#ArialMT-6f" transform="translate(305.664062 0)"/>
      <use xlink:href="#ArialMT-6e" transform="translate(361.279297 0)"/>
      <use xlink:href="#ArialMT-20" transform="translate(416.894531 0)"/>
      <use xlink:href="#ArialMT-66" transform="translate(444.677734 0)"/>
      <use xlink:href="#ArialMT-72" transform="translate(472.460938 0)"/>
      <use xlink:href="#ArialMT-6f" transform="translate(505.761719 0)"/>
      <use xlink:href="#ArialMT-6d" transform="translate(561.376953 0)"/>
      <use xlink:href="#ArialMT-20" transform="translate(644.677734 0)"/>
      <use xlink:href="#ArialMT-4d" transform="translate(672.460938 0)"/>
      <use xlink:href="#ArialMT-65" transform="translate(755.761719 0)"/>
      <use xlink:href="#ArialMT-61" transform="translate(811.376953 0)"/>
      <use xlink:href="#ArialMT-6e" transform="translate(866.992188 0)"/>
      <use xlink:href="#ArialMT-20" transform="translate(922.607422 0)"/>
      <use xlink:href="#ArialMT-5b" transform="translate(950.390625 0)"/>
      <use xlink:href="#ArialMT-25" transform="translate(978.173828 0)"/>
      <use xlink:href="#ArialMT-5d" transform="translate(1067.089844 0)"/>
     </g>
    </g>
   </g>
   <g id="matplotlib.axis_2">
    <g id="ytick_1">
     <g id="line2d_19">
      <path d="M 210.13 562.632986 
L 991.851358 562.632986 
" clip-path="url(#p57117239f6)" style="fill: none; stroke: #cccccc; stroke-width: 0.8; stroke-linecap: round"/>
     </g>
     <g id="line2d_20"/>
     <g id="text_11">
      <!-- $a$ [m]: Half Well Spacing -->
      <g style="fill: #262626" transform="translate(88.6 566.647986) scale(0.11 -0.11)">
       <defs>
        <path id="DejaVuSans-Oblique-61" d="M 3438 1997 
L 3047 0 
L 2472 0 
L 2578 531 
Q 2325 219 2001 64 
Q 1678 -91 1281 -91 
Q 834 -91 548 182 
Q 263 456 263 884 
Q 263 1497 752 1853 
Q 1241 2209 2100 2209 
L 2900 2209 
L 2931 2363 
Q 2938 2388 2941 2417 
Q 2944 2447 2944 2509 
Q 2944 2788 2717 2942 
Q 2491 3097 2081 3097 
Q 1800 3097 1504 3025 
Q 1209 2953 897 2809 
L 997 3341 
Q 1322 3463 1633 3523 
Q 1944 3584 2234 3584 
Q 2853 3584 3176 3315 
Q 3500 3047 3500 2534 
Q 3500 2431 3484 2292 
Q 3469 2153 3438 1997 
z
M 2816 1759 
L 2241 1759 
Q 1534 1759 1195 1570 
Q 856 1381 856 984 
Q 856 709 1029 553 
Q 1203 397 1509 397 
Q 1978 397 2328 733 
Q 2678 1069 2791 1631 
L 2816 1759 
z
" transform="scale(0.015625)"/>
        <path id="ArialMT-3a" d="M 578 2678 
L 578 3319 
L 1219 3319 
L 1219 2678 
L 578 2678 
z
M 578 0 
L 578 641 
L 1219 641 
L 1219 0 
L 578 0 
z
" transform="scale(0.015625)"/>
        <path id="ArialMT-48" d="M 513 0 
L 513 4581 
L 1119 4581 
L 1119 2700 
L 3500 2700 
L 3500 4581 
L 4106 4581 
L 4106 0 
L 3500 0 
L 3500 2159 
L 1119 2159 
L 1119 0 
L 513 0 
z
" transform="scale(0.015625)"/>
        <path id="ArialMT-6c" d="M 409 0 
L 409 4581 
L 972 4581 
L 972 0 
L 409 0 
z
" transform="scale(0.015625)"/>
        <path id="ArialMT-57" d="M 1294 0 
L 78 4581 
L 700 4581 
L 1397 1578 
Q 1509 1106 1591 641 
Q 1766 1375 1797 1488 
L 2669 4581 
L 3400 4581 
L 4056 2263 
Q 4303 1400 4413 641 
Q 4500 1075 4641 1638 
L 5359 4581 
L 5969 4581 
L 4713 0 
L 4128 0 
L 3163 3491 
Q 3041 3928 3019 4028 
Q 2947 3713 2884 3491 
L 1913 0 
L 1294 0 
z
" transform="scale(0.015625)"/>
        <path id="ArialMT-53" d="M 288 1472 
L 859 1522 
Q 900 1178 1048 958 
Q 1197 738 1509 602 
Q 1822 466 2213 466 
Q 2559 466 2825 569 
Q 3091 672 3220 851 
Q 3350 1031 3350 1244 
Q 3350 1459 3225 1620 
Q 3100 1781 2813 1891 
Q 2628 1963 1997 2114 
Q 1366 2266 1113 2400 
Q 784 2572 623 2826 
Q 463 3081 463 3397 
Q 463 3744 659 4045 
Q 856 4347 1234 4503 
Q 1613 4659 2075 4659 
Q 2584 4659 2973 4495 
Q 3363 4331 3572 4012 
Q 3781 3694 3797 3291 
L 3216 3247 
Q 3169 3681 2898 3903 
Q 2628 4125 2100 4125 
Q 1550 4125 1298 3923 
Q 1047 3722 1047 3438 
Q 1047 3191 1225 3031 
Q 1400 2872 2139 2705 
Q 2878 2538 3153 2413 
Q 3553 2228 3743 1945 
Q 3934 1663 3934 1294 
Q 3934 928 3725 604 
Q 3516 281 3123 101 
Q 2731 -78 2241 -78 
Q 1619 -78 1198 103 
Q 778 284 539 648 
Q 300 1013 288 1472 
z
" transform="scale(0.015625)"/>
        <path id="ArialMT-70" d="M 422 -1272 
L 422 3319 
L 934 3319 
L 934 2888 
Q 1116 3141 1344 3267 
Q 1572 3394 1897 3394 
Q 2322 3394 2647 3175 
Q 2972 2956 3137 2557 
Q 3303 2159 3303 1684 
Q 3303 1175 3120 767 
Q 2938 359 2589 142 
Q 2241 -75 1856 -75 
Q 1575 -75 1351 44 
Q 1128 163 984 344 
L 984 -1272 
L 422 -1272 
z
M 931 1641 
Q 931 1000 1190 694 
Q 1450 388 1819 388 
Q 2194 388 2461 705 
Q 2728 1022 2728 1688 
Q 2728 2322 2467 2637 
Q 2206 2953 1844 2953 
Q 1484 2953 1207 2617 
Q 931 2281 931 1641 
z
" transform="scale(0.015625)"/>
        <path id="ArialMT-63" d="M 2588 1216 
L 3141 1144 
Q 3050 572 2676 248 
Q 2303 -75 1759 -75 
Q 1078 -75 664 370 
Q 250 816 250 1647 
Q 250 2184 428 2587 
Q 606 2991 970 3192 
Q 1334 3394 1763 3394 
Q 2303 3394 2647 3120 
Q 2991 2847 3088 2344 
L 2541 2259 
Q 2463 2594 2264 2762 
Q 2066 2931 1784 2931 
Q 1359 2931 1093 2626 
Q 828 2322 828 1663 
Q 828 994 1084 691 
Q 1341 388 1753 388 
Q 2084 388 2306 591 
Q 2528 794 2588 1216 
z
" transform="scale(0.015625)"/>
        <path id="ArialMT-67" d="M 319 -275 
L 866 -356 
Q 900 -609 1056 -725 
Q 1266 -881 1628 -881 
Q 2019 -881 2231 -725 
Q 2444 -569 2519 -288 
Q 2563 -116 2559 434 
Q 2191 0 1641 0 
Q 956 0 581 494 
Q 206 988 206 1678 
Q 206 2153 378 2554 
Q 550 2956 876 3175 
Q 1203 3394 1644 3394 
Q 2231 3394 2613 2919 
L 2613 3319 
L 3131 3319 
L 3131 450 
Q 3131 -325 2973 -648 
Q 2816 -972 2473 -1159 
Q 2131 -1347 1631 -1347 
Q 1038 -1347 672 -1080 
Q 306 -813 319 -275 
z
M 784 1719 
Q 784 1066 1043 766 
Q 1303 466 1694 466 
Q 2081 466 2343 764 
Q 2606 1063 2606 1700 
Q 2606 2309 2336 2618 
Q 2066 2928 1684 2928 
Q 1309 2928 1046 2623 
Q 784 2319 784 1719 
z
" transform="scale(0.015625)"/>
       </defs>
       <use xlink:href="#DejaVuSans-Oblique-61" transform="translate(0 0.203125)"/>
       <use xlink:href="#ArialMT-20" transform="translate(61.279297 0.203125)"/>
       <use xlink:href="#ArialMT-5b" transform="translate(89.0625 0.203125)"/>
       <use xlink:href="#ArialMT-6d" transform="translate(116.845703 0.203125)"/>
       <use xlink:href="#ArialMT-5d" transform="translate(200.146484 0.203125)"/>
       <use xlink:href="#ArialMT-3a" transform="translate(227.929688 0.203125)"/>
       <use xlink:href="#ArialMT-20" transform="translate(255.712891 0.203125)"/>
       <use xlink:href="#ArialMT-48" transform="translate(283.496094 0.203125)"/>
       <use xlink:href="#ArialMT-61" transform="translate(355.712891 0.203125)"/>
       <use xlink:href="#ArialMT-6c" transform="translate(411.328125 0.203125)"/>
       <use xlink:href="#ArialMT-66" transform="translate(433.544922 0.203125)"/>
       <use xlink:href="#ArialMT-20" transform="translate(461.328125 0.203125)"/>
       <use xlink:href="#ArialMT-57" transform="translate(489.111328 0.203125)"/>
       <use xlink:href="#ArialMT-65" transform="translate(583.496094 0.203125)"/>
       <use xlink:href="#ArialMT-6c" transform="translate(639.111328 0.203125)"/>
       <use xlink:href="#ArialMT-6c" transform="translate(661.328125 0.203125)"/>
       <use xlink:href="#ArialMT-20" transform="translate(683.544922 0.203125)"/>
       <use xlink:href="#ArialMT-53" transform="translate(711.328125 0.203125)"/>
       <use xlink:href="#ArialMT-70" transform="translate(778.027344 0.203125)"/>
       <use xlink:href="#ArialMT-61" transform="translate(833.642578 0.203125)"/>
       <use xlink:href="#ArialMT-63" transform="translate(889.257812 0.203125)"/>
       <use xlink:href="#ArialMT-69" transform="translate(939.257812 0.203125)"/>
       <use xlink:href="#ArialMT-6e" transform="translate(961.474609 0.203125)"/>
       <use xlink:href="#ArialMT-67" transform="translate(1017.089844 0.203125)"/>
      </g>
     </g>
    </g>
    <g id="ytick_2">
     <g id="line2d_21">
      <path d="M 210.13 529.315379 
L 991.851358 529.315379 
" clip-path="url(#p57117239f6)" style="fill: none; stroke: #cccccc; stroke-width: 0.8; stroke-linecap: round"/>
     </g>
     <g id="line2d_22"/>
     <g id="text_12">
      <!-- $c_F$ [J/(kg·K)]: Fluid Heat Capacity -->
      <g style="fill: #262626" transform="translate(46.03 533.330379) scale(0.11 -0.11)">
       <defs>
        <path id="DejaVuSans-Oblique-63" d="M 3431 3366 
L 3316 2797 
Q 3109 2947 2876 3022 
Q 2644 3097 2394 3097 
Q 2119 3097 1870 3000 
Q 1622 2903 1453 2725 
Q 1184 2453 1037 2087 
Q 891 1722 891 1331 
Q 891 859 1127 628 
Q 1363 397 1844 397 
Q 2081 397 2348 469 
Q 2616 541 2906 684 
L 2797 116 
Q 2547 13 2283 -39 
Q 2019 -91 1741 -91 
Q 1044 -91 669 257 
Q 294 606 294 1253 
Q 294 1797 489 2255 
Q 684 2713 1069 3078 
Q 1331 3328 1684 3456 
Q 2038 3584 2456 3584 
Q 2700 3584 2940 3529 
Q 3181 3475 3431 3366 
z
" transform="scale(0.015625)"/>
        <path id="DejaVuSans-Oblique-46" d="M 1081 4666 
L 3756 4666 
L 3653 4134 
L 1606 4134 
L 1338 2759 
L 3188 2759 
L 3084 2228 
L 1234 2228 
L 800 0 
L 172 0 
L 1081 4666 
z
" transform="scale(0.015625)"/>
        <path id="ArialMT-4a" d="M 184 1300 
L 731 1375 
Q 753 850 928 656 
Q 1103 463 1413 463 
Q 1641 463 1806 567 
Q 1972 672 2034 851 
Q 2097 1031 2097 1425 
L 2097 4581 
L 2703 4581 
L 2703 1459 
Q 2703 884 2564 568 
Q 2425 253 2123 87 
Q 1822 -78 1416 -78 
Q 813 -78 492 269 
Q 172 616 184 1300 
z
" transform="scale(0.015625)"/>
        <path id="ArialMT-2f" d="M 0 -78 
L 1328 4659 
L 1778 4659 
L 453 -78 
L 0 -78 
z
" transform="scale(0.015625)"/>
        <path id="ArialMT-28" d="M 1497 -1347 
Q 1031 -759 709 28 
Q 388 816 388 1659 
Q 388 2403 628 3084 
Q 909 3875 1497 4659 
L 1900 4659 
Q 1522 4009 1400 3731 
Q 1209 3300 1100 2831 
Q 966 2247 966 1656 
Q 966 153 1900 -1347 
L 1497 -1347 
z
" transform="scale(0.015625)"/>
        <path id="ArialMT-6b" d="M 425 0 
L 425 4581 
L 988 4581 
L 988 1969 
L 2319 3319 
L 3047 3319 
L 1778 2088 
L 3175 0 
L 2481 0 
L 1384 1697 
L 988 1316 
L 988 0 
L 425 0 
z
" transform="scale(0.015625)"/>
        <path id="ArialMT-b7" d="M 744 1991 
L 744 2631 
L 1384 2631 
L 1384 1991 
L 744 1991 
z
" transform="scale(0.015625)"/>
        <path id="ArialMT-4b" d="M 469 0 
L 469 4581 
L 1075 4581 
L 1075 2309 
L 3350 4581 
L 4172 4581 
L 2250 2725 
L 4256 0 
L 3456 0 
L 1825 2319 
L 1075 1588 
L 1075 0 
L 469 0 
z
" transform="scale(0.015625)"/>
        <path id="ArialMT-29" d="M 791 -1347 
L 388 -1347 
Q 1322 153 1322 1656 
Q 1322 2244 1188 2822 
Q 1081 3291 891 3722 
Q 769 4003 388 4659 
L 791 4659 
Q 1378 3875 1659 3084 
Q 1900 2403 1900 1659 
Q 1900 816 1576 28 
Q 1253 -759 791 -1347 
z
" transform="scale(0.015625)"/>
        <path id="ArialMT-46" d="M 525 0 
L 525 4581 
L 3616 4581 
L 3616 4041 
L 1131 4041 
L 1131 2622 
L 3281 2622 
L 3281 2081 
L 1131 2081 
L 1131 0 
L 525 0 
z
" transform="scale(0.015625)"/>
        <path id="ArialMT-75" d="M 2597 0 
L 2597 488 
Q 2209 -75 1544 -75 
Q 1250 -75 995 37 
Q 741 150 617 320 
Q 494 491 444 738 
Q 409 903 409 1263 
L 409 3319 
L 972 3319 
L 972 1478 
Q 972 1038 1006 884 
Q 1059 663 1231 536 
Q 1403 409 1656 409 
Q 1909 409 2131 539 
Q 2353 669 2445 892 
Q 2538 1116 2538 1541 
L 2538 3319 
L 3100 3319 
L 3100 0 
L 2597 0 
z
" transform="scale(0.015625)"/>
        <path id="ArialMT-64" d="M 2575 0 
L 2575 419 
Q 2259 -75 1647 -75 
Q 1250 -75 917 144 
Q 584 363 401 755 
Q 219 1147 219 1656 
Q 219 2153 384 2558 
Q 550 2963 881 3178 
Q 1213 3394 1622 3394 
Q 1922 3394 2156 3267 
Q 2391 3141 2538 2938 
L 2538 4581 
L 3097 4581 
L 3097 0 
L 2575 0 
z
M 797 1656 
Q 797 1019 1065 703 
Q 1334 388 1700 388 
Q 2069 388 2326 689 
Q 2584 991 2584 1609 
Q 2584 2291 2321 2609 
Q 2059 2928 1675 2928 
Q 1300 2928 1048 2622 
Q 797 2316 797 1656 
z
" transform="scale(0.015625)"/>
        <path id="ArialMT-43" d="M 3763 1606 
L 4369 1453 
Q 4178 706 3683 314 
Q 3188 -78 2472 -78 
Q 1731 -78 1267 223 
Q 803 525 561 1097 
Q 319 1669 319 2325 
Q 319 3041 592 3573 
Q 866 4106 1370 4382 
Q 1875 4659 2481 4659 
Q 3169 4659 3637 4309 
Q 4106 3959 4291 3325 
L 3694 3184 
Q 3534 3684 3231 3912 
Q 2928 4141 2469 4141 
Q 1941 4141 1586 3887 
Q 1231 3634 1087 3207 
Q 944 2781 944 2328 
Q 944 1744 1114 1308 
Q 1284 872 1643 656 
Q 2003 441 2422 441 
Q 2931 441 3284 734 
Q 3638 1028 3763 1606 
z
" transform="scale(0.015625)"/>
        <path id="ArialMT-79" d="M 397 -1278 
L 334 -750 
Q 519 -800 656 -800 
Q 844 -800 956 -737 
Q 1069 -675 1141 -563 
Q 1194 -478 1313 -144 
Q 1328 -97 1363 -6 
L 103 3319 
L 709 3319 
L 1400 1397 
Q 1534 1031 1641 628 
Q 1738 1016 1872 1384 
L 2581 3319 
L 3144 3319 
L 1881 -56 
Q 1678 -603 1566 -809 
Q 1416 -1088 1222 -1217 
Q 1028 -1347 759 -1347 
Q 597 -1347 397 -1278 
z
" transform="scale(0.015625)"/>
       </defs>
       <use xlink:href="#DejaVuSans-Oblique-63" transform="translate(0 0.203125)"/>
       <use xlink:href="#DejaVuSans-Oblique-46" transform="translate(54.980469 -16.203125) scale(0.7)"/>
       <use xlink:href="#ArialMT-20" transform="translate(97.978516 0.203125)"/>
       <use xlink:href="#ArialMT-5b" transform="translate(125.761719 0.203125)"/>
       <use xlink:href="#ArialMT-4a" transform="translate(153.544922 0.203125)"/>
       <use xlink:href="#ArialMT-2f" transform="translate(203.544922 0.203125)"/>
       <use xlink:href="#ArialMT-28" transform="translate(231.328125 0.203125)"/>
       <use xlink:href="#ArialMT-6b" transform="translate(264.628906 0.203125)"/>
       <use xlink:href="#ArialMT-67" transform="translate(314.628906 0.203125)"/>
       <use xlink:href="#ArialMT-b7" transform="translate(370.244141 0.203125)"/>
       <use xlink:href="#ArialMT-4b" transform="translate(403.544922 0.203125)"/>
       <use xlink:href="#ArialMT-29" transform="translate(470.244141 0.203125)"/>
       <use xlink:href="#ArialMT-5d" transform="translate(503.544922 0.203125)"/>
       <use xlink:href="#ArialMT-3a" transform="translate(531.328125 0.203125)"/>
       <use xlink:href="#ArialMT-20" transform="translate(559.111328 0.203125)"/>
       <use xlink:href="#ArialMT-46" transform="translate(586.894531 0.203125)"/>
       <use xlink:href="#ArialMT-6c" transform="translate(647.978516 0.203125)"/>
       <use xlink:href="#ArialMT-75" transform="translate(670.195312 0.203125)"/>
       <use xlink:href="#ArialMT-69" transform="translate(725.810547 0.203125)"/>
       <use xlink:href="#ArialMT-64" transform="translate(748.027344 0.203125)"/>
       <use xlink:href="#ArialMT-20" transform="translate(803.642578 0.203125)"/>
       <use xlink:href="#ArialMT-48" transform="translate(831.425781 0.203125)"/>
       <use xlink:href="#ArialMT-65" transform="translate(903.642578 0.203125)"/>
       <use xlink:href="#ArialMT-61" transform="translate(959.257812 0.203125)"/>
       <use xlink:href="#ArialMT-74" transform="translate(1014.873047 0.203125)"/>
       <use xlink:href="#ArialMT-20" transform="translate(1042.65625 0.203125)"/>
       <use xlink:href="#ArialMT-43" transform="translate(1070.439453 0.203125)"/>
       <use xlink:href="#ArialMT-61" transform="translate(1142.65625 0.203125)"/>
       <use xlink:href="#ArialMT-70" transform="translate(1198.271484 0.203125)"/>
       <use xlink:href="#ArialMT-61" transform="translate(1253.886719 0.203125)"/>
       <use xlink:href="#ArialMT-63" transform="translate(1309.501953 0.203125)"/>
       <use xlink:href="#ArialMT-69" transform="translate(1359.501953 0.203125)"/>
       <use xlink:href="#ArialMT-74" transform="translate(1381.71875 0.203125)"/>
       <use xlink:href="#ArialMT-79" transform="translate(1409.501953 0.203125)"/>
      </g>
     </g>
    </g>
    <g id="ytick_3">
     <g id="line2d_23">
      <path d="M 210.13 495.997773 
L 991.851358 495.997773 
" clip-path="url(#p57117239f6)" style="fill: none; stroke: #cccccc; stroke-width: 0.8; stroke-linecap: round"/>
     </g>
     <g id="line2d_24"/>
     <g id="text_13">
      <!-- $\rho_S$ [kg/m³]: Rock Matrix Density -->
      <g style="fill: #262626" transform="translate(53.84 500.012773) scale(0.11 -0.11)">
       <defs>
        <path id="DejaVuSans-Oblique-3c1" d="M 1203 2875 
Q 1453 3194 1981 3475 
Q 2188 3584 2756 3584 
Q 3394 3584 3694 3078 
Q 3994 2572 3834 1747 
Q 3672 922 3175 415 
Q 2678 -91 2041 -91 
Q 1656 -91 1409 63 
Q 1163 213 1044 525 
L 681 -1331 
L 103 -1331 
L 697 1716 
Q 838 2438 1203 2875 
z
M 3238 1747 
Q 3359 2381 3169 2744 
Q 2978 3103 2522 3103 
Q 2066 3103 1734 2744 
Q 1403 2381 1281 1747 
Q 1156 1113 1347 750 
Q 1538 391 1994 391 
Q 2450 391 2781 750 
Q 3113 1113 3238 1747 
z
" transform="scale(0.015625)"/>
        <path id="DejaVuSans-Oblique-53" d="M 3859 4513 
L 3738 3897 
Q 3422 4066 3111 4152 
Q 2800 4238 2509 4238 
Q 1944 4238 1609 3991 
Q 1275 3744 1275 3334 
Q 1275 3109 1398 2989 
Q 1522 2869 2034 2731 
L 2413 2638 
Q 3053 2472 3303 2217 
Q 3553 1963 3553 1503 
Q 3553 797 2998 353 
Q 2444 -91 1538 -91 
Q 1166 -91 791 -17 
Q 416 56 38 206 
L 166 856 
Q 513 641 861 531 
Q 1209 422 1556 422 
Q 2147 422 2503 684 
Q 2859 947 2859 1369 
Q 2859 1650 2717 1795 
Q 2575 1941 2106 2059 
L 1728 2156 
Q 1081 2325 845 2545 
Q 609 2766 609 3163 
Q 609 3859 1145 4304 
Q 1681 4750 2541 4750 
Q 2875 4750 3203 4690 
Q 3531 4631 3859 4513 
z
" transform="scale(0.015625)"/>
        <path id="ArialMT-b3" d="M 103 2903 
L 559 2950 
Q 622 2763 722 2694 
Q 856 2600 1041 2600 
Q 1263 2600 1397 2722 
Q 1531 2844 1531 3016 
Q 1531 3172 1418 3265 
Q 1306 3359 1034 3359 
Q 997 3359 931 3353 
Q 888 3350 863 3350 
L 931 3694 
Q 1184 3691 1301 3784 
Q 1419 3878 1419 4013 
Q 1419 4128 1325 4209 
Q 1231 4291 1047 4291 
Q 872 4291 773 4222 
Q 675 4153 603 3972 
L 156 4044 
Q 284 4375 479 4506 
Q 675 4638 1050 4638 
Q 1500 4638 1704 4470 
Q 1909 4303 1909 4053 
Q 1909 3881 1798 3747 
Q 1688 3613 1478 3553 
Q 1756 3484 1887 3326 
Q 2019 3169 2019 2956 
Q 2019 2666 1772 2450 
Q 1525 2234 1069 2234 
Q 631 2234 400 2407 
Q 169 2581 103 2903 
z
" transform="scale(0.015625)"/>
        <path id="ArialMT-52" d="M 503 0 
L 503 4581 
L 2534 4581 
Q 3147 4581 3465 4457 
Q 3784 4334 3975 4021 
Q 4166 3709 4166 3331 
Q 4166 2844 3850 2509 
Q 3534 2175 2875 2084 
Q 3116 1969 3241 1856 
Q 3506 1613 3744 1247 
L 4541 0 
L 3778 0 
L 3172 953 
Q 2906 1366 2734 1584 
Q 2563 1803 2427 1890 
Q 2291 1978 2150 2013 
Q 2047 2034 1813 2034 
L 1109 2034 
L 1109 0 
L 503 0 
z
M 1109 2559 
L 2413 2559 
Q 2828 2559 3062 2645 
Q 3297 2731 3419 2920 
Q 3541 3109 3541 3331 
Q 3541 3656 3305 3865 
Q 3069 4075 2559 4075 
L 1109 4075 
L 1109 2559 
z
" transform="scale(0.015625)"/>
        <path id="ArialMT-78" d="M 47 0 
L 1259 1725 
L 138 3319 
L 841 3319 
L 1350 2541 
Q 1494 2319 1581 2169 
Q 1719 2375 1834 2534 
L 2394 3319 
L 3066 3319 
L 1919 1756 
L 3153 0 
L 2463 0 
L 1781 1031 
L 1600 1309 
L 728 0 
L 47 0 
z
" transform="scale(0.015625)"/>
        <path id="ArialMT-73" d="M 197 991 
L 753 1078 
Q 800 744 1014 566 
Q 1228 388 1613 388 
Q 2000 388 2187 545 
Q 2375 703 2375 916 
Q 2375 1106 2209 1216 
Q 2094 1291 1634 1406 
Q 1016 1563 777 1677 
Q 538 1791 414 1992 
Q 291 2194 291 2438 
Q 291 2659 392 2848 
Q 494 3038 669 3163 
Q 800 3259 1026 3326 
Q 1253 3394 1513 3394 
Q 1903 3394 2198 3281 
Q 2494 3169 2634 2976 
Q 2775 2784 2828 2463 
L 2278 2388 
Q 2241 2644 2061 2787 
Q 1881 2931 1553 2931 
Q 1166 2931 1000 2803 
Q 834 2675 834 2503 
Q 834 2394 903 2306 
Q 972 2216 1119 2156 
Q 1203 2125 1616 2013 
Q 2213 1853 2448 1751 
Q 2684 1650 2818 1456 
Q 2953 1263 2953 975 
Q 2953 694 2789 445 
Q 2625 197 2315 61 
Q 2006 -75 1616 -75 
Q 969 -75 630 194 
Q 291 463 197 991 
z
" transform="scale(0.015625)"/>
       </defs>
       <use xlink:href="#DejaVuSans-Oblique-3c1" transform="translate(0 0.203125)"/>
       <use xlink:href="#DejaVuSans-Oblique-53" transform="translate(63.476562 -16.203125) scale(0.7)"/>
       <use xlink:href="#ArialMT-20" transform="translate(110.644531 0.203125)"/>
       <use xlink:href="#ArialMT-5b" transform="translate(138.427734 0.203125)"/>
       <use xlink:href="#ArialMT-6b" transform="translate(166.210938 0.203125)"/>
       <use xlink:href="#ArialMT-67" transform="translate(216.210938 0.203125)"/>
       <use xlink:href="#ArialMT-2f" transform="translate(271.826172 0.203125)"/>
       <use xlink:href="#ArialMT-6d" transform="translate(299.609375 0.203125)"/>
       <use xlink:href="#ArialMT-b3" transform="translate(382.910156 0.203125)"/>
       <use xlink:href="#ArialMT-5d" transform="translate(416.210938 0.203125)"/>
       <use xlink:href="#ArialMT-3a" transform="translate(443.994141 0.203125)"/>
       <use xlink:href="#ArialMT-20" transform="translate(471.777344 0.203125)"/>
       <use xlink:href="#ArialMT-52" transform="translate(499.560547 0.203125)"/>
       <use xlink:href="#ArialMT-6f" transform="translate(571.777344 0.203125)"/>
       <use xlink:href="#ArialMT-63" transform="translate(627.392578 0.203125)"/>
       <use xlink:href="#ArialMT-6b" transform="translate(677.392578 0.203125)"/>
       <use xlink:href="#ArialMT-20" transform="translate(727.392578 0.203125)"/>
       <use xlink:href="#ArialMT-4d" transform="translate(755.175781 0.203125)"/>
       <use xlink:href="#ArialMT-61" transform="translate(838.476562 0.203125)"/>
       <use xlink:href="#ArialMT-74" transform="translate(894.091797 0.203125)"/>
       <use xlink:href="#ArialMT-72" transform="translate(921.875 0.203125)"/>
       <use xlink:href="#ArialMT-69" transform="translate(955.175781 0.203125)"/>
       <use xlink:href="#ArialMT-78" transform="translate(977.392578 0.203125)"/>
       <use xlink:href="#ArialMT-20" transform="translate(1027.392578 0.203125)"/>
       <use xlink:href="#ArialMT-44" transform="translate(1055.175781 0.203125)"/>
       <use xlink:href="#ArialMT-65" transform="translate(1127.392578 0.203125)"/>
       <use xlink:href="#ArialMT-6e" transform="translate(1183.007812 0.203125)"/>
       <use xlink:href="#ArialMT-73" transform="translate(1238.623047 0.203125)"/>
       <use xlink:href="#ArialMT-69" transform="translate(1288.623047 0.203125)"/>
       <use xlink:href="#ArialMT-74" transform="translate(1310.839844 0.203125)"/>
       <use xlink:href="#ArialMT-79" transform="translate(1338.623047 0.203125)"/>
      </g>
     </g>
    </g>
    <g id="ytick_4">
     <g id="line2d_25">
      <path d="M 210.13 462.680166 
L 991.851358 462.680166 
" clip-path="url(#p57117239f6)" style="fill: none; stroke: #cccccc; stroke-width: 0.8; stroke-linecap: round"/>
     </g>
     <g id="line2d_26"/>
     <g id="text_14">
      <!-- $\rho_F$ [kg/m³]: Fluid Density -->
      <g style="fill: #262626" transform="translate(88.49 466.695166) scale(0.11 -0.11)">
       <use xlink:href="#DejaVuSans-Oblique-3c1" transform="translate(0 0.203125)"/>
       <use xlink:href="#DejaVuSans-Oblique-46" transform="translate(63.476562 -16.203125) scale(0.7)"/>
       <use xlink:href="#ArialMT-20" transform="translate(106.474609 0.203125)"/>
       <use xlink:href="#ArialMT-5b" transform="translate(134.257812 0.203125)"/>
       <use xlink:href="#ArialMT-6b" transform="translate(162.041016 0.203125)"/>
       <use xlink:href="#ArialMT-67" transform="translate(212.041016 0.203125)"/>
       <use xlink:href="#ArialMT-2f" transform="translate(267.65625 0.203125)"/>
       <use xlink:href="#ArialMT-6d" transform="translate(295.439453 0.203125)"/>
       <use xlink:href="#ArialMT-b3" transform="translate(378.740234 0.203125)"/>
       <use xlink:href="#ArialMT-5d" transform="translate(412.041016 0.203125)"/>
       <use xlink:href="#ArialMT-3a" transform="translate(439.824219 0.203125)"/>
       <use xlink:href="#ArialMT-20" transform="translate(467.607422 0.203125)"/>
       <use xlink:href="#ArialMT-46" transform="translate(495.390625 0.203125)"/>
       <use xlink:href="#ArialMT-6c" transform="translate(556.474609 0.203125)"/>
       <use xlink:href="#ArialMT-75" transform="translate(578.691406 0.203125)"/>
       <use xlink:href="#ArialMT-69" transform="translate(634.306641 0.203125)"/>
       <use xlink:href="#ArialMT-64" transform="translate(656.523438 0.203125)"/>
       <use xlink:href="#ArialMT-20" transform="translate(712.138672 0.203125)"/>
       <use xlink:href="#ArialMT-44" transform="translate(739.921875 0.203125)"/>
       <use xlink:href="#ArialMT-65" transform="translate(812.138672 0.203125)"/>
       <use xlink:href="#ArialMT-6e" transform="translate(867.753906 0.203125)"/>
       <use xlink:href="#ArialMT-73" transform="translate(923.369141 0.203125)"/>
       <use xlink:href="#ArialMT-69" transform="translate(973.369141 0.203125)"/>
       <use xlink:href="#ArialMT-74" transform="translate(995.585938 0.203125)"/>
       <use xlink:href="#ArialMT-79" transform="translate(1023.369141 0.203125)"/>
      </g>
     </g>
    </g>
    <g id="ytick_5">
     <g id="line2d_27">
      <path d="M 210.13 429.36256 
L 991.851358 429.36256 
" clip-path="url(#p57117239f6)" style="fill: none; stroke: #cccccc; stroke-width: 0.8; stroke-linecap: round"/>
     </g>
     <g id="line2d_28"/>
     <g id="text_15">
      <!-- $r_w$ [m]: Well Radius -->
      <g style="fill: #262626" transform="translate(112.36 433.32256) scale(0.11 -0.11)">
       <defs>
        <path id="DejaVuSans-Oblique-72" d="M 2853 2969 
Q 2766 3016 2653 3041 
Q 2541 3066 2413 3066 
Q 1953 3066 1609 2717 
Q 1266 2369 1153 1784 
L 800 0 
L 225 0 
L 909 3500 
L 1484 3500 
L 1375 2956 
Q 1603 3259 1920 3421 
Q 2238 3584 2597 3584 
Q 2691 3584 2781 3573 
Q 2872 3563 2963 3538 
L 2853 2969 
z
" transform="scale(0.015625)"/>
        <path id="DejaVuSans-Oblique-77" d="M 544 3500 
L 1113 3500 
L 1259 684 
L 2566 3500 
L 3231 3500 
L 3425 684 
L 4666 3500 
L 5241 3500 
L 3641 0 
L 2969 0 
L 2797 2900 
L 1459 0 
L 781 0 
L 544 3500 
z
" transform="scale(0.015625)"/>
       </defs>
       <use xlink:href="#DejaVuSans-Oblique-72" transform="translate(0 0.421875)"/>
       <use xlink:href="#DejaVuSans-Oblique-77" transform="translate(41.113281 -15.984375) scale(0.7)"/>
       <use xlink:href="#ArialMT-20" transform="translate(101.098633 0.421875)"/>
       <use xlink:href="#ArialMT-5b" transform="translate(128.881836 0.421875)"/>
       <use xlink:href="#ArialMT-6d" transform="translate(156.665039 0.421875)"/>
       <use xlink:href="#ArialMT-5d" transform="translate(239.96582 0.421875)"/>
       <use xlink:href="#ArialMT-3a" transform="translate(267.749023 0.421875)"/>
       <use xlink:href="#ArialMT-20" transform="translate(295.532227 0.421875)"/>
       <use xlink:href="#ArialMT-57" transform="translate(323.31543 0.421875)"/>
       <use xlink:href="#ArialMT-65" transform="translate(417.700195 0.421875)"/>
       <use xlink:href="#ArialMT-6c" transform="translate(473.31543 0.421875)"/>
       <use xlink:href="#ArialMT-6c" transform="translate(495.532227 0.421875)"/>
       <use xlink:href="#ArialMT-20" transform="translate(517.749023 0.421875)"/>
       <use xlink:href="#ArialMT-52" transform="translate(545.532227 0.421875)"/>
       <use xlink:href="#ArialMT-61" transform="translate(617.749023 0.421875)"/>
       <use xlink:href="#ArialMT-64" transform="translate(673.364258 0.421875)"/>
       <use xlink:href="#ArialMT-69" transform="translate(728.979492 0.421875)"/>
       <use xlink:href="#ArialMT-75" transform="translate(751.196289 0.421875)"/>
       <use xlink:href="#ArialMT-73" transform="translate(806.811523 0.421875)"/>
      </g>
     </g>
    </g>
    <g id="ytick_6">
     <g id="line2d_29">
      <path d="M 210.13 396.044954 
L 991.851358 396.044954 
" clip-path="url(#p57117239f6)" style="fill: none; stroke: #cccccc; stroke-width: 0.8; stroke-linecap: round"/>
     </g>
     <g id="line2d_30"/>
     <g id="text_16">
      <!-- $\beta$ [1/Pa]: Fluid Compressibility -->
      <g style="fill: #262626" transform="translate(60.22 400.279954) scale(0.11 -0.11)">
       <defs>
        <path id="DejaVuSans-Oblique-3b2" d="M 872 216 
L 572 -1331 
L -6 -1331 
L 928 3478 
Q 1206 4903 2538 4903 
Q 3888 4903 3659 3700 
Q 3503 2844 2894 2531 
Q 3713 2250 3553 1416 
Q 3272 -69 1759 -66 
Q 1097 -63 872 216 
z
M 1019 966 
Q 1259 422 1875 425 
Q 2775 425 2966 1406 
Q 3138 2288 1675 2219 
L 1778 2750 
Q 2909 2731 3106 3750 
Q 3241 4438 2509 4434 
Q 1691 4434 1503 3459 
L 1019 966 
z
" transform="scale(0.015625)"/>
        <path id="ArialMT-50" d="M 494 0 
L 494 4581 
L 2222 4581 
Q 2678 4581 2919 4538 
Q 3256 4481 3484 4323 
Q 3713 4166 3852 3881 
Q 3991 3597 3991 3256 
Q 3991 2672 3619 2267 
Q 3247 1863 2275 1863 
L 1100 1863 
L 1100 0 
L 494 0 
z
M 1100 2403 
L 2284 2403 
Q 2872 2403 3119 2622 
Q 3366 2841 3366 3238 
Q 3366 3525 3220 3729 
Q 3075 3934 2838 4000 
Q 2684 4041 2272 4041 
L 1100 4041 
L 1100 2403 
z
" transform="scale(0.015625)"/>
        <path id="ArialMT-62" d="M 941 0 
L 419 0 
L 419 4581 
L 981 4581 
L 981 2947 
Q 1338 3394 1891 3394 
Q 2197 3394 2470 3270 
Q 2744 3147 2920 2923 
Q 3097 2700 3197 2384 
Q 3297 2069 3297 1709 
Q 3297 856 2875 390 
Q 2453 -75 1863 -75 
Q 1275 -75 941 416 
L 941 0 
z
M 934 1684 
Q 934 1088 1097 822 
Q 1363 388 1816 388 
Q 2184 388 2453 708 
Q 2722 1028 2722 1663 
Q 2722 2313 2464 2622 
Q 2206 2931 1841 2931 
Q 1472 2931 1203 2611 
Q 934 2291 934 1684 
z
" transform="scale(0.015625)"/>
       </defs>
       <use xlink:href="#DejaVuSans-Oblique-3b2" transform="translate(0 0.390625)"/>
       <use xlink:href="#ArialMT-20" transform="translate(63.818359 0.390625)"/>
       <use xlink:href="#ArialMT-5b" transform="translate(91.601562 0.390625)"/>
       <use xlink:href="#ArialMT-31" transform="translate(119.384766 0.390625)"/>
       <use xlink:href="#ArialMT-2f" transform="translate(175 0.390625)"/>
       <use xlink:href="#ArialMT-50" transform="translate(202.783203 0.390625)"/>
       <use xlink:href="#ArialMT-61" transform="translate(269.482422 0.390625)"/>
       <use xlink:href="#ArialMT-5d" transform="translate(325.097656 0.390625)"/>
       <use xlink:href="#ArialMT-3a" transform="translate(352.880859 0.390625)"/>
       <use xlink:href="#ArialMT-20" transform="translate(380.664062 0.390625)"/>
       <use xlink:href="#ArialMT-46" transform="translate(408.447266 0.390625)"/>
       <use xlink:href="#ArialMT-6c" transform="translate(469.53125 0.390625)"/>
       <use xlink:href="#ArialMT-75" transform="translate(491.748047 0.390625)"/>
       <use xlink:href="#ArialMT-69" transform="translate(547.363281 0.390625)"/>
       <use xlink:href="#ArialMT-64" transform="translate(569.580078 0.390625)"/>
       <use xlink:href="#ArialMT-20" transform="translate(625.195312 0.390625)"/>
       <use xlink:href="#ArialMT-43" transform="translate(652.978516 0.390625)"/>
       <use xlink:href="#ArialMT-6f" transform="translate(725.195312 0.390625)"/>
       <use xlink:href="#ArialMT-6d" transform="translate(780.810547 0.390625)"/>
       <use xlink:href="#ArialMT-70" transform="translate(864.111328 0.390625)"/>
       <use xlink:href="#ArialMT-72" transform="translate(919.726562 0.390625)"/>
       <use xlink:href="#ArialMT-65" transform="translate(953.027344 0.390625)"/>
       <use xlink:href="#ArialMT-73" transform="translate(1008.642578 0.390625)"/>
       <use xlink:href="#ArialMT-73" transform="translate(1058.642578 0.390625)"/>
       <use xlink:href="#ArialMT-69" transform="translate(1108.642578 0.390625)"/>
       <use xlink:href="#ArialMT-62" transform="translate(1130.859375 0.390625)"/>
       <use xlink:href="#ArialMT-69" transform="translate(1186.474609 0.390625)"/>
       <use xlink:href="#ArialMT-6c" transform="translate(1208.691406 0.390625)"/>
       <use xlink:href="#ArialMT-69" transform="translate(1230.908203 0.390625)"/>
       <use xlink:href="#ArialMT-74" transform="translate(1253.125 0.390625)"/>
       <use xlink:href="#ArialMT-79" transform="translate(1280.908203 0.390625)"/>
      </g>
     </g>
    </g>
    <g id="ytick_7">
     <g id="line2d_31">
      <path d="M 210.13 362.727347 
L 991.851358 362.727347 
" clip-path="url(#p57117239f6)" style="fill: none; stroke: #cccccc; stroke-width: 0.8; stroke-linecap: round"/>
     </g>
     <g id="line2d_32"/>
     <g id="text_17">
      <!-- $M$ [m]: Aquifer Thickness -->
      <g style="fill: #262626" transform="translate(85.19 366.742347) scale(0.11 -0.11)">
       <defs>
        <path id="DejaVuSans-Oblique-4d" d="M 1081 4666 
L 2028 4666 
L 2572 1522 
L 4378 4666 
L 5350 4666 
L 4441 0 
L 3828 0 
L 4622 4091 
L 2791 897 
L 2175 897 
L 1581 4103 
L 788 0 
L 172 0 
L 1081 4666 
z
" transform="scale(0.015625)"/>
        <path id="ArialMT-41" d="M -9 0 
L 1750 4581 
L 2403 4581 
L 4278 0 
L 3588 0 
L 3053 1388 
L 1138 1388 
L 634 0 
L -9 0 
z
M 1313 1881 
L 2866 1881 
L 2388 3150 
Q 2169 3728 2063 4100 
Q 1975 3659 1816 3225 
L 1313 1881 
z
" transform="scale(0.015625)"/>
        <path id="ArialMT-71" d="M 2538 -1272 
L 2538 353 
Q 2406 169 2170 47 
Q 1934 -75 1669 -75 
Q 1078 -75 651 397 
Q 225 869 225 1691 
Q 225 2191 398 2587 
Q 572 2984 901 3189 
Q 1231 3394 1625 3394 
Q 2241 3394 2594 2875 
L 2594 3319 
L 3100 3319 
L 3100 -1272 
L 2538 -1272 
z
M 803 1669 
Q 803 1028 1072 708 
Q 1341 388 1716 388 
Q 2075 388 2334 692 
Q 2594 997 2594 1619 
Q 2594 2281 2320 2615 
Q 2047 2950 1678 2950 
Q 1313 2950 1058 2639 
Q 803 2328 803 1669 
z
" transform="scale(0.015625)"/>
        <path id="ArialMT-54" d="M 1659 0 
L 1659 4041 
L 150 4041 
L 150 4581 
L 3781 4581 
L 3781 4041 
L 2266 4041 
L 2266 0 
L 1659 0 
z
" transform="scale(0.015625)"/>
        <path id="ArialMT-68" d="M 422 0 
L 422 4581 
L 984 4581 
L 984 2938 
Q 1378 3394 1978 3394 
Q 2347 3394 2619 3248 
Q 2891 3103 3008 2847 
Q 3125 2591 3125 2103 
L 3125 0 
L 2563 0 
L 2563 2103 
Q 2563 2525 2380 2717 
Q 2197 2909 1863 2909 
Q 1613 2909 1392 2779 
Q 1172 2650 1078 2428 
Q 984 2206 984 1816 
L 984 0 
L 422 0 
z
" transform="scale(0.015625)"/>
       </defs>
       <use xlink:href="#DejaVuSans-Oblique-4d" transform="translate(0 0.09375)"/>
       <use xlink:href="#ArialMT-20" transform="translate(86.279297 0.09375)"/>
       <use xlink:href="#ArialMT-5b" transform="translate(114.0625 0.09375)"/>
       <use xlink:href="#ArialMT-6d" transform="translate(141.845703 0.09375)"/>
       <use xlink:href="#ArialMT-5d" transform="translate(225.146484 0.09375)"/>
       <use xlink:href="#ArialMT-3a" transform="translate(252.929688 0.09375)"/>
       <use xlink:href="#ArialMT-20" transform="translate(280.712891 0.09375)"/>
       <use xlink:href="#ArialMT-41" transform="translate(308.496094 0.09375)"/>
       <use xlink:href="#ArialMT-71" transform="translate(375.195312 0.09375)"/>
       <use xlink:href="#ArialMT-75" transform="translate(430.810547 0.09375)"/>
       <use xlink:href="#ArialMT-69" transform="translate(486.425781 0.09375)"/>
       <use xlink:href="#ArialMT-66" transform="translate(508.642578 0.09375)"/>
       <use xlink:href="#ArialMT-65" transform="translate(536.425781 0.09375)"/>
       <use xlink:href="#ArialMT-72" transform="translate(592.041016 0.09375)"/>
       <use xlink:href="#ArialMT-20" transform="translate(625.341797 0.09375)"/>
       <use xlink:href="#ArialMT-54" transform="translate(653.125 0.09375)"/>
       <use xlink:href="#ArialMT-68" transform="translate(714.208984 0.09375)"/>
       <use xlink:href="#ArialMT-69" transform="translate(769.824219 0.09375)"/>
       <use xlink:href="#ArialMT-63" transform="translate(792.041016 0.09375)"/>
       <use xlink:href="#ArialMT-6b" transform="translate(842.041016 0.09375)"/>
       <use xlink:href="#ArialMT-6e" transform="translate(892.041016 0.09375)"/>
       <use xlink:href="#ArialMT-65" transform="translate(947.65625 0.09375)"/>
       <use xlink:href="#ArialMT-73" transform="translate(1003.271484 0.09375)"/>
       <use xlink:href="#ArialMT-73" transform="translate(1053.271484 0.09375)"/>
      </g>
     </g>
    </g>
    <g id="ytick_8">
     <g id="line2d_33">
      <path d="M 210.13 329.409741 
L 991.851358 329.409741 
" clip-path="url(#p57117239f6)" style="fill: none; stroke: #cccccc; stroke-width: 0.8; stroke-linecap: round"/>
     </g>
     <g id="line2d_34"/>
     <g id="text_18">
      <!-- $\lambda_S$ [W/(m·K)]: Rock Thermal Conductivity -->
      <g style="fill: #262626" transform="translate(7.2 333.589741) scale(0.11 -0.11)">
       <defs>
        <path id="DejaVuSans-Oblique-3bb" d="M 2350 4316 
L 3125 0 
L 2516 0 
L 2038 2588 
L 328 0 
L -281 0 
L 1903 3356 
L 1794 3975 
Q 1725 4369 1391 4369 
L 1091 4369 
L 1184 4863 
L 1550 4856 
Q 2253 4847 2350 4316 
z
" transform="scale(0.015625)"/>
       </defs>
       <use xlink:href="#DejaVuSans-Oblique-3bb" transform="translate(0 0.015625)"/>
       <use xlink:href="#DejaVuSans-Oblique-53" transform="translate(59.179688 -16.390625) scale(0.7)"/>
       <use xlink:href="#ArialMT-20" transform="translate(106.347656 0.015625)"/>
       <use xlink:href="#ArialMT-5b" transform="translate(134.130859 0.015625)"/>
       <use xlink:href="#ArialMT-57" transform="translate(161.914062 0.015625)"/>
       <use xlink:href="#ArialMT-2f" transform="translate(256.298828 0.015625)"/>
       <use xlink:href="#ArialMT-28" transform="translate(284.082031 0.015625)"/>
       <use xlink:href="#ArialMT-6d" transform="translate(317.382812 0.015625)"/>
       <use xlink:href="#ArialMT-b7" transform="translate(400.683594 0.015625)"/>
       <use xlink:href="#ArialMT-4b" transform="translate(433.984375 0.015625)"/>
       <use xlink:href="#ArialMT-29" transform="translate(500.683594 0.015625)"/>
       <use xlink:href="#ArialMT-5d" transform="translate(533.984375 0.015625)"/>
       <use xlink:href="#ArialMT-3a" transform="translate(561.767578 0.015625)"/>
       <use xlink:href="#ArialMT-20" transform="translate(589.550781 0.015625)"/>
       <use xlink:href="#ArialMT-52" transform="translate(617.333984 0.015625)"/>
       <use xlink:href="#ArialMT-6f" transform="translate(689.550781 0.015625)"/>
       <use xlink:href="#ArialMT-63" transform="translate(745.166016 0.015625)"/>
       <use xlink:href="#ArialMT-6b" transform="translate(795.166016 0.015625)"/>
       <use xlink:href="#ArialMT-20" transform="translate(845.166016 0.015625)"/>
       <use xlink:href="#ArialMT-54" transform="translate(872.949219 0.015625)"/>
       <use xlink:href="#ArialMT-68" transform="translate(934.033203 0.015625)"/>
       <use xlink:href="#ArialMT-65" transform="translate(989.648438 0.015625)"/>
       <use xlink:href="#ArialMT-72" transform="translate(1045.263672 0.015625)"/>
       <use xlink:href="#ArialMT-6d" transform="translate(1078.564453 0.015625)"/>
       <use xlink:href="#ArialMT-61" transform="translate(1161.865234 0.015625)"/>
       <use xlink:href="#ArialMT-6c" transform="translate(1217.480469 0.015625)"/>
       <use xlink:href="#ArialMT-20" transform="translate(1239.697266 0.015625)"/>
       <use xlink:href="#ArialMT-43" transform="translate(1267.480469 0.015625)"/>
       <use xlink:href="#ArialMT-6f" transform="translate(1339.697266 0.015625)"/>
       <use xlink:href="#ArialMT-6e" transform="translate(1395.3125 0.015625)"/>
       <use xlink:href="#ArialMT-64" transform="translate(1450.927734 0.015625)"/>
       <use xlink:href="#ArialMT-75" transform="translate(1506.542969 0.015625)"/>
       <use xlink:href="#ArialMT-63" transform="translate(1562.158203 0.015625)"/>
       <use xlink:href="#ArialMT-74" transform="translate(1612.158203 0.015625)"/>
       <use xlink:href="#ArialMT-69" transform="translate(1639.941406 0.015625)"/>
       <use xlink:href="#ArialMT-76" transform="translate(1662.158203 0.015625)"/>
       <use xlink:href="#ArialMT-69" transform="translate(1712.158203 0.015625)"/>
       <use xlink:href="#ArialMT-74" transform="translate(1734.375 0.015625)"/>
       <use xlink:href="#ArialMT-79" transform="translate(1762.158203 0.015625)"/>
      </g>
     </g>
    </g>
    <g id="ytick_9">
     <g id="line2d_35">
      <path d="M 210.13 296.092134 
L 991.851358 296.092134 
" clip-path="url(#p57117239f6)" style="fill: none; stroke: #cccccc; stroke-width: 0.8; stroke-linecap: round"/>
     </g>
     <g id="line2d_36"/>
     <g id="text_19">
      <!-- $Q$ [m³/s]: Flow Rate -->
      <g style="fill: #262626" transform="translate(111.7 300.217134) scale(0.11 -0.11)">
       <defs>
        <path id="DejaVuSans-Oblique-51" d="M 2309 -84 
Q 2275 -88 2237 -89 
Q 2200 -91 2125 -91 
Q 1250 -91 756 411 
Q 263 913 263 1797 
Q 263 2319 452 2844 
Q 641 3369 978 3788 
Q 1369 4269 1858 4509 
Q 2347 4750 2938 4750 
Q 3794 4750 4287 4245 
Q 4781 3741 4781 2869 
Q 4781 1928 4265 1147 
Q 3750 366 2919 44 
L 3553 -825 
L 2847 -825 
L 2309 -84 
z
M 2919 4238 
Q 2400 4238 2003 3986 
Q 1606 3734 1313 3219 
Q 1125 2891 1026 2522 
Q 928 2153 928 1778 
Q 928 1128 1239 775 
Q 1550 422 2119 422 
Q 2631 422 3032 676 
Q 3434 931 3719 1434 
Q 3909 1772 4009 2142 
Q 4109 2513 4109 2881 
Q 4109 3528 3796 3883 
Q 3484 4238 2919 4238 
z
" transform="scale(0.015625)"/>
        <path id="ArialMT-77" d="M 1034 0 
L 19 3319 
L 600 3319 
L 1128 1403 
L 1325 691 
Q 1338 744 1497 1375 
L 2025 3319 
L 2603 3319 
L 3100 1394 
L 3266 759 
L 3456 1400 
L 4025 3319 
L 4572 3319 
L 3534 0 
L 2950 0 
L 2422 1988 
L 2294 2553 
L 1622 0 
L 1034 0 
z
" transform="scale(0.015625)"/>
       </defs>
       <use xlink:href="#DejaVuSans-Oblique-51" transform="translate(0 0.78125)"/>
       <use xlink:href="#ArialMT-20" transform="translate(78.710938 0.78125)"/>
       <use xlink:href="#ArialMT-5b" transform="translate(106.494141 0.78125)"/>
       <use xlink:href="#ArialMT-6d" transform="translate(134.277344 0.78125)"/>
       <use xlink:href="#ArialMT-b3" transform="translate(217.578125 0.78125)"/>
       <use xlink:href="#ArialMT-2f" transform="translate(250.878906 0.78125)"/>
       <use xlink:href="#ArialMT-73" transform="translate(278.662109 0.78125)"/>
       <use xlink:href="#ArialMT-5d" transform="translate(328.662109 0.78125)"/>
       <use xlink:href="#ArialMT-3a" transform="translate(356.445312 0.78125)"/>
       <use xlink:href="#ArialMT-20" transform="translate(384.228516 0.78125)"/>
       <use xlink:href="#ArialMT-46" transform="translate(412.011719 0.78125)"/>
       <use xlink:href="#ArialMT-6c" transform="translate(473.095703 0.78125)"/>
       <use xlink:href="#ArialMT-6f" transform="translate(495.3125 0.78125)"/>
       <use xlink:href="#ArialMT-77" transform="translate(550.927734 0.78125)"/>
       <use xlink:href="#ArialMT-20" transform="translate(623.144531 0.78125)"/>
       <use xlink:href="#ArialMT-52" transform="translate(650.927734 0.78125)"/>
       <use xlink:href="#ArialMT-61" transform="translate(723.144531 0.78125)"/>
       <use xlink:href="#ArialMT-74" transform="translate(778.759766 0.78125)"/>
       <use xlink:href="#ArialMT-65" transform="translate(806.542969 0.78125)"/>
      </g>
     </g>
    </g>
    <g id="ytick_10">
     <g id="line2d_37">
      <path d="M 210.13 262.774528 
L 991.851358 262.774528 
" clip-path="url(#p57117239f6)" style="fill: none; stroke: #cccccc; stroke-width: 0.8; stroke-linecap: round"/>
     </g>
     <g id="line2d_38"/>
     <g id="text_20">
      <!-- $c_S$ [J/(kg·K)]: Rock Heat Capacity -->
      <g style="fill: #262626" transform="translate(44.38 266.789528) scale(0.11 -0.11)">
       <use xlink:href="#DejaVuSans-Oblique-63" transform="translate(0 0.203125)"/>
       <use xlink:href="#DejaVuSans-Oblique-53" transform="translate(54.980469 -16.203125) scale(0.7)"/>
       <use xlink:href="#ArialMT-20" transform="translate(102.148438 0.203125)"/>
       <use xlink:href="#ArialMT-5b" transform="translate(129.931641 0.203125)"/>
       <use xlink:href="#ArialMT-4a" transform="translate(157.714844 0.203125)"/>
       <use xlink:href="#ArialMT-2f" transform="translate(207.714844 0.203125)"/>
       <use xlink:href="#ArialMT-28" transform="translate(235.498047 0.203125)"/>
       <use xlink:href="#ArialMT-6b" transform="translate(268.798828 0.203125)"/>
       <use xlink:href="#ArialMT-67" transform="translate(318.798828 0.203125)"/>
       <use xlink:href="#ArialMT-b7" transform="translate(374.414062 0.203125)"/>
       <use xlink:href="#ArialMT-4b" transform="translate(407.714844 0.203125)"/>
       <use xlink:href="#ArialMT-29" transform="translate(474.414062 0.203125)"/>
       <use xlink:href="#ArialMT-5d" transform="translate(507.714844 0.203125)"/>
       <use xlink:href="#ArialMT-3a" transform="translate(535.498047 0.203125)"/>
       <use xlink:href="#ArialMT-20" transform="translate(563.28125 0.203125)"/>
       <use xlink:href="#ArialMT-52" transform="translate(591.064453 0.203125)"/>
       <use xlink:href="#ArialMT-6f" transform="translate(663.28125 0.203125)"/>
       <use xlink:href="#ArialMT-63" transform="translate(718.896484 0.203125)"/>
       <use xlink:href="#ArialMT-6b" transform="translate(768.896484 0.203125)"/>
       <use xlink:href="#ArialMT-20" transform="translate(818.896484 0.203125)"/>
       <use xlink:href="#ArialMT-48" transform="translate(846.679688 0.203125)"/>
       <use xlink:href="#ArialMT-65" transform="translate(918.896484 0.203125)"/>
       <use xlink:href="#ArialMT-61" transform="translate(974.511719 0.203125)"/>
       <use xlink:href="#ArialMT-74" transform="translate(1030.126953 0.203125)"/>
       <use xlink:href="#ArialMT-20" transform="translate(1057.910156 0.203125)"/>
       <use xlink:href="#ArialMT-43" transform="translate(1085.693359 0.203125)"/>
       <use xlink:href="#ArialMT-61" transform="translate(1157.910156 0.203125)"/>
       <use xlink:href="#ArialMT-70" transform="translate(1213.525391 0.203125)"/>
       <use xlink:href="#ArialMT-61" transform="translate(1269.140625 0.203125)"/>
       <use xlink:href="#ArialMT-63" transform="translate(1324.755859 0.203125)"/>
       <use xlink:href="#ArialMT-69" transform="translate(1374.755859 0.203125)"/>
       <use xlink:href="#ArialMT-74" transform="translate(1396.972656 0.203125)"/>
       <use xlink:href="#ArialMT-79" transform="translate(1424.755859 0.203125)"/>
      </g>
     </g>
    </g>
    <g id="ytick_11">
     <g id="line2d_39">
      <path d="M 210.13 229.456921 
L 991.851358 229.456921 
" clip-path="url(#p57117239f6)" style="fill: none; stroke: #cccccc; stroke-width: 0.8; stroke-linecap: round"/>
     </g>
     <g id="line2d_40"/>
     <g id="text_21">
      <!-- $k$ [m²]: Intrinsic Permeability -->
      <g style="fill: #262626" transform="translate(70.67 233.636921) scale(0.11 -0.11)">
       <defs>
        <path id="DejaVuSans-Oblique-6b" d="M 1172 4863 
L 1747 4863 
L 1197 2028 
L 3169 3500 
L 3916 3500 
L 1716 1825 
L 3322 0 
L 2625 0 
L 1131 1709 
L 800 0 
L 225 0 
L 1172 4863 
z
" transform="scale(0.015625)"/>
        <path id="ArialMT-b2" d="M 78 2291 
Q 97 2469 225 2647 
Q 422 2916 872 3242 
Q 1322 3569 1406 3663 
Q 1522 3791 1522 3925 
Q 1522 4075 1412 4172 
Q 1303 4269 1091 4269 
Q 884 4269 782 4195 
Q 681 4122 616 3913 
L 144 3963 
Q 234 4309 457 4473 
Q 681 4638 1100 4638 
Q 1572 4638 1792 4453 
Q 2013 4269 2013 4003 
Q 2013 3741 1828 3506 
Q 1688 3331 1188 2972 
Q 928 2781 819 2669 
L 2025 2669 
L 2025 2291 
L 78 2291 
z
" transform="scale(0.015625)"/>
        <path id="ArialMT-49" d="M 597 0 
L 597 4581 
L 1203 4581 
L 1203 0 
L 597 0 
z
" transform="scale(0.015625)"/>
       </defs>
       <use xlink:href="#DejaVuSans-Oblique-6b" transform="translate(0 0.015625)"/>
       <use xlink:href="#ArialMT-20" transform="translate(57.910156 0.015625)"/>
       <use xlink:href="#ArialMT-5b" transform="translate(85.693359 0.015625)"/>
       <use xlink:href="#ArialMT-6d" transform="translate(113.476562 0.015625)"/>
       <use xlink:href="#ArialMT-b2" transform="translate(196.777344 0.015625)"/>
       <use xlink:href="#ArialMT-5d" transform="translate(230.078125 0.015625)"/>
       <use xlink:href="#ArialMT-3a" transform="translate(257.861328 0.015625)"/>
       <use xlink:href="#ArialMT-20" transform="translate(285.644531 0.015625)"/>
       <use xlink:href="#ArialMT-49" transform="translate(313.427734 0.015625)"/>
       <use xlink:href="#ArialMT-6e" transform="translate(341.210938 0.015625)"/>
       <use xlink:href="#ArialMT-74" transform="translate(396.826172 0.015625)"/>
       <use xlink:href="#ArialMT-72" transform="translate(424.609375 0.015625)"/>
       <use xlink:href="#ArialMT-69" transform="translate(457.910156 0.015625)"/>
       <use xlink:href="#ArialMT-6e" transform="translate(480.126953 0.015625)"/>
       <use xlink:href="#ArialMT-73" transform="translate(535.742188 0.015625)"/>
       <use xlink:href="#ArialMT-69" transform="translate(585.742188 0.015625)"/>
       <use xlink:href="#ArialMT-63" transform="translate(607.958984 0.015625)"/>
       <use xlink:href="#ArialMT-20" transform="translate(657.958984 0.015625)"/>
       <use xlink:href="#ArialMT-50" transform="translate(685.742188 0.015625)"/>
       <use xlink:href="#ArialMT-65" transform="translate(752.441406 0.015625)"/>
       <use xlink:href="#ArialMT-72" transform="translate(808.056641 0.015625)"/>
       <use xlink:href="#ArialMT-6d" transform="translate(841.357422 0.015625)"/>
       <use xlink:href="#ArialMT-65" transform="translate(924.658203 0.015625)"/>
       <use xlink:href="#ArialMT-61" transform="translate(980.273438 0.015625)"/>
       <use xlink:href="#ArialMT-62" transform="translate(1035.888672 0.015625)"/>
       <use xlink:href="#ArialMT-69" transform="translate(1091.503906 0.015625)"/>
       <use xlink:href="#ArialMT-6c" transform="translate(1113.720703 0.015625)"/>
       <use xlink:href="#ArialMT-69" transform="translate(1135.9375 0.015625)"/>
       <use xlink:href="#ArialMT-74" transform="translate(1158.154297 0.015625)"/>
       <use xlink:href="#ArialMT-79" transform="translate(1185.9375 0.015625)"/>
      </g>
     </g>
    </g>
    <g id="ytick_12">
     <g id="line2d_41">
      <path d="M 210.13 196.139315 
L 991.851358 196.139315 
" clip-path="url(#p57117239f6)" style="fill: none; stroke: #cccccc; stroke-width: 0.8; stroke-linecap: round"/>
     </g>
     <g id="line2d_42"/>
     <g id="text_22">
      <!-- $\varphi$ [-]: Porosity -->
      <g style="fill: #262626" transform="translate(140.63 200.099315) scale(0.11 -0.11)">
       <defs>
        <path id="DejaVuSans-Oblique-3c6" d="M 2969 3034 
Q 2766 3034 2675 2581 
L 2259 438 
Q 2553 438 2916 763 
Q 3244 1053 3375 1750 
Q 3497 2400 3300 2750 
Q 3138 3034 2969 3034 
z
M 3063 3525 
Q 3513 3525 3819 3113 
Q 4147 2672 3981 1750 
Q 3828 903 3291 400 
Q 2784 -75 2159 -75 
L 1916 -1331 
L 1344 -1331 
L 1588 -78 
Q 963 -78 641 400 
Q 309 888 475 1747 
Q 647 2641 1166 3097 
Q 1556 3438 2084 3525 
L 1984 3016 
Q 1766 2944 1538 2700 
Q 1194 2341 1081 1747 
Q 963 1116 1156 756 
Q 1334 434 1688 434 
L 2103 2581 
Q 2288 3525 3063 3525 
z
" transform="scale(0.015625)"/>
        <path id="ArialMT-2d" d="M 203 1375 
L 203 1941 
L 1931 1941 
L 1931 1375 
L 203 1375 
z
" transform="scale(0.015625)"/>
       </defs>
       <use xlink:href="#DejaVuSans-Oblique-3c6" transform="translate(0 0.421875)"/>
       <use xlink:href="#ArialMT-20" transform="translate(65.966797 0.421875)"/>
       <use xlink:href="#ArialMT-5b" transform="translate(93.75 0.421875)"/>
       <use xlink:href="#ArialMT-2d" transform="translate(121.533203 0.421875)"/>
       <use xlink:href="#ArialMT-5d" transform="translate(154.833984 0.421875)"/>
       <use xlink:href="#ArialMT-3a" transform="translate(182.617188 0.421875)"/>
       <use xlink:href="#ArialMT-20" transform="translate(210.400391 0.421875)"/>
       <use xlink:href="#ArialMT-50" transform="translate(238.183594 0.421875)"/>
       <use xlink:href="#ArialMT-6f" transform="translate(304.882812 0.421875)"/>
       <use xlink:href="#ArialMT-72" transform="translate(360.498047 0.421875)"/>
       <use xlink:href="#ArialMT-6f" transform="translate(393.798828 0.421875)"/>
       <use xlink:href="#ArialMT-73" transform="translate(449.414062 0.421875)"/>
       <use xlink:href="#ArialMT-69" transform="translate(499.414062 0.421875)"/>
       <use xlink:href="#ArialMT-74" transform="translate(521.630859 0.421875)"/>
       <use xlink:href="#ArialMT-79" transform="translate(549.414062 0.421875)"/>
      </g>
     </g>
    </g>
    <g id="ytick_13">
     <g id="line2d_43">
      <path d="M 210.13 162.821709 
L 991.851358 162.821709 
" clip-path="url(#p57117239f6)" style="fill: none; stroke: #cccccc; stroke-width: 0.8; stroke-linecap: round"/>
     </g>
     <g id="line2d_44"/>
     <g id="text_23">
      <!-- $\mu$ [Pa·s]: Dynamic Viscosity -->
      <g style="fill: #262626" transform="translate(72.43 166.781709) scale(0.11 -0.11)">
       <defs>
        <path id="DejaVuSans-Oblique-3bc" d="M -84 -1331 
L 856 3500 
L 1434 3500 
L 1009 1322 
Q 997 1256 987 1175 
Q 978 1094 978 1013 
Q 978 722 1161 565 
Q 1344 409 1684 409 
Q 2147 409 2431 671 
Q 2716 934 2816 1459 
L 3213 3500 
L 3788 3500 
L 3266 809 
Q 3253 750 3248 706 
Q 3244 663 3244 628 
Q 3244 531 3283 486 
Q 3322 441 3406 441 
Q 3438 441 3492 456 
Q 3547 472 3647 513 
L 3559 50 
Q 3422 -19 3297 -55 
Q 3172 -91 3053 -91 
Q 2847 -91 2730 40 
Q 2613 172 2613 403 
Q 2438 153 2195 31 
Q 1953 -91 1625 -91 
Q 1334 -91 1117 43 
Q 900 178 831 397 
L 494 -1331 
L -84 -1331 
z
" transform="scale(0.015625)"/>
        <path id="ArialMT-56" d="M 1803 0 
L 28 4581 
L 684 4581 
L 1875 1253 
Q 2019 853 2116 503 
Q 2222 878 2363 1253 
L 3600 4581 
L 4219 4581 
L 2425 0 
L 1803 0 
z
" transform="scale(0.015625)"/>
       </defs>
       <use xlink:href="#DejaVuSans-Oblique-3bc" transform="translate(0 0.421875)"/>
       <use xlink:href="#ArialMT-20" transform="translate(63.623047 0.421875)"/>
       <use xlink:href="#ArialMT-5b" transform="translate(91.40625 0.421875)"/>
       <use xlink:href="#ArialMT-50" transform="translate(119.189453 0.421875)"/>
       <use xlink:href="#ArialMT-61" transform="translate(185.888672 0.421875)"/>
       <use xlink:href="#ArialMT-b7" transform="translate(241.503906 0.421875)"/>
       <use xlink:href="#ArialMT-73" transform="translate(274.804688 0.421875)"/>
       <use xlink:href="#ArialMT-5d" transform="translate(324.804688 0.421875)"/>
       <use xlink:href="#ArialMT-3a" transform="translate(352.587891 0.421875)"/>
       <use xlink:href="#ArialMT-20" transform="translate(380.371094 0.421875)"/>
       <use xlink:href="#ArialMT-44" transform="translate(408.154297 0.421875)"/>
       <use xlink:href="#ArialMT-79" transform="translate(480.371094 0.421875)"/>
       <use xlink:href="#ArialMT-6e" transform="translate(530.371094 0.421875)"/>
       <use xlink:href="#ArialMT-61" transform="translate(585.986328 0.421875)"/>
       <use xlink:href="#ArialMT-6d" transform="translate(641.601562 0.421875)"/>
       <use xlink:href="#ArialMT-69" transform="translate(724.902344 0.421875)"/>
       <use xlink:href="#ArialMT-63" transform="translate(747.119141 0.421875)"/>
       <use xlink:href="#ArialMT-20" transform="translate(797.119141 0.421875)"/>
       <use xlink:href="#ArialMT-56" transform="translate(824.902344 0.421875)"/>
       <use xlink:href="#ArialMT-69" transform="translate(891.601562 0.421875)"/>
       <use xlink:href="#ArialMT-73" transform="translate(913.818359 0.421875)"/>
       <use xlink:href="#ArialMT-63" transform="translate(963.818359 0.421875)"/>
       <use xlink:href="#ArialMT-6f" transform="translate(1013.818359 0.421875)"/>
       <use xlink:href="#ArialMT-73" transform="translate(1069.433594 0.421875)"/>
       <use xlink:href="#ArialMT-69" transform="translate(1119.433594 0.421875)"/>
       <use xlink:href="#ArialMT-74" transform="translate(1141.650391 0.421875)"/>
       <use xlink:href="#ArialMT-79" transform="translate(1169.433594 0.421875)"/>
      </g>
     </g>
    </g>
    <g id="ytick_14">
     <g id="line2d_45">
      <path d="M 210.13 129.504102 
L 991.851358 129.504102 
" clip-path="url(#p57117239f6)" style="fill: none; stroke: #cccccc; stroke-width: 0.8; stroke-linecap: round"/>
     </g>
     <g id="line2d_46"/>
     <g id="text_24">
      <!-- $\alpha$ [1/Pa]: Matrix Compressibility -->
      <g style="fill: #262626" transform="translate(53.84 133.519102) scale(0.11 -0.11)">
       <defs>
        <path id="DejaVuSans-Oblique-3b1" d="M 2619 1628 
L 2622 2350 
Q 2625 3088 2069 3091 
Q 1653 3094 1394 2747 
Q 1069 2319 959 1747 
Q 825 1059 994 731 
Q 1169 397 1547 397 
Q 1966 397 2319 1063 
L 2619 1628 
z
M 2166 3578 
Q 3141 3594 3128 2584 
Q 3128 2584 3616 3500 
L 4128 3500 
L 3119 1603 
L 3109 919 
Q 3109 766 3194 638 
Q 3291 488 3391 488 
L 3669 488 
L 3575 0 
L 3228 0 
Q 2934 0 2722 263 
Q 2622 394 2619 669 
Q 2416 334 2066 50 
Q 1900 -81 1453 -78 
Q 722 -72 456 397 
Q 184 884 353 1747 
Q 534 2675 1009 3097 
Q 1544 3569 2166 3578 
z
" transform="scale(0.015625)"/>
       </defs>
       <use xlink:href="#DejaVuSans-Oblique-3b1" transform="translate(0 0.203125)"/>
       <use xlink:href="#ArialMT-20" transform="translate(65.917969 0.203125)"/>
       <use xlink:href="#ArialMT-5b" transform="translate(93.701172 0.203125)"/>
       <use xlink:href="#ArialMT-31" transform="translate(121.484375 0.203125)"/>
       <use xlink:href="#ArialMT-2f" transform="translate(177.099609 0.203125)"/>
       <use xlink:href="#ArialMT-50" transform="translate(204.882812 0.203125)"/>
       <use xlink:href="#ArialMT-61" transform="translate(271.582031 0.203125)"/>
       <use xlink:href="#ArialMT-5d" transform="translate(327.197266 0.203125)"/>
       <use xlink:href="#ArialMT-3a" transform="translate(354.980469 0.203125)"/>
       <use xlink:href="#ArialMT-20" transform="translate(382.763672 0.203125)"/>
       <use xlink:href="#ArialMT-4d" transform="translate(410.546875 0.203125)"/>
       <use xlink:href="#ArialMT-61" transform="translate(493.847656 0.203125)"/>
       <use xlink:href="#ArialMT-74" transform="translate(549.462891 0.203125)"/>
       <use xlink:href="#ArialMT-72" transform="translate(577.246094 0.203125)"/>
       <use xlink:href="#ArialMT-69" transform="translate(610.546875 0.203125)"/>
       <use xlink:href="#ArialMT-78" transform="translate(632.763672 0.203125)"/>
       <use xlink:href="#ArialMT-20" transform="translate(682.763672 0.203125)"/>
       <use xlink:href="#ArialMT-43" transform="translate(710.546875 0.203125)"/>
       <use xlink:href="#ArialMT-6f" transform="translate(782.763672 0.203125)"/>
       <use xlink:href="#ArialMT-6d" transform="translate(838.378906 0.203125)"/>
       <use xlink:href="#ArialMT-70" transform="translate(921.679688 0.203125)"/>
       <use xlink:href="#ArialMT-72" transform="translate(977.294922 0.203125)"/>
       <use xlink:href="#ArialMT-65" transform="translate(1010.595703 0.203125)"/>
       <use xlink:href="#ArialMT-73" transform="translate(1066.210938 0.203125)"/>
       <use xlink:href="#ArialMT-73" transform="translate(1116.210938 0.203125)"/>
       <use xlink:href="#ArialMT-69" transform="translate(1166.210938 0.203125)"/>
       <use xlink:href="#ArialMT-62" transform="translate(1188.427734 0.203125)"/>
       <use xlink:href="#ArialMT-69" transform="translate(1244.042969 0.203125)"/>
       <use xlink:href="#ArialMT-6c" transform="translate(1266.259766 0.203125)"/>
       <use xlink:href="#ArialMT-69" transform="translate(1288.476562 0.203125)"/>
       <use xlink:href="#ArialMT-74" transform="translate(1310.693359 0.203125)"/>
       <use xlink:href="#ArialMT-79" transform="translate(1338.476562 0.203125)"/>
      </g>
     </g>
    </g>
    <g id="ytick_15">
     <g id="line2d_47">
      <path d="M 210.13 96.186496 
L 991.851358 96.186496 
" clip-path="url(#p57117239f6)" style="fill: none; stroke: #cccccc; stroke-width: 0.8; stroke-linecap: round"/>
     </g>
     <g id="line2d_48"/>
     <g id="text_25">
      <!-- $S$ [-]: Skin Factor -->
      <g style="fill: #262626" transform="translate(125.01 100.311496) scale(0.11 -0.11)">
       <use xlink:href="#DejaVuSans-Oblique-53" transform="translate(0 0.78125)"/>
       <use xlink:href="#ArialMT-20" transform="translate(63.476562 0.78125)"/>
       <use xlink:href="#ArialMT-5b" transform="translate(91.259766 0.78125)"/>
       <use xlink:href="#ArialMT-2d" transform="translate(119.042969 0.78125)"/>
       <use xlink:href="#ArialMT-5d" transform="translate(152.34375 0.78125)"/>
       <use xlink:href="#ArialMT-3a" transform="translate(180.126953 0.78125)"/>
       <use xlink:href="#ArialMT-20" transform="translate(207.910156 0.78125)"/>
       <use xlink:href="#ArialMT-53" transform="translate(235.693359 0.78125)"/>
       <use xlink:href="#ArialMT-6b" transform="translate(302.392578 0.78125)"/>
       <use xlink:href="#ArialMT-69" transform="translate(352.392578 0.78125)"/>
       <use xlink:href="#ArialMT-6e" transform="translate(374.609375 0.78125)"/>
       <use xlink:href="#ArialMT-20" transform="translate(430.224609 0.78125)"/>
       <use xlink:href="#ArialMT-46" transform="translate(458.007812 0.78125)"/>
       <use xlink:href="#ArialMT-61" transform="translate(519.091797 0.78125)"/>
       <use xlink:href="#ArialMT-63" transform="translate(574.707031 0.78125)"/>
       <use xlink:href="#ArialMT-74" transform="translate(624.707031 0.78125)"/>
       <use xlink:href="#ArialMT-6f" transform="translate(652.490234 0.78125)"/>
       <use xlink:href="#ArialMT-72" transform="translate(708.105469 0.78125)"/>
      </g>
     </g>
    </g>
    <g id="ytick_16">
     <g id="line2d_49">
      <path d="M 210.13 62.868889 
L 991.851358 62.868889 
" clip-path="url(#p57117239f6)" style="fill: none; stroke: #cccccc; stroke-width: 0.8; stroke-linecap: round"/>
     </g>
     <g id="line2d_50"/>
     <g id="text_26">
      <!-- $C$ [Pa/(m³/s)]: Scaling Loss Gradient -->
      <g style="fill: #262626" transform="translate(30.74 66.993889) scale(0.11 -0.11)">
       <defs>
        <path id="DejaVuSans-Oblique-43" d="M 4447 4306 
L 4319 3641 
Q 4019 3944 3683 4091 
Q 3347 4238 2956 4238 
Q 2422 4238 2017 3981 
Q 1613 3725 1319 3200 
Q 1131 2863 1032 2486 
Q 934 2109 934 1728 
Q 934 1091 1264 756 
Q 1594 422 2222 422 
Q 2656 422 3056 561 
Q 3456 700 3834 978 
L 3688 231 
Q 3316 72 2936 -9 
Q 2556 -91 2175 -91 
Q 1278 -91 773 396 
Q 269 884 269 1753 
Q 269 2309 461 2846 
Q 653 3384 1013 3828 
Q 1394 4300 1883 4525 
Q 2372 4750 3022 4750 
Q 3422 4750 3780 4639 
Q 4138 4528 4447 4306 
z
" transform="scale(0.015625)"/>
        <path id="ArialMT-4c" d="M 469 0 
L 469 4581 
L 1075 4581 
L 1075 541 
L 3331 541 
L 3331 0 
L 469 0 
z
" transform="scale(0.015625)"/>
        <path id="ArialMT-47" d="M 2638 1797 
L 2638 2334 
L 4578 2338 
L 4578 638 
Q 4131 281 3656 101 
Q 3181 -78 2681 -78 
Q 2006 -78 1454 211 
Q 903 500 622 1047 
Q 341 1594 341 2269 
Q 341 2938 620 3517 
Q 900 4097 1425 4378 
Q 1950 4659 2634 4659 
Q 3131 4659 3532 4498 
Q 3934 4338 4162 4050 
Q 4391 3763 4509 3300 
L 3963 3150 
Q 3859 3500 3706 3700 
Q 3553 3900 3268 4020 
Q 2984 4141 2638 4141 
Q 2222 4141 1919 4014 
Q 1616 3888 1430 3681 
Q 1244 3475 1141 3228 
Q 966 2803 966 2306 
Q 966 1694 1177 1281 
Q 1388 869 1791 669 
Q 2194 469 2647 469 
Q 3041 469 3416 620 
Q 3791 772 3984 944 
L 3984 1797 
L 2638 1797 
z
" transform="scale(0.015625)"/>
       </defs>
       <use xlink:href="#DejaVuSans-Oblique-43" transform="translate(0 0.78125)"/>
       <use xlink:href="#ArialMT-20" transform="translate(69.824219 0.78125)"/>
       <use xlink:href="#ArialMT-5b" transform="translate(97.607422 0.78125)"/>
       <use xlink:href="#ArialMT-50" transform="translate(125.390625 0.78125)"/>
       <use xlink:href="#ArialMT-61" transform="translate(192.089844 0.78125)"/>
       <use xlink:href="#ArialMT-2f" transform="translate(247.705078 0.78125)"/>
       <use xlink:href="#ArialMT-28" transform="translate(275.488281 0.78125)"/>
       <use xlink:href="#ArialMT-6d" transform="translate(308.789062 0.78125)"/>
       <use xlink:href="#ArialMT-b3" transform="translate(392.089844 0.78125)"/>
       <use xlink:href="#ArialMT-2f" transform="translate(425.390625 0.78125)"/>
       <use xlink:href="#ArialMT-73" transform="translate(453.173828 0.78125)"/>
       <use xlink:href="#ArialMT-29" transform="translate(503.173828 0.78125)"/>
       <use xlink:href="#ArialMT-5d" transform="translate(536.474609 0.78125)"/>
       <use xlink:href="#ArialMT-3a" transform="translate(564.257812 0.78125)"/>
       <use xlink:href="#ArialMT-20" transform="translate(592.041016 0.78125)"/>
       <use xlink:href="#ArialMT-53" transform="translate(619.824219 0.78125)"/>
       <use xlink:href="#ArialMT-63" transform="translate(686.523438 0.78125)"/>
       <use xlink:href="#ArialMT-61" transform="translate(736.523438 0.78125)"/>
       <use xlink:href="#ArialMT-6c" transform="translate(792.138672 0.78125)"/>
       <use xlink:href="#ArialMT-69" transform="translate(814.355469 0.78125)"/>
       <use xlink:href="#ArialMT-6e" transform="translate(836.572266 0.78125)"/>
       <use xlink:href="#ArialMT-67" transform="translate(892.1875 0.78125)"/>
       <use xlink:href="#ArialMT-20" transform="translate(947.802734 0.78125)"/>
       <use xlink:href="#ArialMT-4c" transform="translate(975.585938 0.78125)"/>
       <use xlink:href="#ArialMT-6f" transform="translate(1031.201172 0.78125)"/>
       <use xlink:href="#ArialMT-73" transform="translate(1086.816406 0.78125)"/>
       <use xlink:href="#ArialMT-73" transform="translate(1136.816406 0.78125)"/>
       <use xlink:href="#ArialMT-20" transform="translate(1186.816406 0.78125)"/>
       <use xlink:href="#ArialMT-47" transform="translate(1214.599609 0.78125)"/>
       <use xlink:href="#ArialMT-72" transform="translate(1292.382812 0.78125)"/>
       <use xlink:href="#ArialMT-61" transform="translate(1325.683594 0.78125)"/>
       <use xlink:href="#ArialMT-64" transform="translate(1381.298828 0.78125)"/>
       <use xlink:href="#ArialMT-69" transform="translate(1436.914062 0.78125)"/>
       <use xlink:href="#ArialMT-65" transform="translate(1459.130859 0.78125)"/>
       <use xlink:href="#ArialMT-6e" transform="translate(1514.746094 0.78125)"/>
       <use xlink:href="#ArialMT-74" transform="translate(1570.361328 0.78125)"/>
      </g>
     </g>
    </g>
   </g>
   <g id="patch_3">
    <path d="M 600.990679 575.960028 
L 593.884121 575.960028 
L 593.884121 549.305943 
L 600.990679 549.305943 
z
" clip-path="url(#p57117239f6)" style="fill: #4682b4; opacity: 0.85; stroke: #ffffff; stroke-linejoin: miter"/>
   </g>
   <g id="patch_4">
    <path d="M 600.990679 575.960028 
L 608.097237 575.960028 
L 608.097237 549.305943 
L 600.990679 549.305943 
z
" clip-path="url(#p57117239f6)" style="fill: #4682b4; opacity: 0.85; stroke: #ffffff; stroke-linejoin: miter"/>
   </g>
   <g id="patch_5">
    <path d="M 600.990679 542.642422 
L 592.530491 542.642422 
L 592.530491 515.988337 
L 600.990679 515.988337 
z
" clip-path="url(#p57117239f6)" style="fill: #67a9a1; opacity: 0.85; stroke: #ffffff; stroke-linejoin: miter"/>
   </g>
   <g id="patch_6">
    <path d="M 600.990679 542.642422 
L 609.450867 542.642422 
L 609.450867 515.988337 
L 600.990679 515.988337 
z
" clip-path="url(#p57117239f6)" style="fill: #67a9a1; opacity: 0.85; stroke: #ffffff; stroke-linejoin: miter"/>
   </g>
   <g id="patch_7">
    <path d="M 600.990679 509.324816 
L 580.877779 509.324816 
L 580.877779 482.67073 
L 600.990679 482.67073 
z
" clip-path="url(#p57117239f6)" style="fill: #5a9bd5; opacity: 0.85; stroke: #ffffff; stroke-linejoin: miter"/>
   </g>
   <g id="patch_8">
    <path d="M 600.990679 509.324816 
L 621.103578 509.324816 
L 621.103578 482.67073 
L 600.990679 482.67073 
z
" clip-path="url(#p57117239f6)" style="fill: #5a9bd5; opacity: 0.85; stroke: #ffffff; stroke-linejoin: miter"/>
   </g>
   <g id="patch_9">
    <path d="M 600.990679 476.007209 
L 565.131901 476.007209 
L 565.131901 449.353124 
L 600.990679 449.353124 
z
" clip-path="url(#p57117239f6)" style="fill: #67a9a1; opacity: 0.85; stroke: #ffffff; stroke-linejoin: miter"/>
   </g>
   <g id="patch_10">
    <path d="M 600.990679 476.007209 
L 636.849457 476.007209 
L 636.849457 449.353124 
L 600.990679 449.353124 
z
" clip-path="url(#p57117239f6)" style="fill: #67a9a1; opacity: 0.85; stroke: #ffffff; stroke-linejoin: miter"/>
   </g>
   <g id="patch_11">
    <path d="M 600.990679 442.689603 
L 561.509802 442.689603 
L 561.509802 416.035517 
L 600.990679 416.035517 
z
" clip-path="url(#p57117239f6)" style="fill: #4682b4; opacity: 0.85; stroke: #ffffff; stroke-linejoin: miter"/>
   </g>
   <g id="patch_12">
    <path d="M 600.990679 442.689603 
L 640.471555 442.689603 
L 640.471555 416.035517 
L 600.990679 416.035517 
z
" clip-path="url(#p57117239f6)" style="fill: #4682b4; opacity: 0.85; stroke: #ffffff; stroke-linejoin: miter"/>
   </g>
   <g id="patch_13">
    <path d="M 600.990679 409.371996 
L 561.509802 409.371996 
L 561.509802 382.717911 
L 600.990679 382.717911 
z
" clip-path="url(#p57117239f6)" style="fill: #67a9a1; opacity: 0.85; stroke: #ffffff; stroke-linejoin: miter"/>
   </g>
   <g id="patch_14">
    <path d="M 600.990679 409.371996 
L 640.471555 409.371996 
L 640.471555 382.717911 
L 600.990679 382.717911 
z
" clip-path="url(#p57117239f6)" style="fill: #67a9a1; opacity: 0.85; stroke: #ffffff; stroke-linejoin: miter"/>
   </g>
   <g id="patch_15">
    <path d="M 600.990679 376.05439 
L 541.769364 376.05439 
L 541.769364 349.400305 
L 600.990679 349.400305 
z
" clip-path="url(#p57117239f6)" style="fill: #4682b4; opacity: 0.85; stroke: #ffffff; stroke-linejoin: miter"/>
   </g>
   <g id="patch_16">
    <path d="M 600.990679 376.05439 
L 660.211994 376.05439 
L 660.211994 349.400305 
L 600.990679 349.400305 
z
" clip-path="url(#p57117239f6)" style="fill: #4682b4; opacity: 0.85; stroke: #ffffff; stroke-linejoin: miter"/>
   </g>
   <g id="patch_17">
    <path d="M 600.990679 342.736783 
L 541.769364 342.736783 
L 541.769364 316.082698 
L 600.990679 316.082698 
z
" clip-path="url(#p57117239f6)" style="fill: #5a9bd5; opacity: 0.85; stroke: #ffffff; stroke-linejoin: miter"/>
   </g>
   <g id="patch_18">
    <path d="M 600.990679 342.736783 
L 660.211994 342.736783 
L 660.211994 316.082698 
L 600.990679 316.082698 
z
" clip-path="url(#p57117239f6)" style="fill: #5a9bd5; opacity: 0.85; stroke: #ffffff; stroke-linejoin: miter"/>
   </g>
   <g id="patch_19">
    <path d="M 600.990679 309.419177 
L 541.769364 309.419177 
L 541.769364 282.765092 
L 600.990679 282.765092 
z
" clip-path="url(#p57117239f6)" style="fill: #4682b4; opacity: 0.85; stroke: #ffffff; stroke-linejoin: miter"/>
   </g>
   <g id="patch_20">
    <path d="M 600.990679 309.419177 
L 660.211994 309.419177 
L 660.211994 282.765092 
L 600.990679 282.765092 
z
" clip-path="url(#p57117239f6)" style="fill: #4682b4; opacity: 0.85; stroke: #ffffff; stroke-linejoin: miter"/>
   </g>
   <g id="patch_21">
    <path d="M 600.990679 276.10157 
L 482.548049 276.10157 
L 482.548049 249.447485 
L 600.990679 249.447485 
z
" clip-path="url(#p57117239f6)" style="fill: #5a9bd5; opacity: 0.85; stroke: #ffffff; stroke-linejoin: miter"/>
   </g>
   <g id="patch_22">
    <path d="M 600.990679 276.10157 
L 719.433309 276.10157 
L 719.433309 249.447485 
L 600.990679 249.447485 
z
" clip-path="url(#p57117239f6)" style="fill: #5a9bd5; opacity: 0.85; stroke: #ffffff; stroke-linejoin: miter"/>
   </g>
   <g id="patch_23">
    <path d="M 600.990679 242.783964 
L 423.326734 242.783964 
L 423.326734 216.129879 
L 600.990679 216.129879 
z
" clip-path="url(#p57117239f6)" style="fill: #5a9bd5; opacity: 0.85; stroke: #ffffff; stroke-linejoin: miter"/>
   </g>
   <g id="patch_24">
    <path d="M 600.990679 242.783964 
L 778.654624 242.783964 
L 778.654624 216.129879 
L 600.990679 216.129879 
z
" clip-path="url(#p57117239f6)" style="fill: #5a9bd5; opacity: 0.85; stroke: #ffffff; stroke-linejoin: miter"/>
   </g>
   <g id="patch_25">
    <path d="M 600.990679 209.466358 
L 347.185043 209.466358 
L 347.185043 182.812272 
L 600.990679 182.812272 
z
" clip-path="url(#p57117239f6)" style="fill: #5a9bd5; opacity: 0.85; stroke: #ffffff; stroke-linejoin: miter"/>
   </g>
   <g id="patch_26">
    <path d="M 600.990679 209.466358 
L 854.796314 209.466358 
L 854.796314 182.812272 
L 600.990679 182.812272 
z
" clip-path="url(#p57117239f6)" style="fill: #5a9bd5; opacity: 0.85; stroke: #ffffff; stroke-linejoin: miter"/>
   </g>
   <g id="patch_27">
    <path d="M 600.990679 176.148751 
L 338.357021 176.148751 
L 338.357021 149.494666 
L 600.990679 149.494666 
z
" clip-path="url(#p57117239f6)" style="fill: #67a9a1; opacity: 0.85; stroke: #ffffff; stroke-linejoin: miter"/>
   </g>
   <g id="patch_28">
    <path d="M 600.990679 176.148751 
L 863.624336 176.148751 
L 863.624336 149.494666 
L 600.990679 149.494666 
z
" clip-path="url(#p57117239f6)" style="fill: #67a9a1; opacity: 0.85; stroke: #ffffff; stroke-linejoin: miter"/>
   </g>
   <g id="patch_29">
    <path d="M 600.990679 142.831145 
L 252.698985 142.831145 
L 252.698985 116.177059 
L 600.990679 116.177059 
z
" clip-path="url(#p57117239f6)" style="fill: #5a9bd5; opacity: 0.85; stroke: #ffffff; stroke-linejoin: miter"/>
   </g>
   <g id="patch_30">
    <path d="M 600.990679 142.831145 
L 949.282373 142.831145 
L 949.282373 116.177059 
L 600.990679 116.177059 
z
" clip-path="url(#p57117239f6)" style="fill: #5a9bd5; opacity: 0.85; stroke: #ffffff; stroke-linejoin: miter"/>
   </g>
   <g id="patch_31">
    <path d="M 600.990679 109.513538 
L 245.662789 109.513538 
L 245.662789 82.859453 
L 600.990679 82.859453 
z
" clip-path="url(#p57117239f6)" style="fill: #4682b4; opacity: 0.85; stroke: #ffffff; stroke-linejoin: miter"/>
   </g>
   <g id="patch_32">
    <path d="M 600.990679 109.513538 
L 956.318569 109.513538 
L 956.318569 82.859453 
L 600.990679 82.859453 
z
" clip-path="url(#p57117239f6)" style="fill: #4682b4; opacity: 0.85; stroke: #ffffff; stroke-linejoin: miter"/>
   </g>
   <g id="patch_33">
    <path d="M 600.990679 76.195932 
L 245.662789 76.195932 
L 245.662789 49.541847 
L 600.990679 49.541847 
z
" clip-path="url(#p57117239f6)" style="fill: #4682b4; opacity: 0.85; stroke: #ffffff; stroke-linejoin: miter"/>
   </g>
   <g id="patch_34">
    <path d="M 600.990679 76.195932 
L 956.318569 76.195932 
L 956.318569 49.541847 
L 600.990679 49.541847 
z
" clip-path="url(#p57117239f6)" style="fill: #4682b4; opacity: 0.85; stroke: #ffffff; stroke-linejoin: miter"/>
   </g>
   <g id="patch_35">
    <path d="M 210.13 602.280937 
L 210.13 23.220937 
" style="fill: none; stroke: #cccccc; stroke-linejoin: miter; stroke-linecap: square"/>
   </g>
   <g id="patch_36">
    <path d="M 991.851358 602.280937 
L 991.851358 23.220937 
" style="fill: none; stroke: #cccccc; stroke-linejoin: miter; stroke-linecap: square"/>
   </g>
   <g id="patch_37">
    <path d="M 210.13 602.280937 
L 991.851358 602.280937 
" style="fill: none; stroke: #cccccc; stroke-linejoin: miter; stroke-linecap: square"/>
   </g>
   <g id="patch_38">
    <path d="M 210.13 23.220937 
L 991.851358 23.220937 
" style="fill: none; stroke: #cccccc; stroke-linejoin: miter; stroke-linecap: square"/>
   </g>
   <g id="text_27">
    <!-- Parameter Uncertainty -->
    <g style="fill: #262626" transform="translate(530.96771 17.220937) scale(0.14 -0.14)">
     <defs>
      <path id="ArialMT-55" d="M 3500 4581 
L 4106 4581 
L 4106 1934 
Q 4106 1244 3950 837 
Q 3794 431 3386 176 
Q 2978 -78 2316 -78 
Q 1672 -78 1262 144 
Q 853 366 678 786 
Q 503 1206 503 1934 
L 503 4581 
L 1109 4581 
L 1109 1938 
Q 1109 1341 1220 1058 
Q 1331 775 1601 622 
Q 1872 469 2263 469 
Q 2931 469 3215 772 
Q 3500 1075 3500 1938 
L 3500 4581 
z
" transform="scale(0.015625)"/>
     </defs>
     <use xlink:href="#ArialMT-50"/>
     <use xlink:href="#ArialMT-61" transform="translate(66.699219 0)"/>
     <use xlink:href="#ArialMT-72" transform="translate(122.314453 0)"/>
     <use xlink:href="#ArialMT-61" transform="translate(155.615234 0)"/>
     <use xlink:href="#ArialMT-6d" transform="translate(211.230469 0)"/>
     <use xlink:href="#ArialMT-65" transform="translate(294.53125 0)"/>
     <use xlink:href="#ArialMT-74" transform="translate(350.146484 0)"/>
     <use xlink:href="#ArialMT-65" transform="translate(377.929688 0)"/>
     <use xlink:href="#ArialMT-72" transform="translate(433.544922 0)"/>
     <use xlink:href="#ArialMT-20" transform="translate(466.845703 0)"/>
     <use xlink:href="#ArialMT-55" transform="translate(494.628906 0)"/>
     <use xlink:href="#ArialMT-6e" transform="translate(566.845703 0)"/>
     <use xlink:href="#ArialMT-63" transform="translate(622.460938 0)"/>
     <use xlink:href="#ArialMT-65" transform="translate(672.460938 0)"/>
     <use xlink:href="#ArialMT-72" transform="translate(728.076172 0)"/>
     <use xlink:href="#ArialMT-74" transform="translate(761.376953 0)"/>
     <use xlink:href="#ArialMT-61" transform="translate(789.160156 0)"/>
     <use xlink:href="#ArialMT-69" transform="translate(844.775391 0)"/>
     <use xlink:href="#ArialMT-6e" transform="translate(866.992188 0)"/>
     <use xlink:href="#ArialMT-74" transform="translate(922.607422 0)"/>
     <use xlink:href="#ArialMT-79" transform="translate(950.390625 0)"/>
    </g>
   </g>
   <g id="line2d_51">
    <path d="M 600.990679 602.280937 
L 600.990679 23.220937 
" clip-path="url(#p57117239f6)" style="fill: none; stroke: #000000; stroke-linecap: round"/>
   </g>
   <g id="legend_1">
    <g id="patch_39">
     <path d="M 845.394951 559.075 
L 867.394951 559.075 
L 867.394951 551.375 
L 845.394951 551.375 
z
" style="fill: #4682b4; opacity: 0.85"/>
    </g>
    <g id="text_28">
     <!-- Technical Parameters -->
     <g style="fill: #262626" transform="translate(876.194951 559.075) scale(0.11 -0.11)">
      <use xlink:href="#ArialMT-54"/>
      <use xlink:href="#ArialMT-65" transform="translate(49.958984 0)"/>
      <use xlink:href="#ArialMT-63" transform="translate(105.574219 0)"/>
      <use xlink:href="#ArialMT-68" transform="translate(155.574219 0)"/>
      <use xlink:href="#ArialMT-6e" transform="translate(211.189453 0)"/>
      <use xlink:href="#ArialMT-69" transform="translate(266.804688 0)"/>
      <use xlink:href="#ArialMT-63" transform="translate(289.021484 0)"/>
      <use xlink:href="#ArialMT-61" transform="translate(339.021484 0)"/>
      <use xlink:href="#ArialMT-6c" transform="translate(394.636719 0)"/>
      <use xlink:href="#ArialMT-20" transform="translate(416.853516 0)"/>
      <use xlink:href="#ArialMT-50" transform="translate(444.636719 0)"/>
      <use xlink:href="#ArialMT-61" transform="translate(511.335938 0)"/>
      <use xlink:href="#ArialMT-72" transform="translate(566.951172 0)"/>
      <use xlink:href="#ArialMT-61" transform="translate(600.251953 0)"/>
      <use xlink:href="#ArialMT-6d" transform="translate(655.867188 0)"/>
      <use xlink:href="#ArialMT-65" transform="translate(739.167969 0)"/>
      <use xlink:href="#ArialMT-74" transform="translate(794.783203 0)"/>
      <use xlink:href="#ArialMT-65" transform="translate(822.566406 0)"/>
      <use xlink:href="#ArialMT-72" transform="translate(878.181641 0)"/>
      <use xlink:href="#ArialMT-73" transform="translate(911.482422 0)"/>
     </g>
    </g>
    <g id="patch_40">
     <path d="M 845.394951 574.634844 
L 867.394951 574.634844 
L 867.394951 566.934844 
L 845.394951 566.934844 
z
" style="fill: #5a9bd5; opacity: 0.85"/>
    </g>
    <g id="text_29">
     <!-- Rock Properties -->
     <g style="fill: #262626" transform="translate(876.194951 574.634844) scale(0.11 -0.11)">
      <use xlink:href="#ArialMT-52"/>
      <use xlink:href="#ArialMT-6f" transform="translate(72.216797 0)"/>
      <use xlink:href="#ArialMT-63" transform="translate(127.832031 0)"/>
      <use xlink:href="#ArialMT-6b" transform="translate(177.832031 0)"/>
      <use xlink:href="#ArialMT-20" transform="translate(227.832031 0)"/>
      <use xlink:href="#ArialMT-50" transform="translate(255.615234 0)"/>
      <use xlink:href="#ArialMT-72" transform="translate(322.314453 0)"/>
      <use xlink:href="#ArialMT-6f" transform="translate(355.615234 0)"/>
      <use xlink:href="#ArialMT-70" transform="translate(411.230469 0)"/>
      <use xlink:href="#ArialMT-65" transform="translate(466.845703 0)"/>
      <use xlink:href="#ArialMT-72" transform="translate(522.460938 0)"/>
      <use xlink:href="#ArialMT-74" transform="translate(555.761719 0)"/>
      <use xlink:href="#ArialMT-69" transform="translate(583.544922 0)"/>
      <use xlink:href="#ArialMT-65" transform="translate(605.761719 0)"/>
      <use xlink:href="#ArialMT-73" transform="translate(661.376953 0)"/>
     </g>
    </g>
    <g id="patch_41">
     <path d="M 845.394951 590.194687 
L 867.394951 590.194687 
L 867.394951 582.494687 
L 845.394951 582.494687 
z
" style="fill: #67a9a1; opacity: 0.85"/>
    </g>
    <g id="text_30">
     <!-- Fluid Properties -->
     <g style="fill: #262626" transform="translate(876.194951 590.194687) scale(0.11 -0.11)">
      <use xlink:href="#ArialMT-46"/>
      <use xlink:href="#ArialMT-6c" transform="translate(61.083984 0)"/>
      <use xlink:href="#ArialMT-75" transform="translate(83.300781 0)"/>
      <use xlink:href="#ArialMT-69" transform="translate(138.916016 0)"/>
      <use xlink:href="#ArialMT-64" transform="translate(161.132812 0)"/>
      <use xlink:href="#ArialMT-20" transform="translate(216.748047 0)"/>
      <use xlink:href="#ArialMT-50" transform="translate(244.53125 0)"/>
      <use xlink:href="#ArialMT-72" transform="translate(311.230469 0)"/>
      <use xlink:href="#ArialMT-6f" transform="translate(344.53125 0)"/>
      <use xlink:href="#ArialMT-70" transform="translate(400.146484 0)"/>
      <use xlink:href="#ArialMT-65" transform="translate(455.761719 0)"/>
      <use xlink:href="#ArialMT-72" transform="translate(511.376953 0)"/>
      <use xlink:href="#ArialMT-74" transform="translate(544.677734 0)"/>
      <use xlink:href="#ArialMT-69" transform="translate(572.460938 0)"/>
      <use xlink:href="#ArialMT-65" transform="translate(594.677734 0)"/>
      <use xlink:href="#ArialMT-73" transform="translate(650.292969 0)"/>
     </g>
    </g>
   </g>
  </g>
 </g>
 <defs>
  <clipPath id="p57117239f6">
   <rect x="210.13" y="23.220937" width="781.721358" height="579.06"/>
  </clipPath>
 </defs>
</svg>
