<?xml version="1.0" encoding="utf-8" standalone="no"?>
<!DOCTYPE svg PUBLIC "-//W3C//DTD SVG 1.1//EN"
  "http://www.w3.org/Graphics/SVG/1.1/DTD/svg11.dtd">
<svg xmlns:xlink="http://www.w3.org/1999/xlink" width="1000.850625pt" height="421.334062pt" viewBox="0 0 1000.850625 421.334062" xmlns="http://www.w3.org/2000/svg" version="1.1">
 <metadata>
  <rdf:RDF xmlns:dc="http://purl.org/dc/elements/1.1/" xmlns:cc="http://creativecommons.org/ns#" xmlns:rdf="http://www.w3.org/1999/02/22-rdf-syntax-ns#">
   <cc:Work>
    <dc:type rdf:resource="http://purl.org/dc/dcmitype/StillImage"/>
    <dc:date>2026-04-10T17:28:58.778035</dc:date>
    <dc:format>image/svg+xml</dc:format>
    <dc:creator>
     <cc:Agent>
      <dc:title>Matplotlib v3.10.7, https://matplotlib.org/</dc:title>
     </cc:Agent>
    </dc:creator>
   </cc:Work>
  </rdf:RDF>
 </metadata>
 <defs>
  <style type="text/css">*{stroke-linejoin: round; stroke-linecap: butt}</style>
 </defs>
 <g id="figure_1">
  <g id="patch_1">
   <path d="M 0 421.334062 
L 1000.850625 421.334062 
L 1000.850625 0 
L 0 0 
z
" style="fill: #ffffff"/>
  </g>
  <g id="axes_1">
   <g id="patch_2">
    <path d="M 51.020625 382.521562 
L 498.380625 382.521562 
L 498.380625 36.597562 
L 51.020625 36.597562 
z
" style="fill: #ffffff"/>
   </g>
   <g id="matplotlib.axis_1">
    <g id="xtick_1">
     <g id="line2d_1">
      <path d="M 103.610975 382.521562 
L 103.610975 36.597562 
" clip-path="url(#p108de953da)" style="fill: none; stroke: #cccccc; stroke-opacity: 0.3; stroke-width: 0.8; stroke-linecap: round"/>
     </g>
     <g id="line2d_2"/>
     <g id="text_1">
      <!-- 10 -->
      <g style="fill: #262626" transform="translate(96.93785 394.610937) scale(0.12 -0.12)">
       <defs>
        <path id="ArialMT-31" d="M 2384 0 
L 1822 0 
L 1822 3584 
Q 1619 3391 1289 3197 
Q 959 3003 697 2906 
L 697 3450 
Q 1169 3672 1522 3987 
Q 1875 4303 2022 4600 
L 2384 4600 
L 2384 0 
z
" transform="scale(0.015625)"/>
        <path id="ArialMT-30" d="M 266 2259 
Q 266 3072 433 3567 
Q 600 4063 929 4331 
Q 1259 4600 1759 4600 
Q 2128 4600 2406 4451 
Q 2684 4303 2865 4023 
Q 3047 3744 3150 3342 
Q 3253 2941 3253 2259 
Q 3253 1453 3087 958 
Q 2922 463 2592 192 
Q 2263 -78 1759 -78 
Q 1097 -78 719 397 
Q 266 969 266 2259 
z
M 844 2259 
Q 844 1131 1108 757 
Q 1372 384 1759 384 
Q 2147 384 2411 759 
Q 2675 1134 2675 2259 
Q 2675 3391 2411 3762 
Q 2147 4134 1753 4134 
Q 1366 4134 1134 3806 
Q 844 3388 844 2259 
z
" transform="scale(0.015625)"/>
       </defs>
       <use xlink:href="#ArialMT-31"/>
       <use xlink:href="#ArialMT-30" transform="translate(55.615234 0)"/>
      </g>
     </g>
    </g>
    <g id="xtick_2">
     <g id="line2d_3">
      <path d="M 191.228753 382.521562 
L 191.228753 36.597562 
" clip-path="url(#p108de953da)" style="fill: none; stroke: #cccccc; stroke-opacity: 0.3; stroke-width: 0.8; stroke-linecap: round"/>
     </g>
     <g id="line2d_4"/>
     <g id="text_2">
      <!-- 15 -->
      <g style="fill: #262626" transform="translate(184.555628 394.610937) scale(0.12 -0.12)">
       <defs>
        <path id="ArialMT-35" d="M 266 1200 
L 856 1250 
Q 922 819 1161 601 
Q 1400 384 1738 384 
Q 2144 384 2425 690 
Q 2706 997 2706 1503 
Q 2706 1984 2436 2262 
Q 2166 2541 1728 2541 
Q 1456 2541 1237 2417 
Q 1019 2294 894 2097 
L 366 2166 
L 809 4519 
L 3088 4519 
L 3088 3981 
L 1259 3981 
L 1013 2750 
Q 1425 3038 1878 3038 
Q 2478 3038 2890 2622 
Q 3303 2206 3303 1553 
Q 3303 931 2941 478 
Q 2500 -78 1738 -78 
Q 1113 -78 717 272 
Q 322 622 266 1200 
z
" transform="scale(0.015625)"/>
       </defs>
       <use xlink:href="#ArialMT-31"/>
       <use xlink:href="#ArialMT-35" transform="translate(55.615234 0)"/>
      </g>
     </g>
    </g>
    <g id="xtick_3">
     <g id="line2d_5">
      <path d="M 278.846532 382.521562 
L 278.846532 36.597562 
" clip-path="url(#p108de953da)" style="fill: none; stroke: #cccccc; stroke-opacity: 0.3; stroke-width: 0.8; stroke-linecap: round"/>
     </g>
     <g id="line2d_6"/>
     <g id="text_3">
      <!-- 20 -->
      <g style="fill: #262626" transform="translate(272.173407 394.610937) scale(0.12 -0.12)">
       <defs>
        <path id="ArialMT-32" d="M 3222 541 
L 3222 0 
L 194 0 
Q 188 203 259 391 
Q 375 700 629 1000 
Q 884 1300 1366 1694 
Q 2113 2306 2375 2664 
Q 2638 3022 2638 3341 
Q 2638 3675 2398 3904 
Q 2159 4134 1775 4134 
Q 1369 4134 1125 3890 
Q 881 3647 878 3216 
L 300 3275 
Q 359 3922 746 4261 
Q 1134 4600 1788 4600 
Q 2447 4600 2831 4234 
Q 3216 3869 3216 3328 
Q 3216 3053 3103 2787 
Q 2991 2522 2730 2228 
Q 2469 1934 1863 1422 
Q 1356 997 1212 845 
Q 1069 694 975 541 
L 3222 541 
z
" transform="scale(0.015625)"/>
       </defs>
       <use xlink:href="#ArialMT-32"/>
       <use xlink:href="#ArialMT-30" transform="translate(55.615234 0)"/>
      </g>
     </g>
    </g>
    <g id="xtick_4">
     <g id="line2d_7">
      <path d="M 366.46431 382.521562 
L 366.46431 36.597562 
" clip-path="url(#p108de953da)" style="fill: none; stroke: #cccccc; stroke-opacity: 0.3; stroke-width: 0.8; stroke-linecap: round"/>
     </g>
     <g id="line2d_8"/>
     <g id="text_4">
      <!-- 25 -->
      <g style="fill: #262626" transform="translate(359.791185 394.610937) scale(0.12 -0.12)">
       <use xlink:href="#ArialMT-32"/>
       <use xlink:href="#ArialMT-35" transform="translate(55.615234 0)"/>
      </g>
     </g>
    </g>
    <g id="xtick_5">
     <g id="line2d_9">
      <path d="M 454.082088 382.521562 
L 454.082088 36.597562 
" clip-path="url(#p108de953da)" style="fill: none; stroke: #cccccc; stroke-opacity: 0.3; stroke-width: 0.8; stroke-linecap: round"/>
     </g>
     <g id="line2d_10"/>
     <g id="text_5">
      <!-- 30 -->
      <g style="fill: #262626" transform="translate(447.408963 394.610937) scale(0.12 -0.12)">
       <defs>
        <path id="ArialMT-33" d="M 269 1209 
L 831 1284 
Q 928 806 1161 595 
Q 1394 384 1728 384 
Q 2125 384 2398 659 
Q 2672 934 2672 1341 
Q 2672 1728 2419 1979 
Q 2166 2231 1775 2231 
Q 1616 2231 1378 2169 
L 1441 2663 
Q 1497 2656 1531 2656 
Q 1891 2656 2178 2843 
Q 2466 3031 2466 3422 
Q 2466 3731 2256 3934 
Q 2047 4138 1716 4138 
Q 1388 4138 1169 3931 
Q 950 3725 888 3313 
L 325 3413 
Q 428 3978 793 4289 
Q 1159 4600 1703 4600 
Q 2078 4600 2393 4439 
Q 2709 4278 2876 4000 
Q 3044 3722 3044 3409 
Q 3044 3113 2884 2869 
Q 2725 2625 2413 2481 
Q 2819 2388 3044 2092 
Q 3269 1797 3269 1353 
Q 3269 753 2831 336 
Q 2394 -81 1725 -81 
Q 1122 -81 723 278 
Q 325 638 269 1209 
z
" transform="scale(0.015625)"/>
       </defs>
       <use xlink:href="#ArialMT-33"/>
       <use xlink:href="#ArialMT-30" transform="translate(55.615234 0)"/>
      </g>
     </g>
    </g>
    <g id="text_6">
     <!-- Breakthrough Time (years) -->
     <g style="fill: #262626" transform="translate(191.840312 411.1875) scale(0.14 -0.14)">
      <defs>
       <path id="ArialMT-42" d="M 469 0 
L 469 4581 
L 2188 4581 
Q 2713 4581 3030 4442 
Q 3347 4303 3526 4014 
Q 3706 3725 3706 3409 
Q 3706 3116 3547 2856 
Q 3388 2597 3066 2438 
Q 3481 2316 3704 2022 
Q 3928 1728 3928 1328 
Q 3928 1006 3792 729 
Q 3656 453 3456 303 
Q 3256 153 2954 76 
Q 2653 0 2216 0 
L 469 0 
z
M 1075 2656 
L 2066 2656 
Q 2469 2656 2644 2709 
Q 2875 2778 2992 2937 
Q 3109 3097 3109 3338 
Q 3109 3566 3000 3739 
Q 2891 3913 2687 3977 
Q 2484 4041 1991 4041 
L 1075 4041 
L 1075 2656 
z
M 1075 541 
L 2216 541 
Q 2509 541 2628 563 
Q 2838 600 2978 687 
Q 3119 775 3209 942 
Q 3300 1109 3300 1328 
Q 3300 1584 3169 1773 
Q 3038 1963 2805 2039 
Q 2572 2116 2134 2116 
L 1075 2116 
L 1075 541 
z
" transform="scale(0.015625)"/>
       <path id="ArialMT-72" d="M 416 0 
L 416 3319 
L 922 3319 
L 922 2816 
Q 1116 3169 1280 3281 
Q 1444 3394 1641 3394 
Q 1925 3394 2219 3213 
L 2025 2691 
Q 1819 2813 1613 2813 
Q 1428 2813 1281 2702 
Q 1134 2591 1072 2394 
Q 978 2094 978 1738 
L 978 0 
L 416 0 
z
" transform="scale(0.015625)"/>
       <path id="ArialMT-65" d="M 2694 1069 
L 3275 997 
Q 3138 488 2766 206 
Q 2394 -75 1816 -75 
Q 1088 -75 661 373 
Q 234 822 234 1631 
Q 234 2469 665 2931 
Q 1097 3394 1784 3394 
Q 2450 3394 2872 2941 
Q 3294 2488 3294 1666 
Q 3294 1616 3291 1516 
L 816 1516 
Q 847 969 1125 678 
Q 1403 388 1819 388 
Q 2128 388 2347 550 
Q 2566 713 2694 1069 
z
M 847 1978 
L 2700 1978 
Q 2663 2397 2488 2606 
Q 2219 2931 1791 2931 
Q 1403 2931 1139 2672 
Q 875 2413 847 1978 
z
" transform="scale(0.015625)"/>
       <path id="ArialMT-61" d="M 2588 409 
Q 2275 144 1986 34 
Q 1697 -75 1366 -75 
Q 819 -75 525 192 
Q 231 459 231 875 
Q 231 1119 342 1320 
Q 453 1522 633 1644 
Q 813 1766 1038 1828 
Q 1203 1872 1538 1913 
Q 2219 1994 2541 2106 
Q 2544 2222 2544 2253 
Q 2544 2597 2384 2738 
Q 2169 2928 1744 2928 
Q 1347 2928 1158 2789 
Q 969 2650 878 2297 
L 328 2372 
Q 403 2725 575 2942 
Q 747 3159 1072 3276 
Q 1397 3394 1825 3394 
Q 2250 3394 2515 3294 
Q 2781 3194 2906 3042 
Q 3031 2891 3081 2659 
Q 3109 2516 3109 2141 
L 3109 1391 
Q 3109 606 3145 398 
Q 3181 191 3288 0 
L 2700 0 
Q 2613 175 2588 409 
z
M 2541 1666 
Q 2234 1541 1622 1453 
Q 1275 1403 1131 1340 
Q 988 1278 909 1158 
Q 831 1038 831 891 
Q 831 666 1001 516 
Q 1172 366 1500 366 
Q 1825 366 2078 508 
Q 2331 650 2450 897 
Q 2541 1088 2541 1459 
L 2541 1666 
z
" transform="scale(0.015625)"/>
       <path id="ArialMT-6b" d="M 425 0 
L 425 4581 
L 988 4581 
L 988 1969 
L 2319 3319 
L 3047 3319 
L 1778 2088 
L 3175 0 
L 2481 0 
L 1384 1697 
L 988 1316 
L 988 0 
L 425 0 
z
" transform="scale(0.015625)"/>
       <path id="ArialMT-74" d="M 1650 503 
L 1731 6 
Q 1494 -44 1306 -44 
Q 1000 -44 831 53 
Q 663 150 594 308 
Q 525 466 525 972 
L 525 2881 
L 113 2881 
L 113 3319 
L 525 3319 
L 525 4141 
L 1084 4478 
L 1084 3319 
L 1650 3319 
L 1650 2881 
L 1084 2881 
L 1084 941 
Q 1084 700 1114 631 
Q 1144 563 1211 522 
Q 1278 481 1403 481 
Q 1497 481 1650 503 
z
" transform="scale(0.015625)"/>
       <path id="ArialMT-68" d="M 422 0 
L 422 4581 
L 984 4581 
L 984 2938 
Q 1378 3394 1978 3394 
Q 2347 3394 2619 3248 
Q 2891 3103 3008 2847 
Q 3125 2591 3125 2103 
L 3125 0 
L 2563 0 
L 2563 2103 
Q 2563 2525 2380 2717 
Q 2197 2909 1863 2909 
Q 1613 2909 1392 2779 
Q 1172 2650 1078 2428 
Q 984 2206 984 1816 
L 984 0 
L 422 0 
z
" transform="scale(0.015625)"/>
       <path id="ArialMT-6f" d="M 213 1659 
Q 213 2581 725 3025 
Q 1153 3394 1769 3394 
Q 2453 3394 2887 2945 
Q 3322 2497 3322 1706 
Q 3322 1066 3130 698 
Q 2938 331 2570 128 
Q 2203 -75 1769 -75 
Q 1072 -75 642 372 
Q 213 819 213 1659 
z
M 791 1659 
Q 791 1022 1069 705 
Q 1347 388 1769 388 
Q 2188 388 2466 706 
Q 2744 1025 2744 1678 
Q 2744 2294 2464 2611 
Q 2184 2928 1769 2928 
Q 1347 2928 1069 2612 
Q 791 2297 791 1659 
z
" transform="scale(0.015625)"/>
       <path id="ArialMT-75" d="M 2597 0 
L 2597 488 
Q 2209 -75 1544 -75 
Q 1250 -75 995 37 
Q 741 150 617 320 
Q 494 491 444 738 
Q 409 903 409 1263 
L 409 3319 
L 972 3319 
L 972 1478 
Q 972 1038 1006 884 
Q 1059 663 1231 536 
Q 1403 409 1656 409 
Q 1909 409 2131 539 
Q 2353 669 2445 892 
Q 2538 1116 2538 1541 
L 2538 3319 
L 3100 3319 
L 3100 0 
L 2597 0 
z
" transform="scale(0.015625)"/>
       <path id="ArialMT-67" d="M 319 -275 
L 866 -356 
Q 900 -609 1056 -725 
Q 1266 -881 1628 -881 
Q 2019 -881 2231 -725 
Q 2444 -569 2519 -288 
Q 2563 -116 2559 434 
Q 2191 0 1641 0 
Q 956 0 581 494 
Q 206 988 206 1678 
Q 206 2153 378 2554 
Q 550 2956 876 3175 
Q 1203 3394 1644 3394 
Q 2231 3394 2613 2919 
L 2613 3319 
L 3131 3319 
L 3131 450 
Q 3131 -325 2973 -648 
Q 2816 -972 2473 -1159 
Q 2131 -1347 1631 -1347 
Q 1038 -1347 672 -1080 
Q 306 -813 319 -275 
z
M 784 1719 
Q 784 1066 1043 766 
Q 1303 466 1694 466 
Q 2081 466 2343 764 
Q 2606 1063 2606 1700 
Q 2606 2309 2336 2618 
Q 2066 2928 1684 2928 
Q 1309 2928 1046 2623 
Q 784 2319 784 1719 
z
" transform="scale(0.015625)"/>
       <path id="ArialMT-20" transform="scale(0.015625)"/>
       <path id="ArialMT-54" d="M 1659 0 
L 1659 4041 
L 150 4041 
L 150 4581 
L 3781 4581 
L 3781 4041 
L 2266 4041 
L 2266 0 
L 1659 0 
z
" transform="scale(0.015625)"/>
       <path id="ArialMT-69" d="M 425 3934 
L 425 4581 
L 988 4581 
L 988 3934 
L 425 3934 
z
M 425 0 
L 425 3319 
L 988 3319 
L 988 0 
L 425 0 
z
" transform="scale(0.015625)"/>
       <path id="ArialMT-6d" d="M 422 0 
L 422 3319 
L 925 3319 
L 925 2853 
Q 1081 3097 1340 3245 
Q 1600 3394 1931 3394 
Q 2300 3394 2536 3241 
Q 2772 3088 2869 2813 
Q 3263 3394 3894 3394 
Q 4388 3394 4653 3120 
Q 4919 2847 4919 2278 
L 4919 0 
L 4359 0 
L 4359 2091 
Q 4359 2428 4304 2576 
Q 4250 2725 4106 2815 
Q 3963 2906 3769 2906 
Q 3419 2906 3187 2673 
Q 2956 2441 2956 1928 
L 2956 0 
L 2394 0 
L 2394 2156 
Q 2394 2531 2256 2718 
Q 2119 2906 1806 2906 
Q 1569 2906 1367 2781 
Q 1166 2656 1075 2415 
Q 984 2175 984 1722 
L 984 0 
L 422 0 
z
" transform="scale(0.015625)"/>
       <path id="ArialMT-28" d="M 1497 -1347 
Q 1031 -759 709 28 
Q 388 816 388 1659 
Q 388 2403 628 3084 
Q 909 3875 1497 4659 
L 1900 4659 
Q 1522 4009 1400 3731 
Q 1209 3300 1100 2831 
Q 966 2247 966 1656 
Q 966 153 1900 -1347 
L 1497 -1347 
z
" transform="scale(0.015625)"/>
       <path id="ArialMT-79" d="M 397 -1278 
L 334 -750 
Q 519 -800 656 -800 
Q 844 -800 956 -737 
Q 1069 -675 1141 -563 
Q 1194 -478 1313 -144 
Q 1328 -97 1363 -6 
L 103 3319 
L 709 3319 
L 1400 1397 
Q 1534 1031 1641 628 
Q 1738 1016 1872 1384 
L 2581 3319 
L 3144 3319 
L 1881 -56 
Q 1678 -603 1566 -809 
Q 1416 -1088 1222 -1217 
Q 1028 -1347 759 -1347 
Q 597 -1347 397 -1278 
z
" transform="scale(0.015625)"/>
       <path id="ArialMT-73" d="M 197 991 
L 753 1078 
Q 800 744 1014 566 
Q 1228 388 1613 388 
Q 2000 388 2187 545 
Q 2375 703 2375 916 
Q 2375 1106 2209 1216 
Q 2094 1291 1634 1406 
Q 1016 1563 777 1677 
Q 538 1791 414 1992 
Q 291 2194 291 2438 
Q 291 2659 392 2848 
Q 494 3038 669 3163 
Q 800 3259 1026 3326 
Q 1253 3394 1513 3394 
Q 1903 3394 2198 3281 
Q 2494 3169 2634 2976 
Q 2775 2784 2828 2463 
L 2278 2388 
Q 2241 2644 2061 2787 
Q 1881 2931 1553 2931 
Q 1166 2931 1000 2803 
Q 834 2675 834 2503 
Q 834 2394 903 2306 
Q 972 2216 1119 2156 
Q 1203 2125 1616 2013 
Q 2213 1853 2448 1751 
Q 2684 1650 2818 1456 
Q 2953 1263 2953 975 
Q 2953 694 2789 445 
Q 2625 197 2315 61 
Q 2006 -75 1616 -75 
Q 969 -75 630 194 
Q 291 463 197 991 
z
" transform="scale(0.015625)"/>
       <path id="ArialMT-29" d="M 791 -1347 
L 388 -1347 
Q 1322 153 1322 1656 
Q 1322 2244 1188 2822 
Q 1081 3291 891 3722 
Q 769 4003 388 4659 
L 791 4659 
Q 1378 3875 1659 3084 
Q 1900 2403 1900 1659 
Q 1900 816 1576 28 
Q 1253 -759 791 -1347 
z
" transform="scale(0.015625)"/>
      </defs>
      <use xlink:href="#ArialMT-42"/>
      <use xlink:href="#ArialMT-72" transform="translate(66.699219 0)"/>
      <use xlink:href="#ArialMT-65" transform="translate(100 0)"/>
      <use xlink:href="#ArialMT-61" transform="translate(155.615234 0)"/>
      <use xlink:href="#ArialMT-6b" transform="translate(211.230469 0)"/>
      <use xlink:href="#ArialMT-74" transform="translate(261.230469 0)"/>
      <use xlink:href="#ArialMT-68" transform="translate(289.013672 0)"/>
      <use xlink:href="#ArialMT-72" transform="translate(344.628906 0)"/>
      <use xlink:href="#ArialMT-6f" transform="translate(377.929688 0)"/>
      <use xlink:href="#ArialMT-75" transform="translate(433.544922 0)"/>
      <use xlink:href="#ArialMT-67" transform="translate(489.160156 0)"/>
      <use xlink:href="#ArialMT-68" transform="translate(544.775391 0)"/>
      <use xlink:href="#ArialMT-20" transform="translate(600.390625 0)"/>
      <use xlink:href="#ArialMT-54" transform="translate(626.423828 0)"/>
      <use xlink:href="#ArialMT-69" transform="translate(683.757812 0)"/>
      <use xlink:href="#ArialMT-6d" transform="translate(705.974609 0)"/>
      <use xlink:href="#ArialMT-65" transform="translate(789.275391 0)"/>
      <use xlink:href="#ArialMT-20" transform="translate(844.890625 0)"/>
      <use xlink:href="#ArialMT-28" transform="translate(872.673828 0)"/>
      <use xlink:href="#ArialMT-79" transform="translate(905.974609 0)"/>
      <use xlink:href="#ArialMT-65" transform="translate(955.974609 0)"/>
      <use xlink:href="#ArialMT-61" transform="translate(1011.589844 0)"/>
      <use xlink:href="#ArialMT-72" transform="translate(1067.205078 0)"/>
      <use xlink:href="#ArialMT-73" transform="translate(1100.505859 0)"/>
      <use xlink:href="#ArialMT-29" transform="translate(1150.505859 0)"/>
     </g>
    </g>
   </g>
   <g id="matplotlib.axis_2">
    <g id="ytick_1">
     <g id="line2d_11">
      <path d="M 51.020625 382.521562 
L 498.380625 382.521562 
" clip-path="url(#p108de953da)" style="fill: none; stroke: #cccccc; stroke-opacity: 0.3; stroke-width: 0.8; stroke-linecap: round"/>
     </g>
     <g id="line2d_12"/>
     <g id="text_7">
      <!-- 0.00 -->
      <g style="fill: #262626" transform="translate(24.1675 386.81625) scale(0.12 -0.12)">
       <defs>
        <path id="ArialMT-2e" d="M 581 0 
L 581 641 
L 1222 641 
L 1222 0 
L 581 0 
z
" transform="scale(0.015625)"/>
       </defs>
       <use xlink:href="#ArialMT-30"/>
       <use xlink:href="#ArialMT-2e" transform="translate(55.615234 0)"/>
       <use xlink:href="#ArialMT-30" transform="translate(83.398438 0)"/>
       <use xlink:href="#ArialMT-30" transform="translate(139.013672 0)"/>
      </g>
     </g>
    </g>
    <g id="ytick_2">
     <g id="line2d_13">
      <path d="M 51.020625 323.250336 
L 498.380625 323.250336 
" clip-path="url(#p108de953da)" style="fill: none; stroke: #cccccc; stroke-opacity: 0.3; stroke-width: 0.8; stroke-linecap: round"/>
     </g>
     <g id="line2d_14"/>
     <g id="text_8">
      <!-- 0.02 -->
      <g style="fill: #262626" transform="translate(24.1675 327.545023) scale(0.12 -0.12)">
       <use xlink:href="#ArialMT-30"/>
       <use xlink:href="#ArialMT-2e" transform="translate(55.615234 0)"/>
       <use xlink:href="#ArialMT-30" transform="translate(83.398438 0)"/>
       <use xlink:href="#ArialMT-32" transform="translate(139.013672 0)"/>
      </g>
     </g>
    </g>
    <g id="ytick_3">
     <g id="line2d_15">
      <path d="M 51.020625 263.979109 
L 498.380625 263.979109 
" clip-path="url(#p108de953da)" style="fill: none; stroke: #cccccc; stroke-opacity: 0.3; stroke-width: 0.8; stroke-linecap: round"/>
     </g>
     <g id="line2d_16"/>
     <g id="text_9">
      <!-- 0.04 -->
      <g style="fill: #262626" transform="translate(24.1675 268.273796) scale(0.12 -0.12)">
       <defs>
        <path id="ArialMT-34" d="M 2069 0 
L 2069 1097 
L 81 1097 
L 81 1613 
L 2172 4581 
L 2631 4581 
L 2631 1613 
L 3250 1613 
L 3250 1097 
L 2631 1097 
L 2631 0 
L 2069 0 
z
M 2069 1613 
L 2069 3678 
L 634 1613 
L 2069 1613 
z
" transform="scale(0.015625)"/>
       </defs>
       <use xlink:href="#ArialMT-30"/>
       <use xlink:href="#ArialMT-2e" transform="translate(55.615234 0)"/>
       <use xlink:href="#ArialMT-30" transform="translate(83.398438 0)"/>
       <use xlink:href="#ArialMT-34" transform="translate(139.013672 0)"/>
      </g>
     </g>
    </g>
    <g id="ytick_4">
     <g id="line2d_17">
      <path d="M 51.020625 204.707882 
L 498.380625 204.707882 
" clip-path="url(#p108de953da)" style="fill: none; stroke: #cccccc; stroke-opacity: 0.3; stroke-width: 0.8; stroke-linecap: round"/>
     </g>
     <g id="line2d_18"/>
     <g id="text_10">
      <!-- 0.06 -->
      <g style="fill: #262626" transform="translate(24.1675 209.002569) scale(0.12 -0.12)">
       <defs>
        <path id="ArialMT-36" d="M 3184 3459 
L 2625 3416 
Q 2550 3747 2413 3897 
Q 2184 4138 1850 4138 
Q 1581 4138 1378 3988 
Q 1113 3794 959 3422 
Q 806 3050 800 2363 
Q 1003 2672 1297 2822 
Q 1591 2972 1913 2972 
Q 2475 2972 2870 2558 
Q 3266 2144 3266 1488 
Q 3266 1056 3080 686 
Q 2894 316 2569 119 
Q 2244 -78 1831 -78 
Q 1128 -78 684 439 
Q 241 956 241 2144 
Q 241 3472 731 4075 
Q 1159 4600 1884 4600 
Q 2425 4600 2770 4297 
Q 3116 3994 3184 3459 
z
M 888 1484 
Q 888 1194 1011 928 
Q 1134 663 1356 523 
Q 1578 384 1822 384 
Q 2178 384 2434 671 
Q 2691 959 2691 1453 
Q 2691 1928 2437 2201 
Q 2184 2475 1800 2475 
Q 1419 2475 1153 2201 
Q 888 1928 888 1484 
z
" transform="scale(0.015625)"/>
       </defs>
       <use xlink:href="#ArialMT-30"/>
       <use xlink:href="#ArialMT-2e" transform="translate(55.615234 0)"/>
       <use xlink:href="#ArialMT-30" transform="translate(83.398438 0)"/>
       <use xlink:href="#ArialMT-36" transform="translate(139.013672 0)"/>
      </g>
     </g>
    </g>
    <g id="ytick_5">
     <g id="line2d_19">
      <path d="M 51.020625 145.436655 
L 498.380625 145.436655 
" clip-path="url(#p108de953da)" style="fill: none; stroke: #cccccc; stroke-opacity: 0.3; stroke-width: 0.8; stroke-linecap: round"/>
     </g>
     <g id="line2d_20"/>
     <g id="text_11">
      <!-- 0.08 -->
      <g style="fill: #262626" transform="translate(24.1675 149.731343) scale(0.12 -0.12)">
       <defs>
        <path id="ArialMT-38" d="M 1131 2484 
Q 781 2613 612 2850 
Q 444 3088 444 3419 
Q 444 3919 803 4259 
Q 1163 4600 1759 4600 
Q 2359 4600 2725 4251 
Q 3091 3903 3091 3403 
Q 3091 3084 2923 2848 
Q 2756 2613 2416 2484 
Q 2838 2347 3058 2040 
Q 3278 1734 3278 1309 
Q 3278 722 2862 322 
Q 2447 -78 1769 -78 
Q 1091 -78 675 323 
Q 259 725 259 1325 
Q 259 1772 486 2073 
Q 713 2375 1131 2484 
z
M 1019 3438 
Q 1019 3113 1228 2906 
Q 1438 2700 1772 2700 
Q 2097 2700 2305 2904 
Q 2513 3109 2513 3406 
Q 2513 3716 2298 3927 
Q 2084 4138 1766 4138 
Q 1444 4138 1231 3931 
Q 1019 3725 1019 3438 
z
M 838 1322 
Q 838 1081 952 856 
Q 1066 631 1291 507 
Q 1516 384 1775 384 
Q 2178 384 2440 643 
Q 2703 903 2703 1303 
Q 2703 1709 2433 1975 
Q 2163 2241 1756 2241 
Q 1359 2241 1098 1978 
Q 838 1716 838 1322 
z
" transform="scale(0.015625)"/>
       </defs>
       <use xlink:href="#ArialMT-30"/>
       <use xlink:href="#ArialMT-2e" transform="translate(55.615234 0)"/>
       <use xlink:href="#ArialMT-30" transform="translate(83.398438 0)"/>
       <use xlink:href="#ArialMT-38" transform="translate(139.013672 0)"/>
      </g>
     </g>
    </g>
    <g id="ytick_6">
     <g id="line2d_21">
      <path d="M 51.020625 86.165428 
L 498.380625 86.165428 
" clip-path="url(#p108de953da)" style="fill: none; stroke: #cccccc; stroke-opacity: 0.3; stroke-width: 0.8; stroke-linecap: round"/>
     </g>
     <g id="line2d_22"/>
     <g id="text_12">
      <!-- 0.10 -->
      <g style="fill: #262626" transform="translate(24.1675 90.460116) scale(0.12 -0.12)">
       <use xlink:href="#ArialMT-30"/>
       <use xlink:href="#ArialMT-2e" transform="translate(55.615234 0)"/>
       <use xlink:href="#ArialMT-31" transform="translate(83.398438 0)"/>
       <use xlink:href="#ArialMT-30" transform="translate(139.013672 0)"/>
      </g>
     </g>
    </g>
    <g id="text_13">
     <!-- Probability Density -->
     <g style="fill: #262626" transform="translate(17.220937 267.526125) rotate(-90) scale(0.14 -0.14)">
      <defs>
       <path id="ArialMT-50" d="M 494 0 
L 494 4581 
L 2222 4581 
Q 2678 4581 2919 4538 
Q 3256 4481 3484 4323 
Q 3713 4166 3852 3881 
Q 3991 3597 3991 3256 
Q 3991 2672 3619 2267 
Q 3247 1863 2275 1863 
L 1100 1863 
L 1100 0 
L 494 0 
z
M 1100 2403 
L 2284 2403 
Q 2872 2403 3119 2622 
Q 3366 2841 3366 3238 
Q 3366 3525 3220 3729 
Q 3075 3934 2838 4000 
Q 2684 4041 2272 4041 
L 1100 4041 
L 1100 2403 
z
" transform="scale(0.015625)"/>
       <path id="ArialMT-62" d="M 941 0 
L 419 0 
L 419 4581 
L 981 4581 
L 981 2947 
Q 1338 3394 1891 3394 
Q 2197 3394 2470 3270 
Q 2744 3147 2920 2923 
Q 3097 2700 3197 2384 
Q 3297 2069 3297 1709 
Q 3297 856 2875 390 
Q 2453 -75 1863 -75 
Q 1275 -75 941 416 
L 941 0 
z
M 934 1684 
Q 934 1088 1097 822 
Q 1363 388 1816 388 
Q 2184 388 2453 708 
Q 2722 1028 2722 1663 
Q 2722 2313 2464 2622 
Q 2206 2931 1841 2931 
Q 1472 2931 1203 2611 
Q 934 2291 934 1684 
z
" transform="scale(0.015625)"/>
       <path id="ArialMT-6c" d="M 409 0 
L 409 4581 
L 972 4581 
L 972 0 
L 409 0 
z
" transform="scale(0.015625)"/>
       <path id="ArialMT-44" d="M 494 0 
L 494 4581 
L 2072 4581 
Q 2606 4581 2888 4516 
Q 3281 4425 3559 4188 
Q 3922 3881 4101 3404 
Q 4281 2928 4281 2316 
Q 4281 1794 4159 1391 
Q 4038 988 3847 723 
Q 3656 459 3429 307 
Q 3203 156 2883 78 
Q 2563 0 2147 0 
L 494 0 
z
M 1100 541 
L 2078 541 
Q 2531 541 2789 625 
Q 3047 709 3200 863 
Q 3416 1078 3536 1442 
Q 3656 1806 3656 2325 
Q 3656 3044 3420 3430 
Q 3184 3816 2847 3947 
Q 2603 4041 2063 4041 
L 1100 4041 
L 1100 541 
z
" transform="scale(0.015625)"/>
       <path id="ArialMT-6e" d="M 422 0 
L 422 3319 
L 928 3319 
L 928 2847 
Q 1294 3394 1984 3394 
Q 2284 3394 2536 3286 
Q 2788 3178 2913 3003 
Q 3038 2828 3088 2588 
Q 3119 2431 3119 2041 
L 3119 0 
L 2556 0 
L 2556 2019 
Q 2556 2363 2490 2533 
Q 2425 2703 2258 2804 
Q 2091 2906 1866 2906 
Q 1506 2906 1245 2678 
Q 984 2450 984 1813 
L 984 0 
L 422 0 
z
" transform="scale(0.015625)"/>
      </defs>
      <use xlink:href="#ArialMT-50"/>
      <use xlink:href="#ArialMT-72" transform="translate(66.699219 0)"/>
      <use xlink:href="#ArialMT-6f" transform="translate(100 0)"/>
      <use xlink:href="#ArialMT-62" transform="translate(155.615234 0)"/>
      <use xlink:href="#ArialMT-61" transform="translate(211.230469 0)"/>
      <use xlink:href="#ArialMT-62" transform="translate(266.845703 0)"/>
      <use xlink:href="#ArialMT-69" transform="translate(322.460938 0)"/>
      <use xlink:href="#ArialMT-6c" transform="translate(344.677734 0)"/>
      <use xlink:href="#ArialMT-69" transform="translate(366.894531 0)"/>
      <use xlink:href="#ArialMT-74" transform="translate(389.111328 0)"/>
      <use xlink:href="#ArialMT-79" transform="translate(416.894531 0)"/>
      <use xlink:href="#ArialMT-20" transform="translate(466.894531 0)"/>
      <use xlink:href="#ArialMT-44" transform="translate(494.677734 0)"/>
      <use xlink:href="#ArialMT-65" transform="translate(566.894531 0)"/>
      <use xlink:href="#ArialMT-6e" transform="translate(622.509766 0)"/>
      <use xlink:href="#ArialMT-73" transform="translate(678.125 0)"/>
      <use xlink:href="#ArialMT-69" transform="translate(728.125 0)"/>
      <use xlink:href="#ArialMT-74" transform="translate(750.341797 0)"/>
      <use xlink:href="#ArialMT-79" transform="translate(778.125 0)"/>
     </g>
    </g>
   </g>
   <g id="patch_3">
    <path d="M 71.35517 382.521562 
L 79.488989 382.521562 
L 79.488989 379.64844 
L 71.35517 379.64844 
z
" clip-path="url(#p108de953da)" style="fill: #4682b4; opacity: 0.7; stroke: #ffffff; stroke-linejoin: miter"/>
   </g>
   <g id="patch_4">
    <path d="M 79.488989 382.521562 
L 87.622807 382.521562 
L 87.622807 371.667543 
L 79.488989 371.667543 
z
" clip-path="url(#p108de953da)" style="fill: #4682b4; opacity: 0.7; stroke: #ffffff; stroke-linejoin: miter"/>
   </g>
   <g id="patch_5">
    <path d="M 87.622807 382.521562 
L 95.756625 382.521562 
L 95.756625 361.451994 
L 87.622807 361.451994 
z
" clip-path="url(#p108de953da)" style="fill: #4682b4; opacity: 0.7; stroke: #ffffff; stroke-linejoin: miter"/>
   </g>
   <g id="patch_6">
    <path d="M 95.756625 382.521562 
L 103.890443 382.521562 
L 103.890443 348.044087 
L 95.756625 348.044087 
z
" clip-path="url(#p108de953da)" style="fill: #4682b4; opacity: 0.7; stroke: #ffffff; stroke-linejoin: miter"/>
   </g>
   <g id="patch_7">
    <path d="M 103.890443 382.521562 
L 112.024261 382.521562 
L 112.024261 331.443822 
L 103.890443 331.443822 
z
" clip-path="url(#p108de953da)" style="fill: #4682b4; opacity: 0.7; stroke: #ffffff; stroke-linejoin: miter"/>
   </g>
   <g id="patch_8">
    <path d="M 112.024261 382.521562 
L 120.15808 382.521562 
L 120.15808 303.031828 
L 112.024261 303.031828 
z
" clip-path="url(#p108de953da)" style="fill: #4682b4; opacity: 0.7; stroke: #ffffff; stroke-linejoin: miter"/>
   </g>
   <g id="patch_9">
    <path d="M 120.15808 382.521562 
L 128.291898 382.521562 
L 128.291898 274.619835 
L 120.15808 274.619835 
z
" clip-path="url(#p108de953da)" style="fill: #4682b4; opacity: 0.7; stroke: #ffffff; stroke-linejoin: miter"/>
   </g>
   <g id="patch_10">
    <path d="M 128.291898 382.521562 
L 136.425716 382.521562 
L 136.425716 252.592559 
L 128.291898 252.592559 
z
" clip-path="url(#p108de953da)" style="fill: #4682b4; opacity: 0.7; stroke: #ffffff; stroke-linejoin: miter"/>
   </g>
   <g id="patch_11">
    <path d="M 136.425716 382.521562 
L 144.559534 382.521562 
L 144.559534 204.707177 
L 136.425716 204.707177 
z
" clip-path="url(#p108de953da)" style="fill: #4682b4; opacity: 0.7; stroke: #ffffff; stroke-linejoin: miter"/>
   </g>
   <g id="patch_12">
    <path d="M 144.559534 382.521562 
L 152.693352 382.521562 
L 152.693352 177.252891 
L 144.559534 177.252891 
z
" clip-path="url(#p108de953da)" style="fill: #4682b4; opacity: 0.7; stroke: #ffffff; stroke-linejoin: miter"/>
   </g>
   <g id="patch_13">
    <path d="M 152.693352 382.521562 
L 160.82717 382.521562 
L 160.82717 147.244719 
L 152.693352 147.244719 
z
" clip-path="url(#p108de953da)" style="fill: #4682b4; opacity: 0.7; stroke: #ffffff; stroke-linejoin: miter"/>
   </g>
   <g id="patch_14">
    <path d="M 160.82717 382.521562 
L 168.960989 382.521562 
L 168.960989 131.282925 
L 160.82717 131.282925 
z
" clip-path="url(#p108de953da)" style="fill: #4682b4; opacity: 0.7; stroke: #ffffff; stroke-linejoin: miter"/>
   </g>
   <g id="patch_15">
    <path d="M 168.960989 382.521562 
L 177.094807 382.521562 
L 177.094807 102.551695 
L 168.960989 102.551695 
z
" clip-path="url(#p108de953da)" style="fill: #4682b4; opacity: 0.7; stroke: #ffffff; stroke-linejoin: miter"/>
   </g>
   <g id="patch_16">
    <path d="M 177.094807 382.521562 
L 185.228625 382.521562 
L 185.228625 76.693589 
L 177.094807 76.693589 
z
" clip-path="url(#p108de953da)" style="fill: #4682b4; opacity: 0.7; stroke: #ffffff; stroke-linejoin: miter"/>
   </g>
   <g id="patch_17">
    <path d="M 185.228625 382.521562 
L 193.362443 382.521562 
L 193.362443 68.393456 
L 185.228625 68.393456 
z
" clip-path="url(#p108de953da)" style="fill: #4682b4; opacity: 0.7; stroke: #ffffff; stroke-linejoin: miter"/>
   </g>
   <g id="patch_18">
    <path d="M 193.362443 382.521562 
L 201.496261 382.521562 
L 201.496261 62.008739 
L 193.362443 62.008739 
z
" clip-path="url(#p108de953da)" style="fill: #4682b4; opacity: 0.7; stroke: #ffffff; stroke-linejoin: miter"/>
   </g>
   <g id="patch_19">
    <path d="M 201.496261 382.521562 
L 209.63008 382.521562 
L 209.63008 66.478041 
L 201.496261 66.478041 
z
" clip-path="url(#p108de953da)" style="fill: #4682b4; opacity: 0.7; stroke: #ffffff; stroke-linejoin: miter"/>
   </g>
   <g id="patch_20">
    <path d="M 209.63008 382.521562 
L 217.763898 382.521562 
L 217.763898 53.070134 
L 209.63008 53.070134 
z
" clip-path="url(#p108de953da)" style="fill: #4682b4; opacity: 0.7; stroke: #ffffff; stroke-linejoin: miter"/>
   </g>
   <g id="patch_21">
    <path d="M 217.763898 382.521562 
L 225.897716 382.521562 
L 225.897716 80.843656 
L 217.763898 80.843656 
z
" clip-path="url(#p108de953da)" style="fill: #4682b4; opacity: 0.7; stroke: #ffffff; stroke-linejoin: miter"/>
   </g>
   <g id="patch_22">
    <path d="M 225.897716 382.521562 
L 234.031534 382.521562 
L 234.031534 76.055117 
L 225.897716 76.055117 
z
" clip-path="url(#p108de953da)" style="fill: #4682b4; opacity: 0.7; stroke: #ffffff; stroke-linejoin: miter"/>
   </g>
   <g id="patch_23">
    <path d="M 234.031534 382.521562 
L 242.165352 382.521562 
L 242.165352 104.467111 
L 234.031534 104.467111 
z
" clip-path="url(#p108de953da)" style="fill: #4682b4; opacity: 0.7; stroke: #ffffff; stroke-linejoin: miter"/>
   </g>
   <g id="patch_24">
    <path d="M 242.165352 382.521562 
L 250.29917 382.521562 
L 250.29917 116.91731 
L 242.165352 116.91731 
z
" clip-path="url(#p108de953da)" style="fill: #4682b4; opacity: 0.7; stroke: #ffffff; stroke-linejoin: miter"/>
   </g>
   <g id="patch_25">
    <path d="M 250.29917 382.521562 
L 258.432989 382.521562 
L 258.432989 137.02917 
L 250.29917 137.02917 
z
" clip-path="url(#p108de953da)" style="fill: #4682b4; opacity: 0.7; stroke: #ffffff; stroke-linejoin: miter"/>
   </g>
   <g id="patch_26">
    <path d="M 258.432989 382.521562 
L 266.566807 382.521562 
L 266.566807 136.709935 
L 258.432989 136.709935 
z
" clip-path="url(#p108de953da)" style="fill: #4682b4; opacity: 0.7; stroke: #ffffff; stroke-linejoin: miter"/>
   </g>
   <g id="patch_27">
    <path d="M 266.566807 382.521562 
L 274.700625 382.521562 
L 274.700625 169.271994 
L 266.566807 169.271994 
z
" clip-path="url(#p108de953da)" style="fill: #4682b4; opacity: 0.7; stroke: #ffffff; stroke-linejoin: miter"/>
   </g>
   <g id="patch_28">
    <path d="M 274.700625 382.521562 
L 282.834443 382.521562 
L 282.834443 181.402958 
L 274.700625 181.402958 
z
" clip-path="url(#p108de953da)" style="fill: #4682b4; opacity: 0.7; stroke: #ffffff; stroke-linejoin: miter"/>
   </g>
   <g id="patch_29">
    <path d="M 282.834443 382.521562 
L 290.968261 382.521562 
L 290.968261 198.960931 
L 282.834443 198.960931 
z
" clip-path="url(#p108de953da)" style="fill: #4682b4; opacity: 0.7; stroke: #ffffff; stroke-linejoin: miter"/>
   </g>
   <g id="patch_30">
    <path d="M 290.968261 382.521562 
L 299.10208 382.521562 
L 299.10208 217.157376 
L 290.968261 217.157376 
z
" clip-path="url(#p108de953da)" style="fill: #4682b4; opacity: 0.7; stroke: #ffffff; stroke-linejoin: miter"/>
   </g>
   <g id="patch_31">
    <path d="M 299.10208 382.521562 
L 307.235898 382.521562 
L 307.235898 229.28834 
L 299.10208 229.28834 
z
" clip-path="url(#p108de953da)" style="fill: #4682b4; opacity: 0.7; stroke: #ffffff; stroke-linejoin: miter"/>
   </g>
   <g id="patch_32">
    <path d="M 307.235898 382.521562 
L 315.369716 382.521562 
L 315.369716 262.808107 
L 307.235898 262.808107 
z
" clip-path="url(#p108de953da)" style="fill: #4682b4; opacity: 0.7; stroke: #ffffff; stroke-linejoin: miter"/>
   </g>
   <g id="patch_33">
    <path d="M 315.369716 382.521562 
L 323.503534 382.521562 
L 323.503534 276.53525 
L 315.369716 276.53525 
z
" clip-path="url(#p108de953da)" style="fill: #4682b4; opacity: 0.7; stroke: #ffffff; stroke-linejoin: miter"/>
   </g>
   <g id="patch_34">
    <path d="M 323.503534 382.521562 
L 331.637352 382.521562 
L 331.637352 297.604818 
L 323.503534 297.604818 
z
" clip-path="url(#p108de953da)" style="fill: #4682b4; opacity: 0.7; stroke: #ffffff; stroke-linejoin: miter"/>
   </g>
   <g id="patch_35">
    <path d="M 331.637352 382.521562 
L 339.77117 382.521562 
L 339.77117 308.139602 
L 331.637352 308.139602 
z
" clip-path="url(#p108de953da)" style="fill: #4682b4; opacity: 0.7; stroke: #ffffff; stroke-linejoin: miter"/>
   </g>
   <g id="patch_36">
    <path d="M 339.77117 382.521562 
L 347.904989 382.521562 
L 347.904989 328.570699 
L 339.77117 328.570699 
z
" clip-path="url(#p108de953da)" style="fill: #4682b4; opacity: 0.7; stroke: #ffffff; stroke-linejoin: miter"/>
   </g>
   <g id="patch_37">
    <path d="M 347.904989 382.521562 
L 356.038807 382.521562 
L 356.038807 332.082293 
L 347.904989 332.082293 
z
" clip-path="url(#p108de953da)" style="fill: #4682b4; opacity: 0.7; stroke: #ffffff; stroke-linejoin: miter"/>
   </g>
   <g id="patch_38">
    <path d="M 356.038807 382.521562 
L 364.172625 382.521562 
L 364.172625 341.340134 
L 356.038807 341.340134 
z
" clip-path="url(#p108de953da)" style="fill: #4682b4; opacity: 0.7; stroke: #ffffff; stroke-linejoin: miter"/>
   </g>
   <g id="patch_39">
    <path d="M 364.172625 382.521562 
L 372.306443 382.521562 
L 372.306443 350.597974 
L 364.172625 350.597974 
z
" clip-path="url(#p108de953da)" style="fill: #4682b4; opacity: 0.7; stroke: #ffffff; stroke-linejoin: miter"/>
   </g>
   <g id="patch_40">
    <path d="M 372.306443 382.521562 
L 380.440261 382.521562 
L 380.440261 363.36741 
L 372.306443 363.36741 
z
" clip-path="url(#p108de953da)" style="fill: #4682b4; opacity: 0.7; stroke: #ffffff; stroke-linejoin: miter"/>
   </g>
   <g id="patch_41">
    <path d="M 380.440261 382.521562 
L 388.57408 382.521562 
L 388.57408 363.048174 
L 380.440261 363.048174 
z
" clip-path="url(#p108de953da)" style="fill: #4682b4; opacity: 0.7; stroke: #ffffff; stroke-linejoin: miter"/>
   </g>
   <g id="patch_42">
    <path d="M 388.57408 382.521562 
L 396.707898 382.521562 
L 396.707898 371.029071 
L 388.57408 371.029071 
z
" clip-path="url(#p108de953da)" style="fill: #4682b4; opacity: 0.7; stroke: #ffffff; stroke-linejoin: miter"/>
   </g>
   <g id="patch_43">
    <path d="M 396.707898 382.521562 
L 404.841716 382.521562 
L 404.841716 368.79442 
L 396.707898 368.79442 
z
" clip-path="url(#p108de953da)" style="fill: #4682b4; opacity: 0.7; stroke: #ffffff; stroke-linejoin: miter"/>
   </g>
   <g id="patch_44">
    <path d="M 404.841716 382.521562 
L 412.975534 382.521562 
L 412.975534 375.179137 
L 404.841716 375.179137 
z
" clip-path="url(#p108de953da)" style="fill: #4682b4; opacity: 0.7; stroke: #ffffff; stroke-linejoin: miter"/>
   </g>
   <g id="patch_45">
    <path d="M 412.975534 382.521562 
L 421.109352 382.521562 
L 421.109352 377.413788 
L 412.975534 377.413788 
z
" clip-path="url(#p108de953da)" style="fill: #4682b4; opacity: 0.7; stroke: #ffffff; stroke-linejoin: miter"/>
   </g>
   <g id="patch_46">
    <path d="M 421.109352 382.521562 
L 429.24317 382.521562 
L 429.24317 378.371496 
L 421.109352 378.371496 
z
" clip-path="url(#p108de953da)" style="fill: #4682b4; opacity: 0.7; stroke: #ffffff; stroke-linejoin: miter"/>
   </g>
   <g id="patch_47">
    <path d="M 429.24317 382.521562 
L 437.376989 382.521562 
L 437.376989 379.329204 
L 429.24317 379.329204 
z
" clip-path="url(#p108de953da)" style="fill: #4682b4; opacity: 0.7; stroke: #ffffff; stroke-linejoin: miter"/>
   </g>
   <g id="patch_48">
    <path d="M 437.376989 382.521562 
L 445.510807 382.521562 
L 445.510807 379.64844 
L 437.376989 379.64844 
z
" clip-path="url(#p108de953da)" style="fill: #4682b4; opacity: 0.7; stroke: #ffffff; stroke-linejoin: miter"/>
   </g>
   <g id="patch_49">
    <path d="M 445.510807 382.521562 
L 453.644625 382.521562 
L 453.644625 380.606147 
L 445.510807 380.606147 
z
" clip-path="url(#p108de953da)" style="fill: #4682b4; opacity: 0.7; stroke: #ffffff; stroke-linejoin: miter"/>
   </g>
   <g id="patch_50">
    <path d="M 453.644625 382.521562 
L 461.778443 382.521562 
L 461.778443 382.202327 
L 453.644625 382.202327 
z
" clip-path="url(#p108de953da)" style="fill: #4682b4; opacity: 0.7; stroke: #ffffff; stroke-linejoin: miter"/>
   </g>
   <g id="patch_51">
    <path d="M 461.778443 382.521562 
L 469.912261 382.521562 
L 469.912261 382.521562 
L 461.778443 382.521562 
z
" clip-path="url(#p108de953da)" style="fill: #4682b4; opacity: 0.7; stroke: #ffffff; stroke-linejoin: miter"/>
   </g>
   <g id="patch_52">
    <path d="M 469.912261 382.521562 
L 478.04608 382.521562 
L 478.04608 381.883091 
L 469.912261 381.883091 
z
" clip-path="url(#p108de953da)" style="fill: #4682b4; opacity: 0.7; stroke: #ffffff; stroke-linejoin: miter"/>
   </g>
   <g id="patch_53">
    <path d="M 129.196789 382.521562 
L 333.745221 382.521562 
L 333.745221 36.597562 
L 129.196789 36.597562 
z
" clip-path="url(#p108de953da)" style="fill: #d3d3d3; opacity: 0.2; stroke: #d3d3d3; stroke-linejoin: miter"/>
   </g>
   <g id="line2d_23">
    <path d="M 223.586097 382.521562 
L 223.586097 36.597562 
" clip-path="url(#p108de953da)" style="fill: none; stroke: #000000; stroke-width: 2; stroke-linecap: round"/>
   </g>
   <g id="line2d_24">
    <path d="M 218.259398 382.521562 
L 218.259398 36.597562 
" clip-path="url(#p108de953da)" style="fill: none; stroke-dasharray: 7.4,3.2; stroke-dashoffset: 0; stroke: #ff0000; stroke-width: 2"/>
   </g>
   <g id="line2d_25">
    <path d="M 129.196789 382.521562 
L 129.196789 36.597562 
" clip-path="url(#p108de953da)" style="fill: none; stroke-dasharray: 2,3.3; stroke-dashoffset: 0; stroke: #808080; stroke-width: 2"/>
   </g>
   <g id="line2d_26">
    <path d="M 333.745221 382.521562 
L 333.745221 36.597562 
" clip-path="url(#p108de953da)" style="fill: none; stroke-dasharray: 2,3.3; stroke-dashoffset: 0; stroke: #808080; stroke-width: 2"/>
   </g>
   <g id="patch_54">
    <path d="M 51.020625 382.521562 
L 51.020625 36.597562 
" style="fill: none; stroke: #cccccc; stroke-linejoin: miter; stroke-linecap: square"/>
   </g>
   <g id="patch_55">
    <path d="M 498.380625 382.521562 
L 498.380625 36.597562 
" style="fill: none; stroke: #cccccc; stroke-linejoin: miter; stroke-linecap: square"/>
   </g>
   <g id="patch_56">
    <path d="M 51.020625 382.521562 
L 498.380625 382.521562 
" style="fill: none; stroke: #cccccc; stroke-linejoin: miter; stroke-linecap: square"/>
   </g>
   <g id="patch_57">
    <path d="M 51.020625 36.597562 
L 498.380625 36.597562 
" style="fill: none; stroke: #cccccc; stroke-linejoin: miter; stroke-linecap: square"/>
   </g>
   <g id="text_14">
    <!-- Uncertainty Distribution -->
    <g style="fill: #262626" transform="translate(207.510938 16.505156) scale(0.13 -0.13)">
     <defs>
      <path id="ArialMT-55" d="M 3500 4581 
L 4106 4581 
L 4106 1934 
Q 4106 1244 3950 837 
Q 3794 431 3386 176 
Q 2978 -78 2316 -78 
Q 1672 -78 1262 144 
Q 853 366 678 786 
Q 503 1206 503 1934 
L 503 4581 
L 1109 4581 
L 1109 1938 
Q 1109 1341 1220 1058 
Q 1331 775 1601 622 
Q 1872 469 2263 469 
Q 2931 469 3215 772 
Q 3500 1075 3500 1938 
L 3500 4581 
z
" transform="scale(0.015625)"/>
      <path id="ArialMT-63" d="M 2588 1216 
L 3141 1144 
Q 3050 572 2676 248 
Q 2303 -75 1759 -75 
Q 1078 -75 664 370 
Q 250 816 250 1647 
Q 250 2184 428 2587 
Q 606 2991 970 3192 
Q 1334 3394 1763 3394 
Q 2303 3394 2647 3120 
Q 2991 2847 3088 2344 
L 2541 2259 
Q 2463 2594 2264 2762 
Q 2066 2931 1784 2931 
Q 1359 2931 1093 2626 
Q 828 2322 828 1663 
Q 828 994 1084 691 
Q 1341 388 1753 388 
Q 2084 388 2306 591 
Q 2528 794 2588 1216 
z
" transform="scale(0.015625)"/>
     </defs>
     <use xlink:href="#ArialMT-55"/>
     <use xlink:href="#ArialMT-6e" transform="translate(72.216797 0)"/>
     <use xlink:href="#ArialMT-63" transform="translate(127.832031 0)"/>
     <use xlink:href="#ArialMT-65" transform="translate(177.832031 0)"/>
     <use xlink:href="#ArialMT-72" transform="translate(233.447266 0)"/>
     <use xlink:href="#ArialMT-74" transform="translate(266.748047 0)"/>
     <use xlink:href="#ArialMT-61" transform="translate(294.53125 0)"/>
     <use xlink:href="#ArialMT-69" transform="translate(350.146484 0)"/>
     <use xlink:href="#ArialMT-6e" transform="translate(372.363281 0)"/>
     <use xlink:href="#ArialMT-74" transform="translate(427.978516 0)"/>
     <use xlink:href="#ArialMT-79" transform="translate(455.761719 0)"/>
     <use xlink:href="#ArialMT-20" transform="translate(505.761719 0)"/>
     <use xlink:href="#ArialMT-44" transform="translate(533.544922 0)"/>
     <use xlink:href="#ArialMT-69" transform="translate(605.761719 0)"/>
     <use xlink:href="#ArialMT-73" transform="translate(627.978516 0)"/>
     <use xlink:href="#ArialMT-74" transform="translate(677.978516 0)"/>
     <use xlink:href="#ArialMT-72" transform="translate(705.761719 0)"/>
     <use xlink:href="#ArialMT-69" transform="translate(739.0625 0)"/>
     <use xlink:href="#ArialMT-62" transform="translate(761.279297 0)"/>
     <use xlink:href="#ArialMT-75" transform="translate(816.894531 0)"/>
     <use xlink:href="#ArialMT-74" transform="translate(872.509766 0)"/>
     <use xlink:href="#ArialMT-69" transform="translate(900.292969 0)"/>
     <use xlink:href="#ArialMT-6f" transform="translate(922.509766 0)"/>
     <use xlink:href="#ArialMT-6e" transform="translate(978.125 0)"/>
    </g>
    <!-- (σ = 3.6 years, range: 11.7 years) -->
    <g style="fill: #262626" transform="translate(178.502656 30.597562) scale(0.13 -0.13)">
     <defs>
      <path id="ArialMT-3c3" d="M 3809 3319 
L 3809 2863 
L 2906 2863 
Q 3322 2475 3322 1656 
Q 3322 766 2867 345 
Q 2413 -75 1763 -75 
Q 1088 -75 650 362 
Q 213 800 213 1659 
Q 213 2544 667 2969 
Q 1122 3394 1763 3394 
Q 1997 3394 2294 3319 
L 3809 3319 
z
M 1753 2928 
Q 1344 2928 1067 2609 
Q 791 2291 791 1656 
Q 791 1025 1061 706 
Q 1331 388 1763 388 
Q 2216 388 2483 720 
Q 2750 1053 2750 1659 
Q 2750 2213 2504 2570 
Q 2259 2928 1753 2928 
z
" transform="scale(0.015625)"/>
      <path id="ArialMT-3d" d="M 3381 2694 
L 356 2694 
L 356 3219 
L 3381 3219 
L 3381 2694 
z
M 3381 1303 
L 356 1303 
L 356 1828 
L 3381 1828 
L 3381 1303 
z
" transform="scale(0.015625)"/>
      <path id="ArialMT-2c" d="M 569 0 
L 569 641 
L 1209 641 
L 1209 0 
Q 1209 -353 1084 -570 
Q 959 -788 688 -906 
L 531 -666 
Q 709 -588 793 -436 
Q 878 -284 888 0 
L 569 0 
z
" transform="scale(0.015625)"/>
      <path id="ArialMT-3a" d="M 578 2678 
L 578 3319 
L 1219 3319 
L 1219 2678 
L 578 2678 
z
M 578 0 
L 578 641 
L 1219 641 
L 1219 0 
L 578 0 
z
" transform="scale(0.015625)"/>
      <path id="ArialMT-37" d="M 303 3981 
L 303 4522 
L 3269 4522 
L 3269 4084 
Q 2831 3619 2401 2847 
Q 1972 2075 1738 1259 
Q 1569 684 1522 0 
L 944 0 
Q 953 541 1156 1306 
Q 1359 2072 1739 2783 
Q 2119 3494 2547 3981 
L 303 3981 
z
" transform="scale(0.015625)"/>
     </defs>
     <use xlink:href="#ArialMT-28"/>
     <use xlink:href="#ArialMT-3c3" transform="translate(33.300781 0)"/>
     <use xlink:href="#ArialMT-20" transform="translate(95.019531 0)"/>
     <use xlink:href="#ArialMT-3d" transform="translate(122.802734 0)"/>
     <use xlink:href="#ArialMT-20" transform="translate(181.201172 0)"/>
     <use xlink:href="#ArialMT-33" transform="translate(208.984375 0)"/>
     <use xlink:href="#ArialMT-2e" transform="translate(264.599609 0)"/>
     <use xlink:href="#ArialMT-36" transform="translate(292.382812 0)"/>
     <use xlink:href="#ArialMT-20" transform="translate(347.998047 0)"/>
     <use xlink:href="#ArialMT-79" transform="translate(375.78125 0)"/>
     <use xlink:href="#ArialMT-65" transform="translate(425.78125 0)"/>
     <use xlink:href="#ArialMT-61" transform="translate(481.396484 0)"/>
     <use xlink:href="#ArialMT-72" transform="translate(537.011719 0)"/>
     <use xlink:href="#ArialMT-73" transform="translate(570.3125 0)"/>
     <use xlink:href="#ArialMT-2c" transform="translate(620.3125 0)"/>
     <use xlink:href="#ArialMT-20" transform="translate(648.095703 0)"/>
     <use xlink:href="#ArialMT-72" transform="translate(675.878906 0)"/>
     <use xlink:href="#ArialMT-61" transform="translate(709.179688 0)"/>
     <use xlink:href="#ArialMT-6e" transform="translate(764.794922 0)"/>
     <use xlink:href="#ArialMT-67" transform="translate(820.410156 0)"/>
     <use xlink:href="#ArialMT-65" transform="translate(876.025391 0)"/>
     <use xlink:href="#ArialMT-3a" transform="translate(931.640625 0)"/>
     <use xlink:href="#ArialMT-20" transform="translate(959.423828 0)"/>
     <use xlink:href="#ArialMT-31" transform="translate(987.207031 0)"/>
     <use xlink:href="#ArialMT-31" transform="translate(1035.447266 0)"/>
     <use xlink:href="#ArialMT-2e" transform="translate(1091.0625 0)"/>
     <use xlink:href="#ArialMT-37" transform="translate(1118.845703 0)"/>
     <use xlink:href="#ArialMT-20" transform="translate(1174.460938 0)"/>
     <use xlink:href="#ArialMT-79" transform="translate(1202.244141 0)"/>
     <use xlink:href="#ArialMT-65" transform="translate(1252.244141 0)"/>
     <use xlink:href="#ArialMT-61" transform="translate(1307.859375 0)"/>
     <use xlink:href="#ArialMT-72" transform="translate(1363.474609 0)"/>
     <use xlink:href="#ArialMT-73" transform="translate(1396.775391 0)"/>
     <use xlink:href="#ArialMT-29" transform="translate(1446.775391 0)"/>
    </g>
   </g>
   <g id="legend_1">
    <g id="line2d_27">
     <path d="M 328.054219 50.553812 
L 339.054219 50.553812 
L 350.054219 50.553812 
" style="fill: none; stroke: #000000; stroke-width: 2; stroke-linecap: round"/>
    </g>
    <g id="text_15">
     <!-- Mean: 16.8 years -->
     <g style="fill: #262626" transform="translate(358.854219 54.403812) scale(0.11 -0.11)">
      <defs>
       <path id="ArialMT-4d" d="M 475 0 
L 475 4581 
L 1388 4581 
L 2472 1338 
Q 2622 884 2691 659 
Q 2769 909 2934 1394 
L 4031 4581 
L 4847 4581 
L 4847 0 
L 4263 0 
L 4263 3834 
L 2931 0 
L 2384 0 
L 1059 3900 
L 1059 0 
L 475 0 
z
" transform="scale(0.015625)"/>
      </defs>
      <use xlink:href="#ArialMT-4d"/>
      <use xlink:href="#ArialMT-65" transform="translate(83.300781 0)"/>
      <use xlink:href="#ArialMT-61" transform="translate(138.916016 0)"/>
      <use xlink:href="#ArialMT-6e" transform="translate(194.53125 0)"/>
      <use xlink:href="#ArialMT-3a" transform="translate(250.146484 0)"/>
      <use xlink:href="#ArialMT-20" transform="translate(277.929688 0)"/>
      <use xlink:href="#ArialMT-31" transform="translate(305.712891 0)"/>
      <use xlink:href="#ArialMT-36" transform="translate(361.328125 0)"/>
      <use xlink:href="#ArialMT-2e" transform="translate(416.943359 0)"/>
      <use xlink:href="#ArialMT-38" transform="translate(444.726562 0)"/>
      <use xlink:href="#ArialMT-20" transform="translate(500.341797 0)"/>
      <use xlink:href="#ArialMT-79" transform="translate(528.125 0)"/>
      <use xlink:href="#ArialMT-65" transform="translate(578.125 0)"/>
      <use xlink:href="#ArialMT-61" transform="translate(633.740234 0)"/>
      <use xlink:href="#ArialMT-72" transform="translate(689.355469 0)"/>
      <use xlink:href="#ArialMT-73" transform="translate(722.65625 0)"/>
     </g>
    </g>
    <g id="line2d_28">
     <path d="M 328.054219 66.275219 
L 339.054219 66.275219 
L 350.054219 66.275219 
" style="fill: none; stroke-dasharray: 7.4,3.2; stroke-dashoffset: 0; stroke: #ff0000; stroke-width: 2"/>
    </g>
    <g id="text_16">
     <!-- Median: 16.5 years -->
     <g style="fill: #262626" transform="translate(358.854219 70.125219) scale(0.11 -0.11)">
      <defs>
       <path id="ArialMT-64" d="M 2575 0 
L 2575 419 
Q 2259 -75 1647 -75 
Q 1250 -75 917 144 
Q 584 363 401 755 
Q 219 1147 219 1656 
Q 219 2153 384 2558 
Q 550 2963 881 3178 
Q 1213 3394 1622 3394 
Q 1922 3394 2156 3267 
Q 2391 3141 2538 2938 
L 2538 4581 
L 3097 4581 
L 3097 0 
L 2575 0 
z
M 797 1656 
Q 797 1019 1065 703 
Q 1334 388 1700 388 
Q 2069 388 2326 689 
Q 2584 991 2584 1609 
Q 2584 2291 2321 2609 
Q 2059 2928 1675 2928 
Q 1300 2928 1048 2622 
Q 797 2316 797 1656 
z
" transform="scale(0.015625)"/>
      </defs>
      <use xlink:href="#ArialMT-4d"/>
      <use xlink:href="#ArialMT-65" transform="translate(83.300781 0)"/>
      <use xlink:href="#ArialMT-64" transform="translate(138.916016 0)"/>
      <use xlink:href="#ArialMT-69" transform="translate(194.53125 0)"/>
      <use xlink:href="#ArialMT-61" transform="translate(216.748047 0)"/>
      <use xlink:href="#ArialMT-6e" transform="translate(272.363281 0)"/>
      <use xlink:href="#ArialMT-3a" transform="translate(327.978516 0)"/>
      <use xlink:href="#ArialMT-20" transform="translate(355.761719 0)"/>
      <use xlink:href="#ArialMT-31" transform="translate(383.544922 0)"/>
      <use xlink:href="#ArialMT-36" transform="translate(439.160156 0)"/>
      <use xlink:href="#ArialMT-2e" transform="translate(494.775391 0)"/>
      <use xlink:href="#ArialMT-35" transform="translate(522.558594 0)"/>
      <use xlink:href="#ArialMT-20" transform="translate(578.173828 0)"/>
      <use xlink:href="#ArialMT-79" transform="translate(605.957031 0)"/>
      <use xlink:href="#ArialMT-65" transform="translate(655.957031 0)"/>
      <use xlink:href="#ArialMT-61" transform="translate(711.572266 0)"/>
      <use xlink:href="#ArialMT-72" transform="translate(767.1875 0)"/>
      <use xlink:href="#ArialMT-73" transform="translate(800.488281 0)"/>
     </g>
    </g>
    <g id="line2d_29">
     <path d="M 328.054219 81.996625 
L 339.054219 81.996625 
L 350.054219 81.996625 
" style="fill: none; stroke-dasharray: 2,3.3; stroke-dashoffset: 0; stroke: #808080; stroke-width: 2"/>
    </g>
    <g id="text_17">
     <!-- 5th percentile: 11.5 years -->
     <g style="fill: #262626" transform="translate(358.854219 85.846625) scale(0.11 -0.11)">
      <defs>
       <path id="ArialMT-70" d="M 422 -1272 
L 422 3319 
L 934 3319 
L 934 2888 
Q 1116 3141 1344 3267 
Q 1572 3394 1897 3394 
Q 2322 3394 2647 3175 
Q 2972 2956 3137 2557 
Q 3303 2159 3303 1684 
Q 3303 1175 3120 767 
Q 2938 359 2589 142 
Q 2241 -75 1856 -75 
Q 1575 -75 1351 44 
Q 1128 163 984 344 
L 984 -1272 
L 422 -1272 
z
M 931 1641 
Q 931 1000 1190 694 
Q 1450 388 1819 388 
Q 2194 388 2461 705 
Q 2728 1022 2728 1688 
Q 2728 2322 2467 2637 
Q 2206 2953 1844 2953 
Q 1484 2953 1207 2617 
Q 931 2281 931 1641 
z
" transform="scale(0.015625)"/>
      </defs>
      <use xlink:href="#ArialMT-35"/>
      <use xlink:href="#ArialMT-74" transform="translate(55.615234 0)"/>
      <use xlink:href="#ArialMT-68" transform="translate(83.398438 0)"/>
      <use xlink:href="#ArialMT-20" transform="translate(139.013672 0)"/>
      <use xlink:href="#ArialMT-70" transform="translate(166.796875 0)"/>
      <use xlink:href="#ArialMT-65" transform="translate(222.412109 0)"/>
      <use xlink:href="#ArialMT-72" transform="translate(278.027344 0)"/>
      <use xlink:href="#ArialMT-63" transform="translate(311.328125 0)"/>
      <use xlink:href="#ArialMT-65" transform="translate(361.328125 0)"/>
      <use xlink:href="#ArialMT-6e" transform="translate(416.943359 0)"/>
      <use xlink:href="#ArialMT-74" transform="translate(472.558594 0)"/>
      <use xlink:href="#ArialMT-69" transform="translate(500.341797 0)"/>
      <use xlink:href="#ArialMT-6c" transform="translate(522.558594 0)"/>
      <use xlink:href="#ArialMT-65" transform="translate(544.775391 0)"/>
      <use xlink:href="#ArialMT-3a" transform="translate(600.390625 0)"/>
      <use xlink:href="#ArialMT-20" transform="translate(628.173828 0)"/>
      <use xlink:href="#ArialMT-31" transform="translate(655.957031 0)"/>
      <use xlink:href="#ArialMT-31" transform="translate(704.197266 0)"/>
      <use xlink:href="#ArialMT-2e" transform="translate(759.8125 0)"/>
      <use xlink:href="#ArialMT-35" transform="translate(787.595703 0)"/>
      <use xlink:href="#ArialMT-20" transform="translate(843.210938 0)"/>
      <use xlink:href="#ArialMT-79" transform="translate(870.994141 0)"/>
      <use xlink:href="#ArialMT-65" transform="translate(920.994141 0)"/>
      <use xlink:href="#ArialMT-61" transform="translate(976.609375 0)"/>
      <use xlink:href="#ArialMT-72" transform="translate(1032.224609 0)"/>
      <use xlink:href="#ArialMT-73" transform="translate(1065.525391 0)"/>
     </g>
    </g>
    <g id="line2d_30">
     <path d="M 328.054219 97.718031 
L 339.054219 97.718031 
L 350.054219 97.718031 
" style="fill: none; stroke-dasharray: 2,3.3; stroke-dashoffset: 0; stroke: #808080; stroke-width: 2"/>
    </g>
    <g id="text_18">
     <!-- 95th percentile: 23.1 years -->
     <g style="fill: #262626" transform="translate(358.854219 101.568031) scale(0.11 -0.11)">
      <defs>
       <path id="ArialMT-39" d="M 350 1059 
L 891 1109 
Q 959 728 1153 556 
Q 1347 384 1650 384 
Q 1909 384 2104 503 
Q 2300 622 2425 820 
Q 2550 1019 2634 1356 
Q 2719 1694 2719 2044 
Q 2719 2081 2716 2156 
Q 2547 1888 2255 1720 
Q 1963 1553 1622 1553 
Q 1053 1553 659 1965 
Q 266 2378 266 3053 
Q 266 3750 677 4175 
Q 1088 4600 1706 4600 
Q 2153 4600 2523 4359 
Q 2894 4119 3086 3673 
Q 3278 3228 3278 2384 
Q 3278 1506 3087 986 
Q 2897 466 2520 194 
Q 2144 -78 1638 -78 
Q 1100 -78 759 220 
Q 419 519 350 1059 
z
M 2653 3081 
Q 2653 3566 2395 3850 
Q 2138 4134 1775 4134 
Q 1400 4134 1122 3828 
Q 844 3522 844 3034 
Q 844 2597 1108 2323 
Q 1372 2050 1759 2050 
Q 2150 2050 2401 2323 
Q 2653 2597 2653 3081 
z
" transform="scale(0.015625)"/>
      </defs>
      <use xlink:href="#ArialMT-39"/>
      <use xlink:href="#ArialMT-35" transform="translate(55.615234 0)"/>
      <use xlink:href="#ArialMT-74" transform="translate(111.230469 0)"/>
      <use xlink:href="#ArialMT-68" transform="translate(139.013672 0)"/>
      <use xlink:href="#ArialMT-20" transform="translate(194.628906 0)"/>
      <use xlink:href="#ArialMT-70" transform="translate(222.412109 0)"/>
      <use xlink:href="#ArialMT-65" transform="translate(278.027344 0)"/>
      <use xlink:href="#ArialMT-72" transform="translate(333.642578 0)"/>
      <use xlink:href="#ArialMT-63" transform="translate(366.943359 0)"/>
      <use xlink:href="#ArialMT-65" transform="translate(416.943359 0)"/>
      <use xlink:href="#ArialMT-6e" transform="translate(472.558594 0)"/>
      <use xlink:href="#ArialMT-74" transform="translate(528.173828 0)"/>
      <use xlink:href="#ArialMT-69" transform="translate(555.957031 0)"/>
      <use xlink:href="#ArialMT-6c" transform="translate(578.173828 0)"/>
      <use xlink:href="#ArialMT-65" transform="translate(600.390625 0)"/>
      <use xlink:href="#ArialMT-3a" transform="translate(656.005859 0)"/>
      <use xlink:href="#ArialMT-20" transform="translate(683.789062 0)"/>
      <use xlink:href="#ArialMT-32" transform="translate(711.572266 0)"/>
      <use xlink:href="#ArialMT-33" transform="translate(767.1875 0)"/>
      <use xlink:href="#ArialMT-2e" transform="translate(822.802734 0)"/>
      <use xlink:href="#ArialMT-31" transform="translate(850.585938 0)"/>
      <use xlink:href="#ArialMT-20" transform="translate(906.201172 0)"/>
      <use xlink:href="#ArialMT-79" transform="translate(933.984375 0)"/>
      <use xlink:href="#ArialMT-65" transform="translate(983.984375 0)"/>
      <use xlink:href="#ArialMT-61" transform="translate(1039.599609 0)"/>
      <use xlink:href="#ArialMT-72" transform="translate(1095.214844 0)"/>
      <use xlink:href="#ArialMT-73" transform="translate(1128.515625 0)"/>
     </g>
    </g>
    <g id="patch_58">
     <path d="M 328.054219 117.256781 
L 350.054219 117.256781 
L 350.054219 109.556781 
L 328.054219 109.556781 
z
" style="fill: #d3d3d3; opacity: 0.2; stroke: #d3d3d3; stroke-linejoin: miter"/>
    </g>
    <g id="text_19">
     <!-- 90% confidence interval -->
     <g style="fill: #262626" transform="translate(358.854219 117.256781) scale(0.11 -0.11)">
      <defs>
       <path id="ArialMT-25" d="M 372 3481 
Q 372 3972 619 4315 
Q 866 4659 1334 4659 
Q 1766 4659 2048 4351 
Q 2331 4044 2331 3447 
Q 2331 2866 2045 2552 
Q 1759 2238 1341 2238 
Q 925 2238 648 2547 
Q 372 2856 372 3481 
z
M 1350 4272 
Q 1141 4272 1002 4090 
Q 863 3909 863 3425 
Q 863 2984 1003 2804 
Q 1144 2625 1350 2625 
Q 1563 2625 1702 2806 
Q 1841 2988 1841 3469 
Q 1841 3913 1700 4092 
Q 1559 4272 1350 4272 
z
M 1353 -169 
L 3859 4659 
L 4316 4659 
L 1819 -169 
L 1353 -169 
z
M 3334 1075 
Q 3334 1569 3581 1911 
Q 3828 2253 4300 2253 
Q 4731 2253 5014 1945 
Q 5297 1638 5297 1041 
Q 5297 459 5011 145 
Q 4725 -169 4303 -169 
Q 3888 -169 3611 142 
Q 3334 453 3334 1075 
z
M 4316 1866 
Q 4103 1866 3964 1684 
Q 3825 1503 3825 1019 
Q 3825 581 3965 400 
Q 4106 219 4313 219 
Q 4528 219 4667 400 
Q 4806 581 4806 1063 
Q 4806 1506 4665 1686 
Q 4525 1866 4316 1866 
z
" transform="scale(0.015625)"/>
       <path id="ArialMT-66" d="M 556 0 
L 556 2881 
L 59 2881 
L 59 3319 
L 556 3319 
L 556 3672 
Q 556 4006 616 4169 
Q 697 4388 901 4523 
Q 1106 4659 1475 4659 
Q 1713 4659 2000 4603 
L 1916 4113 
Q 1741 4144 1584 4144 
Q 1328 4144 1222 4034 
Q 1116 3925 1116 3625 
L 1116 3319 
L 1763 3319 
L 1763 2881 
L 1116 2881 
L 1116 0 
L 556 0 
z
" transform="scale(0.015625)"/>
       <path id="ArialMT-76" d="M 1344 0 
L 81 3319 
L 675 3319 
L 1388 1331 
Q 1503 1009 1600 663 
Q 1675 925 1809 1294 
L 2547 3319 
L 3125 3319 
L 1869 0 
L 1344 0 
z
" transform="scale(0.015625)"/>
      </defs>
      <use xlink:href="#ArialMT-39"/>
      <use xlink:href="#ArialMT-30" transform="translate(55.615234 0)"/>
      <use xlink:href="#ArialMT-25" transform="translate(111.230469 0)"/>
      <use xlink:href="#ArialMT-20" transform="translate(200.146484 0)"/>
      <use xlink:href="#ArialMT-63" transform="translate(227.929688 0)"/>
      <use xlink:href="#ArialMT-6f" transform="translate(277.929688 0)"/>
      <use xlink:href="#ArialMT-6e" transform="translate(333.544922 0)"/>
      <use xlink:href="#ArialMT-66" transform="translate(389.160156 0)"/>
      <use xlink:href="#ArialMT-69" transform="translate(416.943359 0)"/>
      <use xlink:href="#ArialMT-64" transform="translate(439.160156 0)"/>
      <use xlink:href="#ArialMT-65" transform="translate(494.775391 0)"/>
      <use xlink:href="#ArialMT-6e" transform="translate(550.390625 0)"/>
      <use xlink:href="#ArialMT-63" transform="translate(606.005859 0)"/>
      <use xlink:href="#ArialMT-65" transform="translate(656.005859 0)"/>
      <use xlink:href="#ArialMT-20" transform="translate(711.621094 0)"/>
      <use xlink:href="#ArialMT-69" transform="translate(739.404297 0)"/>
      <use xlink:href="#ArialMT-6e" transform="translate(761.621094 0)"/>
      <use xlink:href="#ArialMT-74" transform="translate(817.236328 0)"/>
      <use xlink:href="#ArialMT-65" transform="translate(845.019531 0)"/>
      <use xlink:href="#ArialMT-72" transform="translate(900.634766 0)"/>
      <use xlink:href="#ArialMT-76" transform="translate(933.935547 0)"/>
      <use xlink:href="#ArialMT-61" transform="translate(983.935547 0)"/>
      <use xlink:href="#ArialMT-6c" transform="translate(1039.550781 0)"/>
     </g>
    </g>
   </g>
  </g>
  <g id="axes_2">
   <g id="patch_59">
    <path d="M 546.290625 382.521562 
L 993.650625 382.521562 
L 993.650625 36.597562 
L 546.290625 36.597562 
z
" style="fill: #ffffff"/>
   </g>
   <g id="matplotlib.axis_3">
    <g id="xtick_6">
     <g id="line2d_31">
      <path d="M 585.111121 382.521562 
L 585.111121 36.597562 
" clip-path="url(#p6c6d0a50ac)" style="fill: none; stroke: #cccccc; stroke-opacity: 0.3; stroke-width: 0.8; stroke-linecap: round"/>
     </g>
     <g id="line2d_32"/>
     <g id="text_20">
      <!-- $M$ -->
      <g style="fill: #262626" transform="translate(579.891121 394.610937) scale(0.12 -0.12)">
       <defs>
        <path id="DejaVuSans-Oblique-4d" d="M 1081 4666 
L 2028 4666 
L 2572 1522 
L 4378 4666 
L 5350 4666 
L 4441 0 
L 3828 0 
L 4622 4091 
L 2791 897 
L 2175 897 
L 1581 4103 
L 788 0 
L 172 0 
L 1081 4666 
z
" transform="scale(0.015625)"/>
       </defs>
       <use xlink:href="#DejaVuSans-Oblique-4d" transform="translate(0 0.09375)"/>
      </g>
     </g>
    </g>
    <g id="xtick_7">
     <g id="line2d_33">
      <path d="M 637.928122 382.521562 
L 637.928122 36.597562 
" clip-path="url(#p6c6d0a50ac)" style="fill: none; stroke: #cccccc; stroke-opacity: 0.3; stroke-width: 0.8; stroke-linecap: round"/>
     </g>
     <g id="line2d_34"/>
     <g id="text_21">
      <!-- $a$ -->
      <g style="fill: #262626" transform="translate(634.208122 394.610937) scale(0.12 -0.12)">
       <defs>
        <path id="DejaVuSans-Oblique-61" d="M 3438 1997 
L 3047 0 
L 2472 0 
L 2578 531 
Q 2325 219 2001 64 
Q 1678 -91 1281 -91 
Q 834 -91 548 182 
Q 263 456 263 884 
Q 263 1497 752 1853 
Q 1241 2209 2100 2209 
L 2900 2209 
L 2931 2363 
Q 2938 2388 2941 2417 
Q 2944 2447 2944 2509 
Q 2944 2788 2717 2942 
Q 2491 3097 2081 3097 
Q 1800 3097 1504 3025 
Q 1209 2953 897 2809 
L 997 3341 
Q 1322 3463 1633 3523 
Q 1944 3584 2234 3584 
Q 2853 3584 3176 3315 
Q 3500 3047 3500 2534 
Q 3500 2431 3484 2292 
Q 3469 2153 3438 1997 
z
M 2816 1759 
L 2241 1759 
Q 1534 1759 1195 1570 
Q 856 1381 856 984 
Q 856 709 1029 553 
Q 1203 397 1509 397 
Q 1978 397 2328 733 
Q 2678 1069 2791 1631 
L 2816 1759 
z
" transform="scale(0.015625)"/>
       </defs>
       <use xlink:href="#DejaVuSans-Oblique-61"/>
      </g>
     </g>
    </g>
    <g id="xtick_8">
     <g id="line2d_35">
      <path d="M 690.745123 382.521562 
L 690.745123 36.597562 
" clip-path="url(#p6c6d0a50ac)" style="fill: none; stroke: #cccccc; stroke-opacity: 0.3; stroke-width: 0.8; stroke-linecap: round"/>
     </g>
     <g id="line2d_36"/>
     <g id="text_22">
      <!-- $Q$ -->
      <g style="fill: #262626" transform="translate(686.005123 394.610937) scale(0.12 -0.12)">
       <defs>
        <path id="DejaVuSans-Oblique-51" d="M 2309 -84 
Q 2275 -88 2237 -89 
Q 2200 -91 2125 -91 
Q 1250 -91 756 411 
Q 263 913 263 1797 
Q 263 2319 452 2844 
Q 641 3369 978 3788 
Q 1369 4269 1858 4509 
Q 2347 4750 2938 4750 
Q 3794 4750 4287 4245 
Q 4781 3741 4781 2869 
Q 4781 1928 4265 1147 
Q 3750 366 2919 44 
L 3553 -825 
L 2847 -825 
L 2309 -84 
z
M 2919 4238 
Q 2400 4238 2003 3986 
Q 1606 3734 1313 3219 
Q 1125 2891 1026 2522 
Q 928 2153 928 1778 
Q 928 1128 1239 775 
Q 1550 422 2119 422 
Q 2631 422 3032 676 
Q 3434 931 3719 1434 
Q 3909 1772 4009 2142 
Q 4109 2513 4109 2881 
Q 4109 3528 3796 3883 
Q 3484 4238 2919 4238 
z
" transform="scale(0.015625)"/>
       </defs>
       <use xlink:href="#DejaVuSans-Oblique-51" transform="translate(0 0.78125)"/>
      </g>
     </g>
    </g>
    <g id="xtick_9">
     <g id="line2d_37">
      <path d="M 743.562124 382.521562 
L 743.562124 36.597562 
" clip-path="url(#p6c6d0a50ac)" style="fill: none; stroke: #cccccc; stroke-opacity: 0.3; stroke-width: 0.8; stroke-linecap: round"/>
     </g>
     <g id="line2d_38"/>
     <g id="text_23">
      <!-- $\varphi$ -->
      <g style="fill: #262626" transform="translate(739.602124 394.475937) scale(0.12 -0.12)">
       <defs>
        <path id="DejaVuSans-Oblique-3c6" d="M 2969 3034 
Q 2766 3034 2675 2581 
L 2259 438 
Q 2553 438 2916 763 
Q 3244 1053 3375 1750 
Q 3497 2400 3300 2750 
Q 3138 3034 2969 3034 
z
M 3063 3525 
Q 3513 3525 3819 3113 
Q 4147 2672 3981 1750 
Q 3828 903 3291 400 
Q 2784 -75 2159 -75 
L 1916 -1331 
L 1344 -1331 
L 1588 -78 
Q 963 -78 641 400 
Q 309 888 475 1747 
Q 647 2641 1166 3097 
Q 1556 3438 2084 3525 
L 1984 3016 
Q 1766 2944 1538 2700 
Q 1194 2341 1081 1747 
Q 963 1116 1156 756 
Q 1334 434 1688 434 
L 2103 2581 
Q 2288 3525 3063 3525 
z
" transform="scale(0.015625)"/>
       </defs>
       <use xlink:href="#DejaVuSans-Oblique-3c6" transform="translate(0 0.921875)"/>
      </g>
     </g>
    </g>
    <g id="xtick_10">
     <g id="line2d_39">
      <path d="M 796.379126 382.521562 
L 796.379126 36.597562 
" clip-path="url(#p6c6d0a50ac)" style="fill: none; stroke: #cccccc; stroke-opacity: 0.3; stroke-width: 0.8; stroke-linecap: round"/>
     </g>
     <g id="line2d_40"/>
     <g id="text_24">
      <!-- $\rho_F$ -->
      <g style="fill: #262626" transform="translate(789.959126 394.475937) scale(0.12 -0.12)">
       <defs>
        <path id="DejaVuSans-Oblique-3c1" d="M 1203 2875 
Q 1453 3194 1981 3475 
Q 2188 3584 2756 3584 
Q 3394 3584 3694 3078 
Q 3994 2572 3834 1747 
Q 3672 922 3175 415 
Q 2678 -91 2041 -91 
Q 1656 -91 1409 63 
Q 1163 213 1044 525 
L 681 -1331 
L 103 -1331 
L 697 1716 
Q 838 2438 1203 2875 
z
M 3238 1747 
Q 3359 2381 3169 2744 
Q 2978 3103 2522 3103 
Q 2066 3103 1734 2744 
Q 1403 2381 1281 1747 
Q 1156 1113 1347 750 
Q 1538 391 1994 391 
Q 2450 391 2781 750 
Q 3113 1113 3238 1747 
z
" transform="scale(0.015625)"/>
        <path id="DejaVuSans-Oblique-46" d="M 1081 4666 
L 3756 4666 
L 3653 4134 
L 1606 4134 
L 1338 2759 
L 3188 2759 
L 3084 2228 
L 1234 2228 
L 800 0 
L 172 0 
L 1081 4666 
z
" transform="scale(0.015625)"/>
       </defs>
       <use xlink:href="#DejaVuSans-Oblique-3c1"/>
       <use xlink:href="#DejaVuSans-Oblique-46" transform="translate(63.476562 -16.40625) scale(0.7)"/>
      </g>
     </g>
    </g>
    <g id="xtick_11">
     <g id="line2d_41">
      <path d="M 849.196127 382.521562 
L 849.196127 36.597562 
" clip-path="url(#p6c6d0a50ac)" style="fill: none; stroke: #cccccc; stroke-opacity: 0.3; stroke-width: 0.8; stroke-linecap: round"/>
     </g>
     <g id="line2d_42"/>
     <g id="text_25">
      <!-- $c_F$ -->
      <g style="fill: #262626" transform="translate(843.316127 394.610937) scale(0.12 -0.12)">
       <defs>
        <path id="DejaVuSans-Oblique-63" d="M 3431 3366 
L 3316 2797 
Q 3109 2947 2876 3022 
Q 2644 3097 2394 3097 
Q 2119 3097 1870 3000 
Q 1622 2903 1453 2725 
Q 1184 2453 1037 2087 
Q 891 1722 891 1331 
Q 891 859 1127 628 
Q 1363 397 1844 397 
Q 2081 397 2348 469 
Q 2616 541 2906 684 
L 2797 116 
Q 2547 13 2283 -39 
Q 2019 -91 1741 -91 
Q 1044 -91 669 257 
Q 294 606 294 1253 
Q 294 1797 489 2255 
Q 684 2713 1069 3078 
Q 1331 3328 1684 3456 
Q 2038 3584 2456 3584 
Q 2700 3584 2940 3529 
Q 3181 3475 3431 3366 
z
" transform="scale(0.015625)"/>
       </defs>
       <use xlink:href="#DejaVuSans-Oblique-63"/>
       <use xlink:href="#DejaVuSans-Oblique-46" transform="translate(54.980469 -16.40625) scale(0.7)"/>
      </g>
     </g>
    </g>
    <g id="xtick_12">
     <g id="line2d_43">
      <path d="M 902.013128 382.521562 
L 902.013128 36.597562 
" clip-path="url(#p6c6d0a50ac)" style="fill: none; stroke: #cccccc; stroke-opacity: 0.3; stroke-width: 0.8; stroke-linecap: round"/>
     </g>
     <g id="line2d_44"/>
     <g id="text_26">
      <!-- $\rho_S$ -->
      <g style="fill: #262626" transform="translate(895.353128 394.475937) scale(0.12 -0.12)">
       <defs>
        <path id="DejaVuSans-Oblique-53" d="M 3859 4513 
L 3738 3897 
Q 3422 4066 3111 4152 
Q 2800 4238 2509 4238 
Q 1944 4238 1609 3991 
Q 1275 3744 1275 3334 
Q 1275 3109 1398 2989 
Q 1522 2869 2034 2731 
L 2413 2638 
Q 3053 2472 3303 2217 
Q 3553 1963 3553 1503 
Q 3553 797 2998 353 
Q 2444 -91 1538 -91 
Q 1166 -91 791 -17 
Q 416 56 38 206 
L 166 856 
Q 513 641 861 531 
Q 1209 422 1556 422 
Q 2147 422 2503 684 
Q 2859 947 2859 1369 
Q 2859 1650 2717 1795 
Q 2575 1941 2106 2059 
L 1728 2156 
Q 1081 2325 845 2545 
Q 609 2766 609 3163 
Q 609 3859 1145 4304 
Q 1681 4750 2541 4750 
Q 2875 4750 3203 4690 
Q 3531 4631 3859 4513 
z
" transform="scale(0.015625)"/>
       </defs>
       <use xlink:href="#DejaVuSans-Oblique-3c1"/>
       <use xlink:href="#DejaVuSans-Oblique-53" transform="translate(63.476562 -16.40625) scale(0.7)"/>
      </g>
     </g>
    </g>
    <g id="xtick_13">
     <g id="line2d_45">
      <path d="M 954.830129 382.521562 
L 954.830129 36.597562 
" clip-path="url(#p6c6d0a50ac)" style="fill: none; stroke: #cccccc; stroke-opacity: 0.3; stroke-width: 0.8; stroke-linecap: round"/>
     </g>
     <g id="line2d_46"/>
     <g id="text_27">
      <!-- $c_S$ -->
      <g style="fill: #262626" transform="translate(948.650129 394.610937) scale(0.12 -0.12)">
       <use xlink:href="#DejaVuSans-Oblique-63"/>
       <use xlink:href="#DejaVuSans-Oblique-53" transform="translate(54.980469 -16.40625) scale(0.7)"/>
      </g>
     </g>
    </g>
    <g id="text_28">
     <!-- Parameter -->
     <g style="fill: #262626" transform="translate(737.29375 411.016875) scale(0.14 -0.14)">
      <use xlink:href="#ArialMT-50"/>
      <use xlink:href="#ArialMT-61" transform="translate(66.699219 0)"/>
      <use xlink:href="#ArialMT-72" transform="translate(122.314453 0)"/>
      <use xlink:href="#ArialMT-61" transform="translate(155.615234 0)"/>
      <use xlink:href="#ArialMT-6d" transform="translate(211.230469 0)"/>
      <use xlink:href="#ArialMT-65" transform="translate(294.53125 0)"/>
      <use xlink:href="#ArialMT-74" transform="translate(350.146484 0)"/>
      <use xlink:href="#ArialMT-65" transform="translate(377.929688 0)"/>
      <use xlink:href="#ArialMT-72" transform="translate(433.544922 0)"/>
     </g>
    </g>
   </g>
   <g id="matplotlib.axis_4">
    <g id="ytick_7">
     <g id="line2d_47">
      <path d="M 546.290625 382.521562 
L 993.650625 382.521562 
" clip-path="url(#p6c6d0a50ac)" style="fill: none; stroke: #cccccc; stroke-opacity: 0.3; stroke-width: 0.8; stroke-linecap: round"/>
     </g>
     <g id="line2d_48"/>
     <g id="text_29">
      <!-- 0.0 -->
      <g style="fill: #262626" transform="translate(526.110625 386.81625) scale(0.12 -0.12)">
       <use xlink:href="#ArialMT-30"/>
       <use xlink:href="#ArialMT-2e" transform="translate(55.615234 0)"/>
       <use xlink:href="#ArialMT-30" transform="translate(83.398438 0)"/>
      </g>
     </g>
    </g>
    <g id="ytick_8">
     <g id="line2d_49">
      <path d="M 546.290625 312.297456 
L 993.650625 312.297456 
" clip-path="url(#p6c6d0a50ac)" style="fill: none; stroke: #cccccc; stroke-opacity: 0.3; stroke-width: 0.8; stroke-linecap: round"/>
     </g>
     <g id="line2d_50"/>
     <g id="text_30">
      <!-- 0.1 -->
      <g style="fill: #262626" transform="translate(526.110625 316.592143) scale(0.12 -0.12)">
       <use xlink:href="#ArialMT-30"/>
       <use xlink:href="#ArialMT-2e" transform="translate(55.615234 0)"/>
       <use xlink:href="#ArialMT-31" transform="translate(83.398438 0)"/>
      </g>
     </g>
    </g>
    <g id="ytick_9">
     <g id="line2d_51">
      <path d="M 546.290625 242.073349 
L 993.650625 242.073349 
" clip-path="url(#p6c6d0a50ac)" style="fill: none; stroke: #cccccc; stroke-opacity: 0.3; stroke-width: 0.8; stroke-linecap: round"/>
     </g>
     <g id="line2d_52"/>
     <g id="text_31">
      <!-- 0.2 -->
      <g style="fill: #262626" transform="translate(526.110625 246.368036) scale(0.12 -0.12)">
       <use xlink:href="#ArialMT-30"/>
       <use xlink:href="#ArialMT-2e" transform="translate(55.615234 0)"/>
       <use xlink:href="#ArialMT-32" transform="translate(83.398438 0)"/>
      </g>
     </g>
    </g>
    <g id="ytick_10">
     <g id="line2d_53">
      <path d="M 546.290625 171.849242 
L 993.650625 171.849242 
" clip-path="url(#p6c6d0a50ac)" style="fill: none; stroke: #cccccc; stroke-opacity: 0.3; stroke-width: 0.8; stroke-linecap: round"/>
     </g>
     <g id="line2d_54"/>
     <g id="text_32">
      <!-- 0.3 -->
      <g style="fill: #262626" transform="translate(526.110625 176.14393) scale(0.12 -0.12)">
       <use xlink:href="#ArialMT-30"/>
       <use xlink:href="#ArialMT-2e" transform="translate(55.615234 0)"/>
       <use xlink:href="#ArialMT-33" transform="translate(83.398438 0)"/>
      </g>
     </g>
    </g>
    <g id="ytick_11">
     <g id="line2d_55">
      <path d="M 546.290625 101.625135 
L 993.650625 101.625135 
" clip-path="url(#p6c6d0a50ac)" style="fill: none; stroke: #cccccc; stroke-opacity: 0.3; stroke-width: 0.8; stroke-linecap: round"/>
     </g>
     <g id="line2d_56"/>
     <g id="text_33">
      <!-- 0.4 -->
      <g style="fill: #262626" transform="translate(526.110625 105.919823) scale(0.12 -0.12)">
       <use xlink:href="#ArialMT-30"/>
       <use xlink:href="#ArialMT-2e" transform="translate(55.615234 0)"/>
       <use xlink:href="#ArialMT-34" transform="translate(83.398438 0)"/>
      </g>
     </g>
    </g>
    <g id="text_34">
     <!-- Sensitivity Index -->
     <g style="fill: #262626" transform="translate(519.164062 260.13675) rotate(-90) scale(0.14 -0.14)">
      <defs>
       <path id="ArialMT-53" d="M 288 1472 
L 859 1522 
Q 900 1178 1048 958 
Q 1197 738 1509 602 
Q 1822 466 2213 466 
Q 2559 466 2825 569 
Q 3091 672 3220 851 
Q 3350 1031 3350 1244 
Q 3350 1459 3225 1620 
Q 3100 1781 2813 1891 
Q 2628 1963 1997 2114 
Q 1366 2266 1113 2400 
Q 784 2572 623 2826 
Q 463 3081 463 3397 
Q 463 3744 659 4045 
Q 856 4347 1234 4503 
Q 1613 4659 2075 4659 
Q 2584 4659 2973 4495 
Q 3363 4331 3572 4012 
Q 3781 3694 3797 3291 
L 3216 3247 
Q 3169 3681 2898 3903 
Q 2628 4125 2100 4125 
Q 1550 4125 1298 3923 
Q 1047 3722 1047 3438 
Q 1047 3191 1225 3031 
Q 1400 2872 2139 2705 
Q 2878 2538 3153 2413 
Q 3553 2228 3743 1945 
Q 3934 1663 3934 1294 
Q 3934 928 3725 604 
Q 3516 281 3123 101 
Q 2731 -78 2241 -78 
Q 1619 -78 1198 103 
Q 778 284 539 648 
Q 300 1013 288 1472 
z
" transform="scale(0.015625)"/>
       <path id="ArialMT-49" d="M 597 0 
L 597 4581 
L 1203 4581 
L 1203 0 
L 597 0 
z
" transform="scale(0.015625)"/>
       <path id="ArialMT-78" d="M 47 0 
L 1259 1725 
L 138 3319 
L 841 3319 
L 1350 2541 
Q 1494 2319 1581 2169 
Q 1719 2375 1834 2534 
L 2394 3319 
L 3066 3319 
L 1919 1756 
L 3153 0 
L 2463 0 
L 1781 1031 
L 1600 1309 
L 728 0 
L 47 0 
z
" transform="scale(0.015625)"/>
      </defs>
      <use xlink:href="#ArialMT-53"/>
      <use xlink:href="#ArialMT-65" transform="translate(66.699219 0)"/>
      <use xlink:href="#ArialMT-6e" transform="translate(122.314453 0)"/>
      <use xlink:href="#ArialMT-73" transform="translate(177.929688 0)"/>
      <use xlink:href="#ArialMT-69" transform="translate(227.929688 0)"/>
      <use xlink:href="#ArialMT-74" transform="translate(250.146484 0)"/>
      <use xlink:href="#ArialMT-69" transform="translate(277.929688 0)"/>
      <use xlink:href="#ArialMT-76" transform="translate(300.146484 0)"/>
      <use xlink:href="#ArialMT-69" transform="translate(350.146484 0)"/>
      <use xlink:href="#ArialMT-74" transform="translate(372.363281 0)"/>
      <use xlink:href="#ArialMT-79" transform="translate(400.146484 0)"/>
      <use xlink:href="#ArialMT-20" transform="translate(450.146484 0)"/>
      <use xlink:href="#ArialMT-49" transform="translate(477.929688 0)"/>
      <use xlink:href="#ArialMT-6e" transform="translate(505.712891 0)"/>
      <use xlink:href="#ArialMT-64" transform="translate(561.328125 0)"/>
      <use xlink:href="#ArialMT-65" transform="translate(616.943359 0)"/>
      <use xlink:href="#ArialMT-78" transform="translate(672.558594 0)"/>
     </g>
    </g>
   </g>
   <g id="patch_60">
    <path d="M 566.62517 382.521562 
L 585.111121 382.521562 
L 585.111121 237.957748 
L 566.62517 237.957748 
z
" clip-path="url(#p6c6d0a50ac)" style="fill: #4682b4; opacity: 0.85"/>
   </g>
   <g id="patch_61">
    <path d="M 619.442172 382.521562 
L 637.928122 382.521562 
L 637.928122 374.409556 
L 619.442172 374.409556 
z
" clip-path="url(#p6c6d0a50ac)" style="fill: #4682b4; opacity: 0.85"/>
   </g>
   <g id="patch_62">
    <path d="M 672.259173 382.521562 
L 690.745123 382.521562 
L 690.745123 236.255757 
L 672.259173 236.255757 
z
" clip-path="url(#p6c6d0a50ac)" style="fill: #4682b4; opacity: 0.85"/>
   </g>
   <g id="patch_63">
    <path d="M 725.076174 382.521562 
L 743.562124 382.521562 
L 743.562124 345.638219 
L 725.076174 345.638219 
z
" clip-path="url(#p6c6d0a50ac)" style="fill: #4682b4; opacity: 0.85"/>
   </g>
   <g id="patch_64">
    <path d="M 777.893175 382.521562 
L 796.379126 382.521562 
L 796.379126 363.41712 
L 777.893175 363.41712 
z
" clip-path="url(#p6c6d0a50ac)" style="fill: #4682b4; opacity: 0.85"/>
   </g>
   <g id="patch_65">
    <path d="M 830.710176 382.521562 
L 849.196127 382.521562 
L 849.196127 382.234659 
L 830.710176 382.234659 
z
" clip-path="url(#p6c6d0a50ac)" style="fill: #4682b4; opacity: 0.85"/>
   </g>
   <g id="patch_66">
    <path d="M 883.527178 382.521562 
L 902.013128 382.521562 
L 902.013128 375.143065 
L 883.527178 375.143065 
z
" clip-path="url(#p6c6d0a50ac)" style="fill: #4682b4; opacity: 0.85"/>
   </g>
   <g id="patch_67">
    <path d="M 936.344179 382.521562 
L 954.830129 382.521562 
L 954.830129 70.016445 
L 936.344179 70.016445 
z
" clip-path="url(#p6c6d0a50ac)" style="fill: #4682b4; opacity: 0.85"/>
   </g>
   <g id="patch_68">
    <path d="M 585.111121 382.521562 
L 603.597071 382.521562 
L 603.597071 234.019666 
L 585.111121 234.019666 
z
" clip-path="url(#p6c6d0a50ac)" style="fill: #3cb371; opacity: 0.85"/>
   </g>
   <g id="patch_69">
    <path d="M 637.928122 382.521562 
L 656.414072 382.521562 
L 656.414072 373.797699 
L 637.928122 373.797699 
z
" clip-path="url(#p6c6d0a50ac)" style="fill: #3cb371; opacity: 0.85"/>
   </g>
   <g id="patch_70">
    <path d="M 690.745123 382.521562 
L 709.231074 382.521562 
L 709.231074 231.131541 
L 690.745123 231.131541 
z
" clip-path="url(#p6c6d0a50ac)" style="fill: #3cb371; opacity: 0.85"/>
   </g>
   <g id="patch_71">
    <path d="M 743.562124 382.521562 
L 762.048075 382.521562 
L 762.048075 344.704459 
L 743.562124 344.704459 
z
" clip-path="url(#p6c6d0a50ac)" style="fill: #3cb371; opacity: 0.85"/>
   </g>
   <g id="patch_72">
    <path d="M 796.379126 382.521562 
L 814.865076 382.521562 
L 814.865076 356.237953 
L 796.379126 356.237953 
z
" clip-path="url(#p6c6d0a50ac)" style="fill: #3cb371; opacity: 0.85"/>
   </g>
   <g id="patch_73">
    <path d="M 849.196127 382.521562 
L 867.682077 382.521562 
L 867.682077 380.807702 
L 849.196127 380.807702 
z
" clip-path="url(#p6c6d0a50ac)" style="fill: #3cb371; opacity: 0.85"/>
   </g>
   <g id="patch_74">
    <path d="M 902.013128 382.521562 
L 920.499078 382.521562 
L 920.499078 372.761166 
L 902.013128 372.761166 
z
" clip-path="url(#p6c6d0a50ac)" style="fill: #3cb371; opacity: 0.85"/>
   </g>
   <g id="patch_75">
    <path d="M 954.830129 382.521562 
L 973.31608 382.521562 
L 973.31608 53.070134 
L 954.830129 53.070134 
z
" clip-path="url(#p6c6d0a50ac)" style="fill: #3cb371; opacity: 0.85"/>
   </g>
   <g id="patch_76">
    <path d="M 546.290625 382.521562 
L 546.290625 36.597562 
" style="fill: none; stroke: #cccccc; stroke-linejoin: miter; stroke-linecap: square"/>
   </g>
   <g id="patch_77">
    <path d="M 993.650625 382.521562 
L 993.650625 36.597562 
" style="fill: none; stroke: #cccccc; stroke-linejoin: miter; stroke-linecap: square"/>
   </g>
   <g id="patch_78">
    <path d="M 546.290625 382.521562 
L 993.650625 382.521562 
" style="fill: none; stroke: #cccccc; stroke-linejoin: miter; stroke-linecap: square"/>
   </g>
   <g id="patch_79">
    <path d="M 546.290625 36.597562 
L 993.650625 36.597562 
" style="fill: none; stroke: #cccccc; stroke-linejoin: miter; stroke-linecap: square"/>
   </g>
   <g id="text_35">
    <!-- 0.21 -->
    <g style="fill: #262626" transform="translate(567.110724 229.146587) scale(0.09 -0.09)">
     <use xlink:href="#ArialMT-30"/>
     <use xlink:href="#ArialMT-2e" transform="translate(55.615234 0)"/>
     <use xlink:href="#ArialMT-32" transform="translate(83.398438 0)"/>
     <use xlink:href="#ArialMT-31" transform="translate(139.013672 0)"/>
    </g>
   </g>
   <g id="text_36">
    <!-- 0.21 -->
    <g style="fill: #262626" transform="translate(585.596674 225.208505) scale(0.09 -0.09)">
     <use xlink:href="#ArialMT-30"/>
     <use xlink:href="#ArialMT-2e" transform="translate(55.615234 0)"/>
     <use xlink:href="#ArialMT-32" transform="translate(83.398438 0)"/>
     <use xlink:href="#ArialMT-31" transform="translate(139.013672 0)"/>
    </g>
   </g>
   <g id="text_37">
    <!-- 0.01 -->
    <g style="fill: #262626" transform="translate(619.927725 365.598395) scale(0.09 -0.09)">
     <use xlink:href="#ArialMT-30"/>
     <use xlink:href="#ArialMT-2e" transform="translate(55.615234 0)"/>
     <use xlink:href="#ArialMT-30" transform="translate(83.398438 0)"/>
     <use xlink:href="#ArialMT-31" transform="translate(139.013672 0)"/>
    </g>
   </g>
   <g id="text_38">
    <!-- 0.01 -->
    <g style="fill: #262626" transform="translate(638.413675 364.986538) scale(0.09 -0.09)">
     <use xlink:href="#ArialMT-30"/>
     <use xlink:href="#ArialMT-2e" transform="translate(55.615234 0)"/>
     <use xlink:href="#ArialMT-30" transform="translate(83.398438 0)"/>
     <use xlink:href="#ArialMT-31" transform="translate(139.013672 0)"/>
    </g>
   </g>
   <g id="text_39">
    <!-- 0.21 -->
    <g style="fill: #262626" transform="translate(672.744726 227.444596) scale(0.09 -0.09)">
     <use xlink:href="#ArialMT-30"/>
     <use xlink:href="#ArialMT-2e" transform="translate(55.615234 0)"/>
     <use xlink:href="#ArialMT-32" transform="translate(83.398438 0)"/>
     <use xlink:href="#ArialMT-31" transform="translate(139.013672 0)"/>
    </g>
   </g>
   <g id="text_40">
    <!-- 0.22 -->
    <g style="fill: #262626" transform="translate(691.230677 222.32038) scale(0.09 -0.09)">
     <use xlink:href="#ArialMT-30"/>
     <use xlink:href="#ArialMT-2e" transform="translate(55.615234 0)"/>
     <use xlink:href="#ArialMT-32" transform="translate(83.398438 0)"/>
     <use xlink:href="#ArialMT-32" transform="translate(139.013672 0)"/>
    </g>
   </g>
   <g id="text_41">
    <!-- 0.05 -->
    <g style="fill: #262626" transform="translate(725.561727 336.827058) scale(0.09 -0.09)">
     <use xlink:href="#ArialMT-30"/>
     <use xlink:href="#ArialMT-2e" transform="translate(55.615234 0)"/>
     <use xlink:href="#ArialMT-30" transform="translate(83.398438 0)"/>
     <use xlink:href="#ArialMT-35" transform="translate(139.013672 0)"/>
    </g>
   </g>
   <g id="text_42">
    <!-- 0.05 -->
    <g style="fill: #262626" transform="translate(744.047678 335.893299) scale(0.09 -0.09)">
     <use xlink:href="#ArialMT-30"/>
     <use xlink:href="#ArialMT-2e" transform="translate(55.615234 0)"/>
     <use xlink:href="#ArialMT-30" transform="translate(83.398438 0)"/>
     <use xlink:href="#ArialMT-35" transform="translate(139.013672 0)"/>
    </g>
   </g>
   <g id="text_43">
    <!-- 0.03 -->
    <g style="fill: #262626" transform="translate(778.378729 354.60596) scale(0.09 -0.09)">
     <use xlink:href="#ArialMT-30"/>
     <use xlink:href="#ArialMT-2e" transform="translate(55.615234 0)"/>
     <use xlink:href="#ArialMT-30" transform="translate(83.398438 0)"/>
     <use xlink:href="#ArialMT-33" transform="translate(139.013672 0)"/>
    </g>
   </g>
   <g id="text_44">
    <!-- 0.04 -->
    <g style="fill: #262626" transform="translate(796.864679 347.426792) scale(0.09 -0.09)">
     <use xlink:href="#ArialMT-30"/>
     <use xlink:href="#ArialMT-2e" transform="translate(55.615234 0)"/>
     <use xlink:href="#ArialMT-30" transform="translate(83.398438 0)"/>
     <use xlink:href="#ArialMT-34" transform="translate(139.013672 0)"/>
    </g>
   </g>
   <g id="text_45">
    <!-- 0.00 -->
    <g style="fill: #262626" transform="translate(831.19573 373.423498) scale(0.09 -0.09)">
     <use xlink:href="#ArialMT-30"/>
     <use xlink:href="#ArialMT-2e" transform="translate(55.615234 0)"/>
     <use xlink:href="#ArialMT-30" transform="translate(83.398438 0)"/>
     <use xlink:href="#ArialMT-30" transform="translate(139.013672 0)"/>
    </g>
   </g>
   <g id="text_46">
    <!-- 0.00 -->
    <g style="fill: #262626" transform="translate(849.68168 371.996541) scale(0.09 -0.09)">
     <use xlink:href="#ArialMT-30"/>
     <use xlink:href="#ArialMT-2e" transform="translate(55.615234 0)"/>
     <use xlink:href="#ArialMT-30" transform="translate(83.398438 0)"/>
     <use xlink:href="#ArialMT-30" transform="translate(139.013672 0)"/>
    </g>
   </g>
   <g id="text_47">
    <!-- 0.01 -->
    <g style="fill: #262626" transform="translate(884.012731 366.331904) scale(0.09 -0.09)">
     <use xlink:href="#ArialMT-30"/>
     <use xlink:href="#ArialMT-2e" transform="translate(55.615234 0)"/>
     <use xlink:href="#ArialMT-30" transform="translate(83.398438 0)"/>
     <use xlink:href="#ArialMT-31" transform="translate(139.013672 0)"/>
    </g>
   </g>
   <g id="text_48">
    <!-- 0.01 -->
    <g style="fill: #262626" transform="translate(902.498681 363.950005) scale(0.09 -0.09)">
     <use xlink:href="#ArialMT-30"/>
     <use xlink:href="#ArialMT-2e" transform="translate(55.615234 0)"/>
     <use xlink:href="#ArialMT-30" transform="translate(83.398438 0)"/>
     <use xlink:href="#ArialMT-31" transform="translate(139.013672 0)"/>
    </g>
   </g>
   <g id="text_49">
    <!-- 0.45 -->
    <g style="fill: #262626" transform="translate(936.829732 61.205285) scale(0.09 -0.09)">
     <use xlink:href="#ArialMT-30"/>
     <use xlink:href="#ArialMT-2e" transform="translate(55.615234 0)"/>
     <use xlink:href="#ArialMT-34" transform="translate(83.398438 0)"/>
     <use xlink:href="#ArialMT-35" transform="translate(139.013672 0)"/>
    </g>
   </g>
   <g id="text_50">
    <!-- 0.47 -->
    <g style="fill: #262626" transform="translate(955.315682 44.258973) scale(0.09 -0.09)">
     <use xlink:href="#ArialMT-30"/>
     <use xlink:href="#ArialMT-2e" transform="translate(55.615234 0)"/>
     <use xlink:href="#ArialMT-34" transform="translate(83.398438 0)"/>
     <use xlink:href="#ArialMT-37" transform="translate(139.013672 0)"/>
    </g>
   </g>
   <g id="text_51">
    <!-- Sobol Indices (LHS-based) -->
    <g style="fill: #262626" transform="translate(692.295625 30.597562) scale(0.13 -0.13)">
     <defs>
      <path id="ArialMT-4c" d="M 469 0 
L 469 4581 
L 1075 4581 
L 1075 541 
L 3331 541 
L 3331 0 
L 469 0 
z
" transform="scale(0.015625)"/>
      <path id="ArialMT-48" d="M 513 0 
L 513 4581 
L 1119 4581 
L 1119 2700 
L 3500 2700 
L 3500 4581 
L 4106 4581 
L 4106 0 
L 3500 0 
L 3500 2159 
L 1119 2159 
L 1119 0 
L 513 0 
z
" transform="scale(0.015625)"/>
      <path id="ArialMT-2d" d="M 203 1375 
L 203 1941 
L 1931 1941 
L 1931 1375 
L 203 1375 
z
" transform="scale(0.015625)"/>
     </defs>
     <use xlink:href="#ArialMT-53"/>
     <use xlink:href="#ArialMT-6f" transform="translate(66.699219 0)"/>
     <use xlink:href="#ArialMT-62" transform="translate(122.314453 0)"/>
     <use xlink:href="#ArialMT-6f" transform="translate(177.929688 0)"/>
     <use xlink:href="#ArialMT-6c" transform="translate(233.544922 0)"/>
     <use xlink:href="#ArialMT-20" transform="translate(255.761719 0)"/>
     <use xlink:href="#ArialMT-49" transform="translate(283.544922 0)"/>
     <use xlink:href="#ArialMT-6e" transform="translate(311.328125 0)"/>
     <use xlink:href="#ArialMT-64" transform="translate(366.943359 0)"/>
     <use xlink:href="#ArialMT-69" transform="translate(422.558594 0)"/>
     <use xlink:href="#ArialMT-63" transform="translate(444.775391 0)"/>
     <use xlink:href="#ArialMT-65" transform="translate(494.775391 0)"/>
     <use xlink:href="#ArialMT-73" transform="translate(550.390625 0)"/>
     <use xlink:href="#ArialMT-20" transform="translate(600.390625 0)"/>
     <use xlink:href="#ArialMT-28" transform="translate(628.173828 0)"/>
     <use xlink:href="#ArialMT-4c" transform="translate(661.474609 0)"/>
     <use xlink:href="#ArialMT-48" transform="translate(717.089844 0)"/>
     <use xlink:href="#ArialMT-53" transform="translate(789.306641 0)"/>
     <use xlink:href="#ArialMT-2d" transform="translate(856.005859 0)"/>
     <use xlink:href="#ArialMT-62" transform="translate(889.306641 0)"/>
     <use xlink:href="#ArialMT-61" transform="translate(944.921875 0)"/>
     <use xlink:href="#ArialMT-73" transform="translate(1000.537109 0)"/>
     <use xlink:href="#ArialMT-65" transform="translate(1050.537109 0)"/>
     <use xlink:href="#ArialMT-64" transform="translate(1106.152344 0)"/>
     <use xlink:href="#ArialMT-29" transform="translate(1161.767578 0)"/>
    </g>
   </g>
   <g id="legend_2">
    <g id="patch_80">
     <path d="M 556.190625 54.431312 
L 578.190625 54.431312 
L 578.190625 46.731312 
L 556.190625 46.731312 
z
" style="fill: #4682b4; opacity: 0.85"/>
    </g>
    <g id="text_52">
     <!-- First-Order $S_i$ -->
     <g style="fill: #262626" transform="translate(586.990625 54.431312) scale(0.11 -0.11)">
      <defs>
       <path id="ArialMT-46" d="M 525 0 
L 525 4581 
L 3616 4581 
L 3616 4041 
L 1131 4041 
L 1131 2622 
L 3281 2622 
L 3281 2081 
L 1131 2081 
L 1131 0 
L 525 0 
z
" transform="scale(0.015625)"/>
       <path id="ArialMT-4f" d="M 309 2231 
Q 309 3372 921 4017 
Q 1534 4663 2503 4663 
Q 3138 4663 3647 4359 
Q 4156 4056 4423 3514 
Q 4691 2972 4691 2284 
Q 4691 1588 4409 1038 
Q 4128 488 3612 205 
Q 3097 -78 2500 -78 
Q 1853 -78 1343 234 
Q 834 547 571 1087 
Q 309 1628 309 2231 
z
M 934 2222 
Q 934 1394 1379 917 
Q 1825 441 2497 441 
Q 3181 441 3623 922 
Q 4066 1403 4066 2288 
Q 4066 2847 3877 3264 
Q 3688 3681 3323 3911 
Q 2959 4141 2506 4141 
Q 1863 4141 1398 3698 
Q 934 3256 934 2222 
z
" transform="scale(0.015625)"/>
       <path id="DejaVuSans-Oblique-69" d="M 1172 4863 
L 1747 4863 
L 1606 4134 
L 1031 4134 
L 1172 4863 
z
M 909 3500 
L 1484 3500 
L 800 0 
L 225 0 
L 909 3500 
z
" transform="scale(0.015625)"/>
      </defs>
      <use xlink:href="#ArialMT-46" transform="translate(0 0.78125)"/>
      <use xlink:href="#ArialMT-69" transform="translate(61.083984 0.78125)"/>
      <use xlink:href="#ArialMT-72" transform="translate(83.300781 0.78125)"/>
      <use xlink:href="#ArialMT-73" transform="translate(116.601562 0.78125)"/>
      <use xlink:href="#ArialMT-74" transform="translate(166.601562 0.78125)"/>
      <use xlink:href="#ArialMT-2d" transform="translate(194.384766 0.78125)"/>
      <use xlink:href="#ArialMT-4f" transform="translate(227.685547 0.78125)"/>
      <use xlink:href="#ArialMT-72" transform="translate(305.46875 0.78125)"/>
      <use xlink:href="#ArialMT-64" transform="translate(338.769531 0.78125)"/>
      <use xlink:href="#ArialMT-65" transform="translate(394.384766 0.78125)"/>
      <use xlink:href="#ArialMT-72" transform="translate(450 0.78125)"/>
      <use xlink:href="#ArialMT-20" transform="translate(483.300781 0.78125)"/>
      <use xlink:href="#DejaVuSans-Oblique-53" transform="translate(511.083984 0.78125)"/>
      <use xlink:href="#DejaVuSans-Oblique-69" transform="translate(574.560547 -15.625) scale(0.7)"/>
     </g>
    </g>
    <g id="patch_81">
     <path d="M 556.190625 70.051312 
L 578.190625 70.051312 
L 578.190625 62.351312 
L 556.190625 62.351312 
z
" style="fill: #3cb371; opacity: 0.85"/>
    </g>
    <g id="text_53">
     <!-- Total-Effect $S_T$ -->
     <g style="fill: #262626" transform="translate(586.990625 70.051312) scale(0.11 -0.11)">
      <defs>
       <path id="ArialMT-45" d="M 506 0 
L 506 4581 
L 3819 4581 
L 3819 4041 
L 1113 4041 
L 1113 2638 
L 3647 2638 
L 3647 2100 
L 1113 2100 
L 1113 541 
L 3925 541 
L 3925 0 
L 506 0 
z
" transform="scale(0.015625)"/>
       <path id="DejaVuSans-Oblique-54" d="M 378 4666 
L 4325 4666 
L 4225 4134 
L 2559 4134 
L 1759 0 
L 1125 0 
L 1925 4134 
L 275 4134 
L 378 4666 
z
" transform="scale(0.015625)"/>
      </defs>
      <use xlink:href="#ArialMT-54" transform="translate(0 0.78125)"/>
      <use xlink:href="#ArialMT-6f" transform="translate(61.083984 0.78125)"/>
      <use xlink:href="#ArialMT-74" transform="translate(116.699219 0.78125)"/>
      <use xlink:href="#ArialMT-61" transform="translate(144.482422 0.78125)"/>
      <use xlink:href="#ArialMT-6c" transform="translate(200.097656 0.78125)"/>
      <use xlink:href="#ArialMT-2d" transform="translate(222.314453 0.78125)"/>
      <use xlink:href="#ArialMT-45" transform="translate(255.615234 0.78125)"/>
      <use xlink:href="#ArialMT-66" transform="translate(322.314453 0.78125)"/>
      <use xlink:href="#ArialMT-66" transform="translate(350.097656 0.78125)"/>
      <use xlink:href="#ArialMT-65" transform="translate(377.880859 0.78125)"/>
      <use xlink:href="#ArialMT-63" transform="translate(433.496094 0.78125)"/>
      <use xlink:href="#ArialMT-74" transform="translate(483.496094 0.78125)"/>
      <use xlink:href="#ArialMT-20" transform="translate(511.279297 0.78125)"/>
      <use xlink:href="#DejaVuSans-Oblique-53" transform="translate(539.0625 0.78125)"/>
      <use xlink:href="#DejaVuSans-Oblique-54" transform="translate(602.539062 -15.625) scale(0.7)"/>
     </g>
    </g>
   </g>
  </g>
 </g>
 <defs>
  <clipPath id="p108de953da">
   <rect x="51.020625" y="36.597562" width="447.36" height="345.924"/>
  </clipPath>
  <clipPath id="p6c6d0a50ac">
   <rect x="546.290625" y="36.597562" width="447.36" height="345.924"/>
  </clipPath>
 </defs>
</svg>
